<ttFont>
<head>
    <!-- Most of this table will be recalculated by the compiler -->
    <tableVersion value="1.0"/>
    <fontRevision value="2.538"/>
    <checkSumAdjustment value="0x9bff30b9"/>
    <magicNumber value="0x5f0f3cf5"/>
    <flags value="00000000 00001111"/>
    <unitsPerEm value="1000"/>
    <created value="Thu May 18 16:22:41 2017"/>
    <modified value="Thu May 18 11:32:08 2017"/>
    <xMin value="-148"/>
    <yMin value="-341"/>
    <xMax value="2301"/>
    <yMax value="935"/>
    <macStyle value="00000000 00000000"/>
    <lowestRecPPEM value="9"/>
    <fontDirectionHint value="2"/>
    <indexToLocFormat value="1"/>
    <glyphDataFormat value="0"/>
  </head>
    <TTGlyph name=".notdef" xMin="45" yMin="0" xMax="435" yMax="560">
      <contour>
        <pt x="435" y="560" on="1"/>
        <pt x="435" y="0" on="1"/>
        <pt x="45" y="0" on="1"/>
        <pt x="45" y="560" on="1"/>
      </contour>
      <contour>
        <pt x="240" y="310" on="1"/>
        <pt x="382" y="525" on="1"/>
        <pt x="98" y="525" on="1"/>
      </contour>
      <contour>
        <pt x="262" y="280" on="1"/>
        <pt x="400" y="73" on="1"/>
        <pt x="400" y="487" on="1"/>
      </contour>
      <contour>
        <pt x="98" y="35" on="1"/>
        <pt x="382" y="35" on="1"/>
        <pt x="240" y="250" on="1"/>
      </contour>
      <contour>
        <pt x="80" y="73" on="1"/>
        <pt x="218" y="280" on="1"/>
        <pt x="80" y="487" on="1"/>
      </contour>
    </TTGlyph>
    <TTGlyph name="A" xMin="26" yMin="0" xMax="557" yMax="630">
      <contour>
        <pt x="267" y="630" on="1"/>
        <pt x="319" y="630" on="1"/>
        <pt x="557" y="0" on="1"/>
        <pt x="501" y="0" on="1"/>
        <pt x="432" y="186" on="1"/>
        <pt x="150" y="186" on="1"/>
        <pt x="81" y="0" on="1"/>
        <pt x="26" y="0" on="1"/>
      </contour>
      <contour>
        <pt x="166" y="228" on="1"/>
        <pt x="415" y="228" on="1"/>
        <pt x="336" y="444" on="1"/>
        <pt x="334" y="450" on="0"/>
        <pt x="324" y="480" on="0"/>
        <pt x="312" y="518" on="0"/>
        <pt x="299" y="560" on="0"/>
        <pt x="294" y="578" on="1"/>
        <pt x="292" y="578" on="1"/>
        <pt x="287" y="560" on="0"/>
        <pt x="274" y="520" on="0"/>
        <pt x="261" y="483" on="0"/>
        <pt x="250" y="453" on="0"/>
        <pt x="247" y="444" on="1"/>
      </contour>
    </TTGlyph>
    <TTGlyph name="AE" xMin="16" yMin="0" xMax="723" yMax="630">
      <contour>
        <pt x="16" y="0" on="1"/>
        <pt x="340" y="630" on="1"/>
        <pt x="720" y="630" on="1"/>
        <pt x="720" y="588" on="1"/>
        <pt x="422" y="588" on="1"/>
        <pt x="422" y="345" on="1"/>
        <pt x="694" y="345" on="1"/>
        <pt x="694" y="303" on="1"/>
        <pt x="422" y="303" on="1"/>
        <pt x="422" y="42" on="1"/>
        <pt x="723" y="42" on="1"/>
        <pt x="723" y="0" on="1"/>
        <pt x="370" y="0" on="1"/>
        <pt x="370" y="193" on="1"/>
        <pt x="168" y="193" on="1"/>
        <pt x="71" y="0" on="1"/>
      </contour>
      <contour>
        <pt x="370" y="593" on="1"/>
        <pt x="189" y="235" on="1"/>
        <pt x="370" y="235" on="1"/>
      </contour>
    </TTGlyph>
    <TTGlyph name="AEacute" xMin="16" yMin="0" xMax="723" yMax="834">
      <contour>
        <pt x="16" y="0" on="1"/>
        <pt x="340" y="630" on="1"/>
        <pt x="720" y="630" on="1"/>
        <pt x="720" y="588" on="1"/>
        <pt x="422" y="588" on="1"/>
        <pt x="422" y="345" on="1"/>
        <pt x="694" y="345" on="1"/>
        <pt x="694" y="303" on="1"/>
        <pt x="422" y="303" on="1"/>
        <pt x="422" y="42" on="1"/>
        <pt x="723" y="42" on="1"/>
        <pt x="723" y="0" on="1"/>
        <pt x="370" y="0" on="1"/>
        <pt x="370" y="193" on="1"/>
        <pt x="168" y="193" on="1"/>
        <pt x="71" y="0" on="1"/>
      </contour>
      <contour>
        <pt x="370" y="593" on="1"/>
        <pt x="189" y="235" on="1"/>
        <pt x="370" y="235" on="1"/>
      </contour>
      <contour>
        <pt x="391" y="710" on="1"/>
        <pt x="349" y="710" on="1"/>
        <pt x="439" y="834" on="1"/>
        <pt x="502" y="834" on="1"/>
      </contour>
    </TTGlyph>
    <TTGlyph name="Aacute" xMin="26" yMin="0" xMax="557" yMax="834">
      <contour>
        <pt x="311" y="710" on="1"/>
        <pt x="269" y="710" on="1"/>
        <pt x="359" y="834" on="1"/>
        <pt x="422" y="834" on="1"/>
      </contour>
      <contour>
        <pt x="267" y="630" on="1"/>
        <pt x="319" y="630" on="1"/>
        <pt x="557" y="0" on="1"/>
        <pt x="501" y="0" on="1"/>
        <pt x="432" y="186" on="1"/>
        <pt x="150" y="186" on="1"/>
        <pt x="81" y="0" on="1"/>
        <pt x="26" y="0" on="1"/>
      </contour>
      <contour>
        <pt x="166" y="228" on="1"/>
        <pt x="415" y="228" on="1"/>
        <pt x="336" y="444" on="1"/>
        <pt x="334" y="450" on="0"/>
        <pt x="324" y="480" on="0"/>
        <pt x="312" y="518" on="0"/>
        <pt x="299" y="560" on="0"/>
        <pt x="294" y="578" on="1"/>
        <pt x="292" y="578" on="1"/>
        <pt x="287" y="560" on="0"/>
        <pt x="274" y="520" on="0"/>
        <pt x="261" y="483" on="0"/>
        <pt x="250" y="453" on="0"/>
        <pt x="247" y="444" on="1"/>
      </contour>
    </TTGlyph>
    <TTGlyph name="Aaytam.tm" xMin="23" yMin="-3" xMax="569" yMax="507">
      <contour>
        <pt x="296" y="507" on="1"/>
        <pt x="320" y="507" on="0"/>
        <pt x="362" y="490" on="0"/>
        <pt x="393" y="459" on="0"/>
        <pt x="410" y="418" on="0"/>
        <pt x="410" y="394" on="1"/>
        <pt x="410" y="340" on="0"/>
        <pt x="344" y="280" on="0"/>
        <pt x="294" y="280" on="1"/>
        <pt x="270" y="280" on="0"/>
        <pt x="229" y="295" on="0"/>
        <pt x="198" y="325" on="0"/>
        <pt x="180" y="367" on="0"/>
        <pt x="180" y="394" on="1"/>
        <pt x="180" y="442" on="0"/>
        <pt x="245" y="507" on="0"/>
      </contour>
      <contour>
        <pt x="294" y="473" on="1"/>
        <pt x="264" y="473" on="0"/>
        <pt x="222" y="432" on="0"/>
        <pt x="222" y="394" on="1"/>
        <pt x="222" y="355" on="0"/>
        <pt x="264" y="314" on="0"/>
        <pt x="296" y="314" on="1"/>
        <pt x="326" y="314" on="0"/>
        <pt x="368" y="355" on="0"/>
        <pt x="368" y="394" on="1"/>
        <pt x="368" y="432" on="0"/>
        <pt x="326" y="473" on="0"/>
      </contour>
      <contour>
        <pt x="139" y="224" on="1"/>
        <pt x="163" y="224" on="0"/>
        <pt x="205" y="207" on="0"/>
        <pt x="235" y="176" on="0"/>
        <pt x="253" y="134" on="0"/>
        <pt x="253" y="109" on="1"/>
        <pt x="253" y="56" on="0"/>
        <pt x="187" y="-3" on="0"/>
        <pt x="137" y="-3" on="1"/>
        <pt x="89" y="-3" on="0"/>
        <pt x="23" y="56" on="0"/>
        <pt x="23" y="109" on="1"/>
        <pt x="23" y="159" on="0"/>
        <pt x="88" y="224" on="0"/>
      </contour>
      <contour>
        <pt x="137" y="190" on="1"/>
        <pt x="107" y="190" on="0"/>
        <pt x="65" y="148" on="0"/>
        <pt x="65" y="109" on="1"/>
        <pt x="65" y="71" on="0"/>
        <pt x="107" y="31" on="0"/>
        <pt x="139" y="31" on="1"/>
        <pt x="169" y="31" on="0"/>
        <pt x="211" y="71" on="0"/>
        <pt x="211" y="109" on="1"/>
        <pt x="211" y="148" on="0"/>
        <pt x="169" y="190" on="0"/>
      </contour>
      <contour>
        <pt x="455" y="224" on="1"/>
        <pt x="479" y="224" on="0"/>
        <pt x="521" y="207" on="0"/>
        <pt x="551" y="176" on="0"/>
        <pt x="569" y="134" on="0"/>
        <pt x="569" y="109" on="1"/>
        <pt x="569" y="56" on="0"/>
        <pt x="504" y="-3" on="0"/>
        <pt x="453" y="-3" on="1"/>
        <pt x="405" y="-3" on="0"/>
        <pt x="339" y="56" on="0"/>
        <pt x="339" y="109" on="1"/>
        <pt x="339" y="159" on="0"/>
        <pt x="404" y="224" on="0"/>
      </contour>
      <contour>
        <pt x="453" y="190" on="1"/>
        <pt x="423" y="190" on="0"/>
        <pt x="381" y="148" on="0"/>
        <pt x="381" y="109" on="1"/>
        <pt x="381" y="71" on="0"/>
        <pt x="423" y="31" on="0"/>
        <pt x="455" y="31" on="1"/>
        <pt x="485" y="31" on="0"/>
        <pt x="527" y="71" on="0"/>
        <pt x="527" y="109" on="1"/>
        <pt x="527" y="148" on="0"/>
        <pt x="485" y="190" on="0"/>
      </contour>
    </TTGlyph>
    <TTGlyph name="Abreve" xMin="26" yMin="0" xMax="557" yMax="834">
      <contour>
        <pt x="206" y="834" on="1"/>
        <pt x="207" y="796" on="0"/>
        <pt x="247" y="750" on="0"/>
        <pt x="294" y="750" on="1"/>
        <pt x="333" y="750" on="0"/>
        <pt x="378" y="794" on="0"/>
        <pt x="379" y="834" on="1"/>
        <pt x="427" y="834" on="1"/>
        <pt x="427" y="780" on="0"/>
        <pt x="359" y="710" on="0"/>
        <pt x="294" y="710" on="1"/>
        <pt x="258" y="710" on="0"/>
        <pt x="207" y="730" on="0"/>
        <pt x="174" y="765" on="0"/>
        <pt x="158" y="810" on="0"/>
        <pt x="158" y="834" on="1"/>
      </contour>
      <contour>
        <pt x="267" y="630" on="1"/>
        <pt x="319" y="630" on="1"/>
        <pt x="557" y="0" on="1"/>
        <pt x="501" y="0" on="1"/>
        <pt x="432" y="186" on="1"/>
        <pt x="150" y="186" on="1"/>
        <pt x="81" y="0" on="1"/>
        <pt x="26" y="0" on="1"/>
      </contour>
      <contour>
        <pt x="166" y="228" on="1"/>
        <pt x="415" y="228" on="1"/>
        <pt x="336" y="444" on="1"/>
        <pt x="334" y="450" on="0"/>
        <pt x="324" y="480" on="0"/>
        <pt x="312" y="518" on="0"/>
        <pt x="299" y="560" on="0"/>
        <pt x="294" y="578" on="1"/>
        <pt x="292" y="578" on="1"/>
        <pt x="287" y="560" on="0"/>
        <pt x="274" y="520" on="0"/>
        <pt x="261" y="483" on="0"/>
        <pt x="250" y="453" on="0"/>
        <pt x="247" y="444" on="1"/>
      </contour>
    </TTGlyph>
    <TTGlyph name="Acircumflex" xMin="26" yMin="0" xMax="557" yMax="844">
      <contour>
        <pt x="270" y="844" on="1"/>
        <pt x="319" y="844" on="1"/>
        <pt x="444" y="710" on="1"/>
        <pt x="384" y="710" on="1"/>
        <pt x="294" y="809" on="1"/>
        <pt x="204" y="710" on="1"/>
        <pt x="148" y="710" on="1"/>
      </contour>
      <contour>
        <pt x="267" y="630" on="1"/>
        <pt x="319" y="630" on="1"/>
        <pt x="557" y="0" on="1"/>
        <pt x="501" y="0" on="1"/>
        <pt x="432" y="186" on="1"/>
        <pt x="150" y="186" on="1"/>
        <pt x="81" y="0" on="1"/>
        <pt x="26" y="0" on="1"/>
      </contour>
      <contour>
        <pt x="166" y="228" on="1"/>
        <pt x="415" y="228" on="1"/>
        <pt x="336" y="444" on="1"/>
        <pt x="334" y="450" on="0"/>
        <pt x="324" y="480" on="0"/>
        <pt x="312" y="518" on="0"/>
        <pt x="299" y="560" on="0"/>
        <pt x="294" y="578" on="1"/>
        <pt x="292" y="578" on="1"/>
        <pt x="287" y="560" on="0"/>
        <pt x="274" y="520" on="0"/>
        <pt x="261" y="483" on="0"/>
        <pt x="250" y="453" on="0"/>
        <pt x="247" y="444" on="1"/>
      </contour>
    </TTGlyph>
    <TTGlyph name="Adieresis" xMin="26" yMin="0" xMax="557" yMax="810">
      <contour>
        <pt x="169" y="766" on="1"/>
        <pt x="169" y="786" on="0"/>
        <pt x="192" y="810" on="0"/>
        <pt x="209" y="810" on="1"/>
        <pt x="226" y="810" on="0"/>
        <pt x="249" y="786" on="0"/>
        <pt x="249" y="766" on="1"/>
        <pt x="249" y="745" on="0"/>
        <pt x="226" y="722" on="0"/>
        <pt x="209" y="722" on="1"/>
        <pt x="192" y="722" on="0"/>
        <pt x="169" y="745" on="0"/>
      </contour>
      <contour>
        <pt x="339" y="766" on="1"/>
        <pt x="339" y="786" on="0"/>
        <pt x="362" y="810" on="0"/>
        <pt x="379" y="810" on="1"/>
        <pt x="396" y="810" on="0"/>
        <pt x="419" y="786" on="0"/>
        <pt x="419" y="766" on="1"/>
        <pt x="419" y="745" on="0"/>
        <pt x="396" y="722" on="0"/>
        <pt x="379" y="722" on="1"/>
        <pt x="362" y="722" on="0"/>
        <pt x="339" y="745" on="0"/>
      </contour>
      <contour>
        <pt x="267" y="630" on="1"/>
        <pt x="319" y="630" on="1"/>
        <pt x="557" y="0" on="1"/>
        <pt x="501" y="0" on="1"/>
        <pt x="432" y="186" on="1"/>
        <pt x="150" y="186" on="1"/>
        <pt x="81" y="0" on="1"/>
        <pt x="26" y="0" on="1"/>
      </contour>
      <contour>
        <pt x="166" y="228" on="1"/>
        <pt x="415" y="228" on="1"/>
        <pt x="336" y="444" on="1"/>
        <pt x="334" y="450" on="0"/>
        <pt x="324" y="480" on="0"/>
        <pt x="312" y="518" on="0"/>
        <pt x="299" y="560" on="0"/>
        <pt x="294" y="578" on="1"/>
        <pt x="292" y="578" on="1"/>
        <pt x="287" y="560" on="0"/>
        <pt x="274" y="520" on="0"/>
        <pt x="261" y="483" on="0"/>
        <pt x="250" y="453" on="0"/>
        <pt x="247" y="444" on="1"/>
      </contour>
    </TTGlyph>
    <TTGlyph name="Agrave" xMin="26" yMin="0" xMax="557" yMax="834">
      <contour>
        <pt x="171" y="834" on="1"/>
        <pt x="234" y="834" on="1"/>
        <pt x="324" y="710" on="1"/>
        <pt x="282" y="710" on="1"/>
      </contour>
      <contour>
        <pt x="267" y="630" on="1"/>
        <pt x="319" y="630" on="1"/>
        <pt x="557" y="0" on="1"/>
        <pt x="501" y="0" on="1"/>
        <pt x="432" y="186" on="1"/>
        <pt x="150" y="186" on="1"/>
        <pt x="81" y="0" on="1"/>
        <pt x="26" y="0" on="1"/>
      </contour>
      <contour>
        <pt x="166" y="228" on="1"/>
        <pt x="415" y="228" on="1"/>
        <pt x="336" y="444" on="1"/>
        <pt x="334" y="450" on="0"/>
        <pt x="324" y="480" on="0"/>
        <pt x="312" y="518" on="0"/>
        <pt x="299" y="560" on="0"/>
        <pt x="294" y="578" on="1"/>
        <pt x="292" y="578" on="1"/>
        <pt x="287" y="560" on="0"/>
        <pt x="274" y="520" on="0"/>
        <pt x="261" y="483" on="0"/>
        <pt x="250" y="453" on="0"/>
        <pt x="247" y="444" on="1"/>
      </contour>
    </TTGlyph>
    <TTGlyph name="Amacron" xMin="26" yMin="0" xMax="557" yMax="772">
      <contour>
        <pt x="417" y="772" on="1"/>
        <pt x="417" y="730" on="1"/>
        <pt x="172" y="730" on="1"/>
        <pt x="172" y="772" on="1"/>
      </contour>
      <contour>
        <pt x="267" y="630" on="1"/>
        <pt x="319" y="630" on="1"/>
        <pt x="557" y="0" on="1"/>
        <pt x="501" y="0" on="1"/>
        <pt x="432" y="186" on="1"/>
        <pt x="150" y="186" on="1"/>
        <pt x="81" y="0" on="1"/>
        <pt x="26" y="0" on="1"/>
      </contour>
      <contour>
        <pt x="166" y="228" on="1"/>
        <pt x="415" y="228" on="1"/>
        <pt x="336" y="444" on="1"/>
        <pt x="334" y="450" on="0"/>
        <pt x="324" y="480" on="0"/>
        <pt x="312" y="518" on="0"/>
        <pt x="299" y="560" on="0"/>
        <pt x="294" y="578" on="1"/>
        <pt x="292" y="578" on="1"/>
        <pt x="287" y="560" on="0"/>
        <pt x="274" y="520" on="0"/>
        <pt x="261" y="483" on="0"/>
        <pt x="250" y="453" on="0"/>
        <pt x="247" y="444" on="1"/>
      </contour>
    </TTGlyph>
    <TTGlyph name="Anusvara.tm" xMin="2" yMin="544" xMax="232" yMax="771">
      <contour>
        <pt x="118" y="771" on="1"/>
        <pt x="142" y="771" on="0"/>
        <pt x="184" y="754" on="0"/>
        <pt x="215" y="723" on="0"/>
        <pt x="232" y="682" on="0"/>
        <pt x="232" y="658" on="1"/>
        <pt x="232" y="604" on="0"/>
        <pt x="166" y="544" on="0"/>
        <pt x="116" y="544" on="1"/>
        <pt x="92" y="544" on="0"/>
        <pt x="51" y="559" on="0"/>
        <pt x="20" y="589" on="0"/>
        <pt x="2" y="631" on="0"/>
        <pt x="2" y="658" on="1"/>
        <pt x="2" y="706" on="0"/>
        <pt x="67" y="771" on="0"/>
      </contour>
      <contour>
        <pt x="116" y="737" on="1"/>
        <pt x="86" y="737" on="0"/>
        <pt x="44" y="696" on="0"/>
        <pt x="44" y="658" on="1"/>
        <pt x="44" y="619" on="0"/>
        <pt x="86" y="578" on="0"/>
        <pt x="118" y="578" on="1"/>
        <pt x="148" y="578" on="0"/>
        <pt x="190" y="619" on="0"/>
        <pt x="190" y="658" on="1"/>
        <pt x="190" y="696" on="0"/>
        <pt x="148" y="737" on="0"/>
      </contour>
    </TTGlyph>
    <TTGlyph name="Aogonek" xMin="26" yMin="-206" xMax="601" yMax="630">
      <contour>
        <pt x="267" y="630" on="1"/>
        <pt x="319" y="630" on="1"/>
        <pt x="557" y="0" on="1"/>
        <pt x="463" y="-45" on="0"/>
        <pt x="463" y="-106" on="1"/>
        <pt x="463" y="-135" on="0"/>
        <pt x="501" y="-166" on="0"/>
        <pt x="536" y="-166" on="1"/>
        <pt x="553" y="-166" on="0"/>
        <pt x="582" y="-159" on="0"/>
        <pt x="592" y="-154" on="1"/>
        <pt x="601" y="-185" on="1"/>
        <pt x="566" y="-206" on="0"/>
        <pt x="521" y="-206" on="1"/>
        <pt x="475" y="-206" on="0"/>
        <pt x="414" y="-156" on="0"/>
        <pt x="414" y="-109" on="1"/>
        <pt x="414" y="-71" on="0"/>
        <pt x="467" y="-14" on="0"/>
        <pt x="501" y="0" on="1"/>
        <pt x="432" y="186" on="1"/>
        <pt x="150" y="186" on="1"/>
        <pt x="81" y="0" on="1"/>
        <pt x="26" y="0" on="1"/>
      </contour>
      <contour>
        <pt x="166" y="228" on="1"/>
        <pt x="415" y="228" on="1"/>
        <pt x="336" y="444" on="1"/>
        <pt x="334" y="450" on="0"/>
        <pt x="324" y="480" on="0"/>
        <pt x="312" y="518" on="0"/>
        <pt x="299" y="560" on="0"/>
        <pt x="294" y="578" on="1"/>
        <pt x="292" y="578" on="1"/>
        <pt x="287" y="560" on="0"/>
        <pt x="274" y="520" on="0"/>
        <pt x="261" y="483" on="0"/>
        <pt x="250" y="453" on="0"/>
        <pt x="247" y="444" on="1"/>
      </contour>
    </TTGlyph>
    <TTGlyph name="Aring" xMin="26" yMin="0" xMax="557" yMax="843">
      <contour>
        <pt x="201" y="760" on="1"/>
        <pt x="201" y="802" on="0"/>
        <pt x="256" y="843" on="0"/>
        <pt x="294" y="843" on="1"/>
        <pt x="332" y="843" on="0"/>
        <pt x="387" y="802" on="0"/>
        <pt x="387" y="760" on="1"/>
        <pt x="387" y="718" on="0"/>
        <pt x="331" y="677" on="0"/>
        <pt x="294" y="677" on="1"/>
        <pt x="256" y="677" on="0"/>
        <pt x="201" y="720" on="0"/>
      </contour>
      <contour>
        <pt x="241" y="760" on="1"/>
        <pt x="241" y="734" on="0"/>
        <pt x="269" y="705" on="0"/>
        <pt x="294" y="705" on="1"/>
        <pt x="319" y="705" on="0"/>
        <pt x="347" y="734" on="0"/>
        <pt x="347" y="760" on="1"/>
        <pt x="347" y="786" on="0"/>
        <pt x="318" y="815" on="0"/>
        <pt x="294" y="815" on="1"/>
        <pt x="270" y="815" on="0"/>
        <pt x="241" y="786" on="0"/>
      </contour>
      <contour>
        <pt x="267" y="630" on="1"/>
        <pt x="319" y="630" on="1"/>
        <pt x="557" y="0" on="1"/>
        <pt x="501" y="0" on="1"/>
        <pt x="432" y="186" on="1"/>
        <pt x="150" y="186" on="1"/>
        <pt x="81" y="0" on="1"/>
        <pt x="26" y="0" on="1"/>
      </contour>
      <contour>
        <pt x="166" y="228" on="1"/>
        <pt x="415" y="228" on="1"/>
        <pt x="336" y="444" on="1"/>
        <pt x="334" y="450" on="0"/>
        <pt x="324" y="480" on="0"/>
        <pt x="312" y="518" on="0"/>
        <pt x="299" y="560" on="0"/>
        <pt x="294" y="578" on="1"/>
        <pt x="292" y="578" on="1"/>
        <pt x="287" y="560" on="0"/>
        <pt x="274" y="520" on="0"/>
        <pt x="261" y="483" on="0"/>
        <pt x="250" y="453" on="0"/>
        <pt x="247" y="444" on="1"/>
      </contour>
    </TTGlyph>
    <TTGlyph name="AsAboveSign.tm" xMin="48" yMin="-191" xMax="1691" yMax="710">
      <contour>
        <pt x="389" y="710" on="1"/>
        <pt x="452" y="710" on="0"/>
        <pt x="547" y="671" on="0"/>
        <pt x="618" y="610" on="0"/>
        <pt x="672" y="534" on="0"/>
        <pt x="695" y="498" on="1"/>
        <pt x="715" y="466" on="0"/>
        <pt x="749" y="421" on="0"/>
        <pt x="766" y="404" on="1"/>
        <pt x="782" y="422" on="0"/>
        <pt x="823" y="457" on="0"/>
        <pt x="874" y="483" on="0"/>
        <pt x="934" y="499" on="0"/>
        <pt x="969" y="499" on="1"/>
        <pt x="1024" y="499" on="0"/>
        <pt x="1118" y="458" on="0"/>
        <pt x="1187" y="388" on="0"/>
        <pt x="1225" y="292" on="0"/>
        <pt x="1225" y="237" on="1"/>
        <pt x="1225" y="201" on="0"/>
        <pt x="1213" y="140" on="0"/>
        <pt x="1195" y="90" on="0"/>
        <pt x="1174" y="50" on="0"/>
        <pt x="1165" y="36" on="1"/>
        <pt x="1370" y="36" on="1"/>
        <pt x="1472" y="240" on="1"/>
        <pt x="1396" y="240" on="0"/>
        <pt x="1301" y="313" on="0"/>
        <pt x="1301" y="374" on="1"/>
        <pt x="1301" y="401" on="0"/>
        <pt x="1320" y="447" on="0"/>
        <pt x="1355" y="480" on="0"/>
        <pt x="1402" y="499" on="0"/>
        <pt x="1430" y="499" on="1"/>
        <pt x="1458" y="499" on="0"/>
        <pt x="1507" y="479" on="0"/>
        <pt x="1541" y="445" on="0"/>
        <pt x="1561" y="397" on="0"/>
        <pt x="1561" y="369" on="1"/>
        <pt x="1561" y="346" on="0"/>
        <pt x="1547" y="296" on="0"/>
        <pt x="1537" y="275" on="1"/>
        <pt x="1606" y="275" on="0"/>
        <pt x="1691" y="207" on="0"/>
        <pt x="1691" y="144" on="1"/>
        <pt x="1691" y="81" on="0"/>
        <pt x="1607" y="0" on="0"/>
        <pt x="1513" y="0" on="1"/>
        <pt x="1400" y="0" on="1"/>
        <pt x="1301" y="-191" on="1"/>
        <pt x="1263" y="-170" on="1"/>
        <pt x="1352" y="0" on="1"/>
        <pt x="1125" y="0" on="1"/>
        <pt x="1107" y="33" on="1"/>
        <pt x="1142" y="72" on="0"/>
        <pt x="1180" y="174" on="0"/>
        <pt x="1180" y="234" on="1"/>
        <pt x="1180" y="283" on="0"/>
        <pt x="1150" y="367" on="0"/>
        <pt x="1095" y="427" on="0"/>
        <pt x="1015" y="461" on="0"/>
        <pt x="965" y="461" on="1"/>
        <pt x="905" y="461" on="0"/>
        <pt x="820" y="410" on="0"/>
        <pt x="795" y="378" on="1"/>
        <pt x="822" y="352" on="0"/>
        <pt x="886" y="302" on="0"/>
        <pt x="942" y="246" on="0"/>
        <pt x="980" y="180" on="0"/>
        <pt x="980" y="137" on="1"/>
        <pt x="980" y="68" on="0"/>
        <pt x="899" y="-5" on="0"/>
        <pt x="839" y="-5" on="1"/>
        <pt x="810" y="-5" on="0"/>
        <pt x="754" y="18" on="0"/>
        <pt x="711" y="64" on="0"/>
        <pt x="685" y="136" on="0"/>
        <pt x="685" y="185" on="1"/>
        <pt x="685" y="245" on="0"/>
        <pt x="719" y="340" on="0"/>
        <pt x="741" y="372" on="1"/>
        <pt x="724" y="389" on="0"/>
        <pt x="677" y="447" on="0"/>
        <pt x="653" y="489" on="1"/>
        <pt x="635" y="520" on="0"/>
        <pt x="587" y="585" on="0"/>
        <pt x="523" y="639" on="0"/>
        <pt x="440" y="673" on="0"/>
        <pt x="386" y="673" on="1"/>
        <pt x="325" y="673" on="0"/>
        <pt x="218" y="630" on="0"/>
        <pt x="139" y="549" on="0"/>
        <pt x="93" y="432" on="0"/>
        <pt x="93" y="357" on="1"/>
        <pt x="93" y="282" on="0"/>
        <pt x="137" y="161" on="0"/>
        <pt x="215" y="77" on="0"/>
        <pt x="321" y="32" on="0"/>
        <pt x="383" y="32" on="1"/>
        <pt x="418" y="32" on="0"/>
        <pt x="430" y="36" on="1"/>
        <pt x="407" y="37" on="0"/>
        <pt x="356" y="57" on="0"/>
        <pt x="313" y="94" on="0"/>
        <pt x="285" y="148" on="0"/>
        <pt x="285" y="183" on="1"/>
        <pt x="285" y="213" on="0"/>
        <pt x="308" y="266" on="0"/>
        <pt x="349" y="305" on="0"/>
        <pt x="405" y="328" on="0"/>
        <pt x="439" y="328" on="1"/>
        <pt x="473" y="328" on="0"/>
        <pt x="530" y="305" on="0"/>
        <pt x="571" y="266" on="0"/>
        <pt x="594" y="212" on="0"/>
        <pt x="594" y="181" on="1"/>
        <pt x="594" y="143" on="0"/>
        <pt x="564" y="76" on="0"/>
        <pt x="507" y="26" on="0"/>
        <pt x="424" y="-3" on="0"/>
        <pt x="372" y="-3" on="1"/>
        <pt x="303" y="-3" on="0"/>
        <pt x="184" y="48" on="0"/>
        <pt x="97" y="143" on="0"/>
        <pt x="48" y="276" on="0"/>
        <pt x="48" y="357" on="1"/>
        <pt x="48" y="436" on="0"/>
        <pt x="101" y="566" on="0"/>
        <pt x="192" y="659" on="0"/>
        <pt x="317" y="710" on="0"/>
      </contour>
      <contour>
        <pt x="936" y="137" on="1"/>
        <pt x="936" y="174" on="0"/>
        <pt x="900" y="234" on="0"/>
        <pt x="848" y="283" on="0"/>
        <pt x="791" y="324" on="0"/>
        <pt x="771" y="344" on="1"/>
        <pt x="753" y="315" on="0"/>
        <pt x="730" y="233" on="0"/>
        <pt x="730" y="179" on="1"/>
        <pt x="730" y="142" on="0"/>
        <pt x="748" y="87" on="0"/>
        <pt x="779" y="51" on="0"/>
        <pt x="819" y="33" on="0"/>
        <pt x="841" y="33" on="1"/>
        <pt x="886" y="33" on="0"/>
        <pt x="936" y="86" on="0"/>
      </contour>
      <contour>
        <pt x="329" y="181" on="1"/>
        <pt x="329" y="150" on="0"/>
        <pt x="355" y="104" on="0"/>
        <pt x="397" y="73" on="0"/>
        <pt x="449" y="57" on="0"/>
        <pt x="475" y="57" on="1"/>
        <pt x="507" y="71" on="0"/>
        <pt x="550" y="133" on="0"/>
        <pt x="550" y="178" on="1"/>
        <pt x="550" y="228" on="0"/>
        <pt x="488" y="291" on="0"/>
        <pt x="437" y="291" on="1"/>
        <pt x="389" y="291" on="0"/>
        <pt x="329" y="230" on="0"/>
      </contour>
      <contour>
        <pt x="1520" y="239" on="1"/>
        <pt x="1418" y="36" on="1"/>
        <pt x="1519" y="36" on="1"/>
        <pt x="1584" y="36" on="0"/>
        <pt x="1645" y="99" on="0"/>
        <pt x="1645" y="144" on="1"/>
        <pt x="1645" y="191" on="0"/>
        <pt x="1584" y="239" on="0"/>
        <pt x="1533" y="239" on="1"/>
      </contour>
      <contour>
        <pt x="1346" y="375" on="1"/>
        <pt x="1346" y="330" on="0"/>
        <pt x="1416" y="277" on="0"/>
        <pt x="1476" y="277" on="1"/>
        <pt x="1490" y="277" on="1"/>
        <pt x="1501" y="300" on="0"/>
        <pt x="1515" y="344" on="0"/>
        <pt x="1515" y="367" on="1"/>
        <pt x="1515" y="409" on="0"/>
        <pt x="1470" y="461" on="0"/>
        <pt x="1428" y="461" on="1"/>
        <pt x="1390" y="461" on="0"/>
        <pt x="1346" y="414" on="0"/>
      </contour>
    </TTGlyph>
    <TTGlyph name="Asmall" xMin="1" yMin="0" xMax="409" yMax="470">
      <contour>
        <pt x="182" y="470" on="1"/>
        <pt x="231" y="470" on="1"/>
        <pt x="409" y="0" on="1"/>
        <pt x="357" y="0" on="1"/>
        <pt x="307" y="132" on="1"/>
        <pt x="101" y="132" on="1"/>
        <pt x="52" y="0" on="1"/>
        <pt x="1" y="0" on="1"/>
      </contour>
      <contour>
        <pt x="205" y="411" on="1"/>
        <pt x="197" y="388" on="0"/>
        <pt x="182" y="347" on="0"/>
        <pt x="177" y="333" on="1"/>
        <pt x="116" y="171" on="1"/>
        <pt x="293" y="171" on="1"/>
        <pt x="233" y="333" on="1"/>
        <pt x="229" y="343" on="0"/>
        <pt x="213" y="390" on="0"/>
        <pt x="207" y="411" on="1"/>
      </contour>
    </TTGlyph>
    <TTGlyph name="Atilde" xMin="26" yMin="0" xMax="557" yMax="818">
      <contour>
        <pt x="148" y="715" on="1"/>
        <pt x="148" y="757" on="0"/>
        <pt x="189" y="815" on="0"/>
        <pt x="235" y="815" on="1"/>
        <pt x="257" y="815" on="0"/>
        <pt x="289" y="798" on="0"/>
        <pt x="317" y="778" on="0"/>
        <pt x="345" y="761" on="0"/>
        <pt x="362" y="761" on="1"/>
        <pt x="388" y="761" on="0"/>
        <pt x="409" y="793" on="0"/>
        <pt x="411" y="818" on="1"/>
        <pt x="451" y="818" on="1"/>
        <pt x="451" y="799" on="0"/>
        <pt x="440" y="764" on="0"/>
        <pt x="419" y="737" on="0"/>
        <pt x="388" y="721" on="0"/>
        <pt x="367" y="721" on="1"/>
        <pt x="344" y="721" on="0"/>
        <pt x="308" y="738" on="0"/>
        <pt x="278" y="758" on="0"/>
        <pt x="251" y="775" on="0"/>
        <pt x="238" y="775" on="1"/>
        <pt x="212" y="775" on="0"/>
        <pt x="190" y="739" on="0"/>
        <pt x="188" y="715" on="1"/>
      </contour>
      <contour>
        <pt x="267" y="630" on="1"/>
        <pt x="319" y="630" on="1"/>
        <pt x="557" y="0" on="1"/>
        <pt x="501" y="0" on="1"/>
        <pt x="432" y="186" on="1"/>
        <pt x="150" y="186" on="1"/>
        <pt x="81" y="0" on="1"/>
        <pt x="26" y="0" on="1"/>
      </contour>
      <contour>
        <pt x="166" y="228" on="1"/>
        <pt x="415" y="228" on="1"/>
        <pt x="336" y="444" on="1"/>
        <pt x="334" y="450" on="0"/>
        <pt x="324" y="480" on="0"/>
        <pt x="312" y="518" on="0"/>
        <pt x="299" y="560" on="0"/>
        <pt x="294" y="578" on="1"/>
        <pt x="292" y="578" on="1"/>
        <pt x="287" y="560" on="0"/>
        <pt x="274" y="520" on="0"/>
        <pt x="261" y="483" on="0"/>
        <pt x="250" y="453" on="0"/>
        <pt x="247" y="444" on="1"/>
      </contour>
    </TTGlyph>
    <TTGlyph name="B" xMin="80" yMin="0" xMax="447" yMax="630">
      <contour>
        <pt x="230" y="630" on="1"/>
        <pt x="324" y="630" on="0"/>
        <pt x="428" y="550" on="0"/>
        <pt x="428" y="472" on="1"/>
        <pt x="428" y="414" on="0"/>
        <pt x="363" y="348" on="0"/>
        <pt x="314" y="335" on="1"/>
        <pt x="342" y="330" on="0"/>
        <pt x="390" y="305" on="0"/>
        <pt x="426" y="265" on="0"/>
        <pt x="447" y="210" on="0"/>
        <pt x="447" y="176" on="1"/>
        <pt x="447" y="137" on="0"/>
        <pt x="415" y="72" on="0"/>
        <pt x="355" y="26" on="0"/>
        <pt x="270" y="0" on="0"/>
        <pt x="218" y="0" on="1"/>
        <pt x="80" y="0" on="1"/>
        <pt x="80" y="630" on="1"/>
      </contour>
      <contour>
        <pt x="132" y="354" on="1"/>
        <pt x="210" y="354" on="1"/>
        <pt x="242" y="354" on="0"/>
        <pt x="302" y="365" on="0"/>
        <pt x="347" y="392" on="0"/>
        <pt x="374" y="436" on="0"/>
        <pt x="374" y="469" on="1"/>
        <pt x="374" y="533" on="0"/>
        <pt x="288" y="588" on="0"/>
        <pt x="216" y="588" on="1"/>
        <pt x="132" y="588" on="1"/>
      </contour>
      <contour>
        <pt x="132" y="42" on="1"/>
        <pt x="208" y="42" on="1"/>
        <pt x="245" y="42" on="0"/>
        <pt x="312" y="57" on="0"/>
        <pt x="362" y="92" on="0"/>
        <pt x="391" y="146" on="0"/>
        <pt x="391" y="185" on="1"/>
        <pt x="391" y="222" on="0"/>
        <pt x="362" y="271" on="0"/>
        <pt x="312" y="300" on="0"/>
        <pt x="247" y="312" on="0"/>
        <pt x="211" y="312" on="1"/>
        <pt x="132" y="312" on="1"/>
      </contour>
    </TTGlyph>
    <TTGlyph name="Bsmall" xMin="68" yMin="0" xMax="385" yMax="470">
      <contour>
        <pt x="221" y="470" on="1"/>
        <pt x="290" y="470" on="0"/>
        <pt x="366" y="406" on="0"/>
        <pt x="366" y="354" on="1"/>
        <pt x="366" y="316" on="0"/>
        <pt x="320" y="263" on="0"/>
        <pt x="284" y="251" on="1"/>
        <pt x="330" y="242" on="0"/>
        <pt x="385" y="185" on="0"/>
        <pt x="385" y="137" on="1"/>
        <pt x="385" y="109" on="0"/>
        <pt x="364" y="59" on="0"/>
        <pt x="323" y="22" on="0"/>
        <pt x="261" y="0" on="0"/>
        <pt x="220" y="0" on="1"/>
        <pt x="68" y="0" on="1"/>
        <pt x="68" y="470" on="1"/>
      </contour>
      <contour>
        <pt x="116" y="264" on="1"/>
        <pt x="208" y="264" on="1"/>
        <pt x="262" y="264" on="0"/>
        <pt x="316" y="311" on="0"/>
        <pt x="316" y="349" on="1"/>
        <pt x="316" y="389" on="0"/>
        <pt x="262" y="432" on="0"/>
        <pt x="200" y="432" on="1"/>
        <pt x="116" y="432" on="1"/>
      </contour>
      <contour>
        <pt x="116" y="38" on="1"/>
        <pt x="199" y="38" on="1"/>
        <pt x="262" y="38" on="0"/>
        <pt x="335" y="84" on="0"/>
        <pt x="335" y="140" on="1"/>
        <pt x="335" y="156" on="0"/>
        <pt x="322" y="188" on="0"/>
        <pt x="294" y="212" on="0"/>
        <pt x="251" y="227" on="0"/>
        <pt x="220" y="227" on="1"/>
        <pt x="116" y="227" on="1"/>
      </contour>
    </TTGlyph>
    <TTGlyph name="C" xMin="35" yMin="-8" xMax="496" yMax="638">
      <contour>
        <pt x="341" y="34" on="1"/>
        <pt x="389" y="34" on="0"/>
        <pt x="455" y="52" on="0"/>
        <pt x="481" y="66" on="1"/>
        <pt x="493" y="24" on="1"/>
        <pt x="463" y="9" on="0"/>
        <pt x="388" y="-8" on="0"/>
        <pt x="334" y="-8" on="1"/>
        <pt x="272" y="-8" on="0"/>
        <pt x="163" y="34" on="0"/>
        <pt x="82" y="115" on="0"/>
        <pt x="35" y="235" on="0"/>
        <pt x="35" y="314" on="1"/>
        <pt x="35" y="391" on="0"/>
        <pt x="80" y="512" on="0"/>
        <pt x="159" y="595" on="0"/>
        <pt x="268" y="638" on="0"/>
        <pt x="332" y="638" on="1"/>
        <pt x="390" y="638" on="0"/>
        <pt x="464" y="619" on="0"/>
        <pt x="496" y="602" on="1"/>
        <pt x="484" y="563" on="1"/>
        <pt x="451" y="580" on="0"/>
        <pt x="384" y="596" on="0"/>
        <pt x="343" y="596" on="1"/>
        <pt x="293" y="596" on="0"/>
        <pt x="202" y="564" on="0"/>
        <pt x="131" y="495" on="0"/>
        <pt x="89" y="388" on="0"/>
        <pt x="89" y="313" on="1"/>
        <pt x="89" y="235" on="0"/>
        <pt x="134" y="128" on="0"/>
        <pt x="206" y="63" on="0"/>
        <pt x="296" y="34" on="0"/>
      </contour>
    </TTGlyph>
    <TTGlyph name="Ca.tm" xMin="40" yMin="-5" xMax="572" yMax="495">
      <contour>
        <pt x="547" y="495" on="1"/>
        <pt x="547" y="460" on="1"/>
        <pt x="393" y="460" on="1"/>
        <pt x="393" y="285" on="1"/>
        <pt x="572" y="285" on="1"/>
        <pt x="572" y="251" on="1"/>
        <pt x="393" y="251" on="1"/>
        <pt x="393" y="148" on="1"/>
        <pt x="393" y="81" on="0"/>
        <pt x="306" y="-5" on="0"/>
        <pt x="224" y="-5" on="1"/>
        <pt x="182" y="-5" on="0"/>
        <pt x="114" y="18" on="0"/>
        <pt x="66" y="60" on="0"/>
        <pt x="40" y="117" on="0"/>
        <pt x="40" y="151" on="1"/>
        <pt x="40" y="177" on="0"/>
        <pt x="57" y="221" on="0"/>
        <pt x="86" y="254" on="0"/>
        <pt x="123" y="276" on="0"/>
        <pt x="143" y="280" on="1"/>
        <pt x="143" y="495" on="1"/>
      </contour>
      <contour>
        <pt x="191" y="250" on="1"/>
        <pt x="141" y="250" on="0"/>
        <pt x="84" y="196" on="0"/>
        <pt x="84" y="150" on="1"/>
        <pt x="84" y="97" on="0"/>
        <pt x="163" y="32" on="0"/>
        <pt x="226" y="32" on="1"/>
        <pt x="285" y="32" on="0"/>
        <pt x="351" y="96" on="0"/>
        <pt x="351" y="152" on="1"/>
        <pt x="351" y="250" on="1"/>
      </contour>
      <contour>
        <pt x="185" y="285" on="1"/>
        <pt x="351" y="285" on="1"/>
        <pt x="351" y="460" on="1"/>
        <pt x="185" y="460" on="1"/>
      </contour>
    </TTGlyph>
    <TTGlyph name="CaMatraI.tm" xMin="40" yMin="-5" xMax="725" yMax="743">
      <contour>
        <pt x="344" y="495" on="1"/>
        <pt x="337" y="512" on="0"/>
        <pt x="329" y="554" on="0"/>
        <pt x="329" y="577" on="1"/>
        <pt x="329" y="653" on="0"/>
        <pt x="428" y="743" on="0"/>
        <pt x="516" y="743" on="1"/>
        <pt x="619" y="743" on="0"/>
        <pt x="725" y="617" on="0"/>
        <pt x="725" y="502" on="1"/>
        <pt x="725" y="0" on="1"/>
        <pt x="682" y="0" on="1"/>
        <pt x="682" y="498" on="1"/>
        <pt x="682" y="600" on="0"/>
        <pt x="598" y="705" on="0"/>
        <pt x="511" y="705" on="1"/>
        <pt x="445" y="705" on="0"/>
        <pt x="374" y="634" on="0"/>
        <pt x="374" y="572" on="1"/>
        <pt x="374" y="549" on="0"/>
        <pt x="382" y="511" on="0"/>
        <pt x="388" y="495" on="1"/>
        <pt x="547" y="495" on="1"/>
        <pt x="547" y="460" on="1"/>
        <pt x="393" y="460" on="1"/>
        <pt x="393" y="285" on="1"/>
        <pt x="572" y="285" on="1"/>
        <pt x="572" y="251" on="1"/>
        <pt x="393" y="251" on="1"/>
        <pt x="393" y="148" on="1"/>
        <pt x="393" y="81" on="0"/>
        <pt x="306" y="-5" on="0"/>
        <pt x="224" y="-5" on="1"/>
        <pt x="182" y="-5" on="0"/>
        <pt x="114" y="18" on="0"/>
        <pt x="66" y="60" on="0"/>
        <pt x="40" y="117" on="0"/>
        <pt x="40" y="151" on="1"/>
        <pt x="40" y="177" on="0"/>
        <pt x="57" y="221" on="0"/>
        <pt x="86" y="254" on="0"/>
        <pt x="123" y="276" on="0"/>
        <pt x="143" y="280" on="1"/>
        <pt x="143" y="495" on="1"/>
      </contour>
      <contour>
        <pt x="191" y="250" on="1"/>
        <pt x="141" y="250" on="0"/>
        <pt x="84" y="196" on="0"/>
        <pt x="84" y="150" on="1"/>
        <pt x="84" y="97" on="0"/>
        <pt x="163" y="32" on="0"/>
        <pt x="226" y="32" on="1"/>
        <pt x="285" y="32" on="0"/>
        <pt x="351" y="96" on="0"/>
        <pt x="351" y="152" on="1"/>
        <pt x="351" y="250" on="1"/>
      </contour>
      <contour>
        <pt x="185" y="285" on="1"/>
        <pt x="351" y="285" on="1"/>
        <pt x="351" y="460" on="1"/>
        <pt x="185" y="460" on="1"/>
      </contour>
    </TTGlyph>
    <TTGlyph name="CaMatraIi.tm" xMin="40" yMin="-5" xMax="615" yMax="787">
      <contour>
        <pt x="466" y="787" on="1"/>
        <pt x="535" y="787" on="0"/>
        <pt x="615" y="724" on="0"/>
        <pt x="615" y="673" on="1"/>
        <pt x="615" y="628" on="0"/>
        <pt x="557" y="572" on="0"/>
        <pt x="509" y="572" on="1"/>
        <pt x="464" y="572" on="0"/>
        <pt x="408" y="626" on="0"/>
        <pt x="408" y="668" on="1"/>
        <pt x="408" y="698" on="0"/>
        <pt x="436" y="743" on="0"/>
        <pt x="458" y="756" on="1"/>
        <pt x="432" y="756" on="0"/>
        <pt x="385" y="736" on="0"/>
        <pt x="349" y="700" on="0"/>
        <pt x="328" y="648" on="0"/>
        <pt x="328" y="617" on="1"/>
        <pt x="328" y="579" on="0"/>
        <pt x="361" y="515" on="0"/>
        <pt x="385" y="495" on="1"/>
        <pt x="547" y="495" on="1"/>
        <pt x="547" y="460" on="1"/>
        <pt x="393" y="460" on="1"/>
        <pt x="393" y="285" on="1"/>
        <pt x="572" y="285" on="1"/>
        <pt x="572" y="251" on="1"/>
        <pt x="393" y="251" on="1"/>
        <pt x="393" y="148" on="1"/>
        <pt x="393" y="81" on="0"/>
        <pt x="306" y="-5" on="0"/>
        <pt x="224" y="-5" on="1"/>
        <pt x="182" y="-5" on="0"/>
        <pt x="114" y="18" on="0"/>
        <pt x="66" y="60" on="0"/>
        <pt x="40" y="117" on="0"/>
        <pt x="40" y="151" on="1"/>
        <pt x="40" y="177" on="0"/>
        <pt x="57" y="221" on="0"/>
        <pt x="86" y="254" on="0"/>
        <pt x="123" y="276" on="0"/>
        <pt x="143" y="280" on="1"/>
        <pt x="143" y="495" on="1"/>
        <pt x="334" y="495" on="1"/>
        <pt x="311" y="518" on="0"/>
        <pt x="284" y="585" on="0"/>
        <pt x="284" y="619" on="1"/>
        <pt x="284" y="657" on="0"/>
        <pt x="310" y="719" on="0"/>
        <pt x="358" y="763" on="0"/>
        <pt x="425" y="787" on="0"/>
      </contour>
      <contour>
        <pt x="191" y="250" on="1"/>
        <pt x="141" y="250" on="0"/>
        <pt x="84" y="196" on="0"/>
        <pt x="84" y="150" on="1"/>
        <pt x="84" y="97" on="0"/>
        <pt x="163" y="32" on="0"/>
        <pt x="226" y="32" on="1"/>
        <pt x="285" y="32" on="0"/>
        <pt x="351" y="96" on="0"/>
        <pt x="351" y="152" on="1"/>
        <pt x="351" y="250" on="1"/>
      </contour>
      <contour>
        <pt x="185" y="285" on="1"/>
        <pt x="351" y="285" on="1"/>
        <pt x="351" y="460" on="1"/>
        <pt x="185" y="460" on="1"/>
      </contour>
      <contour>
        <pt x="573" y="673" on="1"/>
        <pt x="573" y="707" on="0"/>
        <pt x="533" y="747" on="0"/>
        <pt x="503" y="750" on="1"/>
        <pt x="480" y="742" on="0"/>
        <pt x="448" y="700" on="0"/>
        <pt x="448" y="671" on="1"/>
        <pt x="448" y="642" on="0"/>
        <pt x="482" y="607" on="0"/>
        <pt x="511" y="607" on="1"/>
        <pt x="539" y="607" on="0"/>
        <pt x="573" y="643" on="0"/>
      </contour>
    </TTGlyph>
    <TTGlyph name="CaMatraU.tm" xMin="40" yMin="-5" xMax="639" yMax="495">
      <contour>
        <pt x="557" y="495" on="1"/>
        <pt x="557" y="460" on="1"/>
        <pt x="393" y="460" on="1"/>
        <pt x="393" y="285" on="1"/>
        <pt x="639" y="285" on="1"/>
        <pt x="639" y="251" on="1"/>
        <pt x="556" y="251" on="1"/>
        <pt x="556" y="0" on="1"/>
        <pt x="514" y="0" on="1"/>
        <pt x="514" y="251" on="1"/>
        <pt x="393" y="251" on="1"/>
        <pt x="393" y="148" on="1"/>
        <pt x="393" y="81" on="0"/>
        <pt x="306" y="-5" on="0"/>
        <pt x="224" y="-5" on="1"/>
        <pt x="182" y="-5" on="0"/>
        <pt x="114" y="18" on="0"/>
        <pt x="66" y="60" on="0"/>
        <pt x="40" y="117" on="0"/>
        <pt x="40" y="151" on="1"/>
        <pt x="40" y="177" on="0"/>
        <pt x="57" y="221" on="0"/>
        <pt x="86" y="254" on="0"/>
        <pt x="123" y="276" on="0"/>
        <pt x="143" y="280" on="1"/>
        <pt x="143" y="495" on="1"/>
      </contour>
      <contour>
        <pt x="191" y="250" on="1"/>
        <pt x="141" y="250" on="0"/>
        <pt x="84" y="196" on="0"/>
        <pt x="84" y="150" on="1"/>
        <pt x="84" y="97" on="0"/>
        <pt x="163" y="32" on="0"/>
        <pt x="226" y="32" on="1"/>
        <pt x="285" y="32" on="0"/>
        <pt x="351" y="96" on="0"/>
        <pt x="351" y="152" on="1"/>
        <pt x="351" y="250" on="1"/>
      </contour>
      <contour>
        <pt x="185" y="285" on="1"/>
        <pt x="351" y="285" on="1"/>
        <pt x="351" y="460" on="1"/>
        <pt x="185" y="460" on="1"/>
      </contour>
    </TTGlyph>
    <TTGlyph name="CaMatraUu.tm" xMin="50" yMin="-254" xMax="973" yMax="502">
      <contour>
        <pt x="855" y="182" on="1"/>
        <pt x="909" y="182" on="0"/>
        <pt x="973" y="107" on="0"/>
        <pt x="973" y="44" on="1"/>
        <pt x="973" y="-19" on="0"/>
        <pt x="913" y="-128" on="0"/>
        <pt x="801" y="-208" on="0"/>
        <pt x="638" y="-254" on="0"/>
        <pt x="536" y="-254" on="1"/>
        <pt x="432" y="-254" on="0"/>
        <pt x="254" y="-199" on="0"/>
        <pt x="124" y="-97" on="0"/>
        <pt x="50" y="51" on="0"/>
        <pt x="50" y="144" on="1"/>
        <pt x="50" y="210" on="0"/>
        <pt x="80" y="320" on="0"/>
        <pt x="130" y="409" on="0"/>
        <pt x="197" y="478" on="0"/>
        <pt x="234" y="502" on="1"/>
        <pt x="257" y="469" on="1"/>
        <pt x="224" y="445" on="0"/>
        <pt x="165" y="381" on="0"/>
        <pt x="121" y="300" on="0"/>
        <pt x="96" y="202" on="0"/>
        <pt x="96" y="144" on="1"/>
        <pt x="96" y="62" on="0"/>
        <pt x="163" y="-71" on="0"/>
        <pt x="281" y="-165" on="0"/>
        <pt x="444" y="-216" on="0"/>
        <pt x="540" y="-216" on="1"/>
        <pt x="627" y="-216" on="0"/>
        <pt x="771" y="-177" on="0"/>
        <pt x="874" y="-108" on="0"/>
        <pt x="930" y="-13" on="0"/>
        <pt x="930" y="44" on="1"/>
        <pt x="930" y="92" on="0"/>
        <pt x="889" y="149" on="0"/>
        <pt x="848" y="149" on="1"/>
        <pt x="825" y="149" on="0"/>
        <pt x="779" y="117" on="0"/>
        <pt x="766" y="85" on="1"/>
        <pt x="766" y="0" on="1"/>
        <pt x="725" y="0" on="1"/>
        <pt x="725" y="250" on="1"/>
        <pt x="621" y="250" on="1"/>
        <pt x="621" y="148" on="1"/>
        <pt x="621" y="81" on="0"/>
        <pt x="534" y="-5" on="0"/>
        <pt x="452" y="-5" on="1"/>
        <pt x="410" y="-5" on="0"/>
        <pt x="342" y="18" on="0"/>
        <pt x="294" y="60" on="0"/>
        <pt x="268" y="117" on="0"/>
        <pt x="268" y="151" on="1"/>
        <pt x="268" y="177" on="0"/>
        <pt x="285" y="221" on="0"/>
        <pt x="314" y="254" on="0"/>
        <pt x="351" y="276" on="0"/>
        <pt x="371" y="280" on="1"/>
        <pt x="371" y="495" on="1"/>
        <pt x="796" y="495" on="1"/>
        <pt x="796" y="460" on="1"/>
        <pt x="621" y="460" on="1"/>
        <pt x="621" y="285" on="1"/>
        <pt x="873" y="285" on="1"/>
        <pt x="873" y="251" on="1"/>
        <pt x="764" y="251" on="1"/>
        <pt x="764" y="135" on="1"/>
        <pt x="778" y="156" on="0"/>
        <pt x="826" y="182" on="0"/>
      </contour>
      <contour>
        <pt x="419" y="250" on="1"/>
        <pt x="369" y="250" on="0"/>
        <pt x="312" y="196" on="0"/>
        <pt x="312" y="150" on="1"/>
        <pt x="312" y="97" on="0"/>
        <pt x="391" y="32" on="0"/>
        <pt x="454" y="32" on="1"/>
        <pt x="513" y="32" on="0"/>
        <pt x="579" y="96" on="0"/>
        <pt x="579" y="152" on="1"/>
        <pt x="579" y="250" on="1"/>
      </contour>
      <contour>
        <pt x="413" y="285" on="1"/>
        <pt x="579" y="285" on="1"/>
        <pt x="579" y="460" on="1"/>
        <pt x="413" y="460" on="1"/>
      </contour>
    </TTGlyph>
    <TTGlyph name="CaPulli.tm" xMin="40" yMin="-5" xMax="572" yMax="691">
      <contour>
        <pt x="547" y="495" on="1"/>
        <pt x="547" y="460" on="1"/>
        <pt x="393" y="460" on="1"/>
        <pt x="393" y="285" on="1"/>
        <pt x="572" y="285" on="1"/>
        <pt x="572" y="251" on="1"/>
        <pt x="393" y="251" on="1"/>
        <pt x="393" y="148" on="1"/>
        <pt x="393" y="81" on="0"/>
        <pt x="306" y="-5" on="0"/>
        <pt x="224" y="-5" on="1"/>
        <pt x="182" y="-5" on="0"/>
        <pt x="114" y="18" on="0"/>
        <pt x="66" y="60" on="0"/>
        <pt x="40" y="117" on="0"/>
        <pt x="40" y="151" on="1"/>
        <pt x="40" y="177" on="0"/>
        <pt x="57" y="221" on="0"/>
        <pt x="86" y="254" on="0"/>
        <pt x="123" y="276" on="0"/>
        <pt x="143" y="280" on="1"/>
        <pt x="143" y="495" on="1"/>
      </contour>
      <contour>
        <pt x="191" y="250" on="1"/>
        <pt x="141" y="250" on="0"/>
        <pt x="84" y="196" on="0"/>
        <pt x="84" y="150" on="1"/>
        <pt x="84" y="97" on="0"/>
        <pt x="163" y="32" on="0"/>
        <pt x="226" y="32" on="1"/>
        <pt x="285" y="32" on="0"/>
        <pt x="351" y="96" on="0"/>
        <pt x="351" y="152" on="1"/>
        <pt x="351" y="250" on="1"/>
      </contour>
      <contour>
        <pt x="185" y="285" on="1"/>
        <pt x="351" y="285" on="1"/>
        <pt x="351" y="460" on="1"/>
        <pt x="185" y="460" on="1"/>
      </contour>
      <contour>
        <pt x="304" y="691" on="1"/>
        <pt x="324" y="691" on="0"/>
        <pt x="349" y="666" on="0"/>
        <pt x="349" y="647" on="1"/>
        <pt x="349" y="628" on="0"/>
        <pt x="325" y="603" on="0"/>
        <pt x="306" y="603" on="1"/>
        <pt x="286" y="603" on="0"/>
        <pt x="261" y="628" on="0"/>
        <pt x="261" y="647" on="1"/>
        <pt x="261" y="666" on="0"/>
        <pt x="285" y="691" on="0"/>
      </contour>
    </TTGlyph>
    <TTGlyph name="Cacute" xMin="35" yMin="-8" xMax="496" yMax="834">
      <contour>
        <pt x="341" y="34" on="1"/>
        <pt x="389" y="34" on="0"/>
        <pt x="455" y="52" on="0"/>
        <pt x="481" y="66" on="1"/>
        <pt x="493" y="24" on="1"/>
        <pt x="463" y="9" on="0"/>
        <pt x="388" y="-8" on="0"/>
        <pt x="334" y="-8" on="1"/>
        <pt x="272" y="-8" on="0"/>
        <pt x="163" y="34" on="0"/>
        <pt x="82" y="115" on="0"/>
        <pt x="35" y="235" on="0"/>
        <pt x="35" y="314" on="1"/>
        <pt x="35" y="391" on="0"/>
        <pt x="80" y="512" on="0"/>
        <pt x="159" y="595" on="0"/>
        <pt x="268" y="638" on="0"/>
        <pt x="332" y="638" on="1"/>
        <pt x="390" y="638" on="0"/>
        <pt x="464" y="619" on="0"/>
        <pt x="496" y="602" on="1"/>
        <pt x="484" y="563" on="1"/>
        <pt x="451" y="580" on="0"/>
        <pt x="384" y="596" on="0"/>
        <pt x="343" y="596" on="1"/>
        <pt x="293" y="596" on="0"/>
        <pt x="202" y="564" on="0"/>
        <pt x="131" y="495" on="0"/>
        <pt x="89" y="388" on="0"/>
        <pt x="89" y="313" on="1"/>
        <pt x="89" y="235" on="0"/>
        <pt x="134" y="128" on="0"/>
        <pt x="206" y="63" on="0"/>
        <pt x="296" y="34" on="0"/>
      </contour>
      <contour>
        <pt x="291" y="710" on="1"/>
        <pt x="249" y="710" on="1"/>
        <pt x="339" y="834" on="1"/>
        <pt x="402" y="834" on="1"/>
      </contour>
    </TTGlyph>
    <TTGlyph name="Ccaron" xMin="35" yMin="-8" xMax="496" yMax="845">
      <contour>
        <pt x="341" y="34" on="1"/>
        <pt x="389" y="34" on="0"/>
        <pt x="455" y="52" on="0"/>
        <pt x="481" y="66" on="1"/>
        <pt x="493" y="24" on="1"/>
        <pt x="463" y="9" on="0"/>
        <pt x="388" y="-8" on="0"/>
        <pt x="334" y="-8" on="1"/>
        <pt x="272" y="-8" on="0"/>
        <pt x="163" y="34" on="0"/>
        <pt x="82" y="115" on="0"/>
        <pt x="35" y="235" on="0"/>
        <pt x="35" y="314" on="1"/>
        <pt x="35" y="391" on="0"/>
        <pt x="80" y="512" on="0"/>
        <pt x="159" y="595" on="0"/>
        <pt x="268" y="638" on="0"/>
        <pt x="332" y="638" on="1"/>
        <pt x="390" y="638" on="0"/>
        <pt x="464" y="619" on="0"/>
        <pt x="496" y="602" on="1"/>
        <pt x="484" y="563" on="1"/>
        <pt x="451" y="580" on="0"/>
        <pt x="384" y="596" on="0"/>
        <pt x="343" y="596" on="1"/>
        <pt x="293" y="596" on="0"/>
        <pt x="202" y="564" on="0"/>
        <pt x="131" y="495" on="0"/>
        <pt x="89" y="388" on="0"/>
        <pt x="89" y="313" on="1"/>
        <pt x="89" y="235" on="0"/>
        <pt x="134" y="128" on="0"/>
        <pt x="206" y="63" on="0"/>
        <pt x="296" y="34" on="0"/>
      </contour>
      <contour>
        <pt x="186" y="845" on="1"/>
        <pt x="242" y="845" on="1"/>
        <pt x="332" y="746" on="1"/>
        <pt x="422" y="845" on="1"/>
        <pt x="482" y="845" on="1"/>
        <pt x="357" y="711" on="1"/>
        <pt x="308" y="711" on="1"/>
      </contour>
    </TTGlyph>
    <TTGlyph name="Ccedilla" xMin="35" yMin="-214" xMax="496" yMax="638">
      <contour>
        <pt x="341" y="34" on="1"/>
        <pt x="389" y="34" on="0"/>
        <pt x="455" y="52" on="0"/>
        <pt x="481" y="66" on="1"/>
        <pt x="493" y="24" on="1"/>
        <pt x="464" y="10" on="0"/>
        <pt x="394" y="-7" on="0"/>
        <pt x="344" y="-8" on="1"/>
        <pt x="327" y="-47" on="1"/>
        <pt x="355" y="-47" on="0"/>
        <pt x="396" y="-60" on="0"/>
        <pt x="422" y="-82" on="0"/>
        <pt x="435" y="-110" on="0"/>
        <pt x="435" y="-125" on="1"/>
        <pt x="435" y="-167" on="0"/>
        <pt x="366" y="-214" on="0"/>
        <pt x="314" y="-214" on="1"/>
        <pt x="291" y="-214" on="0"/>
        <pt x="252" y="-207" on="0"/>
        <pt x="240" y="-202" on="1"/>
        <pt x="249" y="-170" on="1"/>
        <pt x="262" y="-174" on="0"/>
        <pt x="293" y="-179" on="0"/>
        <pt x="307" y="-179" on="1"/>
        <pt x="347" y="-179" on="0"/>
        <pt x="385" y="-150" on="0"/>
        <pt x="385" y="-127" on="1"/>
        <pt x="385" y="-117" on="0"/>
        <pt x="377" y="-99" on="0"/>
        <pt x="353" y="-86" on="0"/>
        <pt x="309" y="-78" on="0"/>
        <pt x="274" y="-78" on="1"/>
        <pt x="307" y="-7" on="1"/>
        <pt x="250" y="-3" on="0"/>
        <pt x="150" y="42" on="0"/>
        <pt x="77" y="123" on="0"/>
        <pt x="35" y="239" on="0"/>
        <pt x="35" y="314" on="1"/>
        <pt x="35" y="391" on="0"/>
        <pt x="80" y="512" on="0"/>
        <pt x="159" y="595" on="0"/>
        <pt x="268" y="638" on="0"/>
        <pt x="332" y="638" on="1"/>
        <pt x="390" y="638" on="0"/>
        <pt x="464" y="619" on="0"/>
        <pt x="496" y="602" on="1"/>
        <pt x="484" y="563" on="1"/>
        <pt x="451" y="580" on="0"/>
        <pt x="384" y="596" on="0"/>
        <pt x="343" y="596" on="1"/>
        <pt x="293" y="596" on="0"/>
        <pt x="202" y="564" on="0"/>
        <pt x="131" y="495" on="0"/>
        <pt x="89" y="388" on="0"/>
        <pt x="89" y="313" on="1"/>
        <pt x="89" y="235" on="0"/>
        <pt x="134" y="128" on="0"/>
        <pt x="206" y="63" on="0"/>
        <pt x="296" y="34" on="0"/>
      </contour>
    </TTGlyph>
    <TTGlyph name="Ccircumflex" xMin="35" yMin="-8" xMax="496" yMax="844">
      <contour>
        <pt x="341" y="34" on="1"/>
        <pt x="389" y="34" on="0"/>
        <pt x="455" y="52" on="0"/>
        <pt x="481" y="66" on="1"/>
        <pt x="493" y="24" on="1"/>
        <pt x="463" y="9" on="0"/>
        <pt x="388" y="-8" on="0"/>
        <pt x="334" y="-8" on="1"/>
        <pt x="272" y="-8" on="0"/>
        <pt x="163" y="34" on="0"/>
        <pt x="82" y="115" on="0"/>
        <pt x="35" y="235" on="0"/>
        <pt x="35" y="314" on="1"/>
        <pt x="35" y="391" on="0"/>
        <pt x="80" y="512" on="0"/>
        <pt x="159" y="595" on="0"/>
        <pt x="268" y="638" on="0"/>
        <pt x="332" y="638" on="1"/>
        <pt x="390" y="638" on="0"/>
        <pt x="464" y="619" on="0"/>
        <pt x="496" y="602" on="1"/>
        <pt x="484" y="563" on="1"/>
        <pt x="451" y="580" on="0"/>
        <pt x="384" y="596" on="0"/>
        <pt x="343" y="596" on="1"/>
        <pt x="293" y="596" on="0"/>
        <pt x="202" y="564" on="0"/>
        <pt x="131" y="495" on="0"/>
        <pt x="89" y="388" on="0"/>
        <pt x="89" y="313" on="1"/>
        <pt x="89" y="235" on="0"/>
        <pt x="134" y="128" on="0"/>
        <pt x="206" y="63" on="0"/>
        <pt x="296" y="34" on="0"/>
      </contour>
      <contour>
        <pt x="309" y="844" on="1"/>
        <pt x="358" y="844" on="1"/>
        <pt x="483" y="710" on="1"/>
        <pt x="423" y="710" on="1"/>
        <pt x="333" y="809" on="1"/>
        <pt x="243" y="710" on="1"/>
        <pt x="187" y="710" on="1"/>
      </contour>
    </TTGlyph>
    <TTGlyph name="Cdotaccent" xMin="35" yMin="-8" xMax="496" yMax="822">
      <contour>
        <pt x="341" y="34" on="1"/>
        <pt x="389" y="34" on="0"/>
        <pt x="455" y="52" on="0"/>
        <pt x="481" y="66" on="1"/>
        <pt x="493" y="24" on="1"/>
        <pt x="463" y="9" on="0"/>
        <pt x="388" y="-8" on="0"/>
        <pt x="334" y="-8" on="1"/>
        <pt x="272" y="-8" on="0"/>
        <pt x="163" y="34" on="0"/>
        <pt x="82" y="115" on="0"/>
        <pt x="35" y="235" on="0"/>
        <pt x="35" y="314" on="1"/>
        <pt x="35" y="391" on="0"/>
        <pt x="80" y="512" on="0"/>
        <pt x="159" y="595" on="0"/>
        <pt x="268" y="638" on="0"/>
        <pt x="332" y="638" on="1"/>
        <pt x="390" y="638" on="0"/>
        <pt x="464" y="619" on="0"/>
        <pt x="496" y="602" on="1"/>
        <pt x="484" y="563" on="1"/>
        <pt x="451" y="580" on="0"/>
        <pt x="384" y="596" on="0"/>
        <pt x="343" y="596" on="1"/>
        <pt x="293" y="596" on="0"/>
        <pt x="202" y="564" on="0"/>
        <pt x="131" y="495" on="0"/>
        <pt x="89" y="388" on="0"/>
        <pt x="89" y="313" on="1"/>
        <pt x="89" y="235" on="0"/>
        <pt x="134" y="128" on="0"/>
        <pt x="206" y="63" on="0"/>
        <pt x="296" y="34" on="0"/>
      </contour>
      <contour>
        <pt x="292" y="778" on="1"/>
        <pt x="292" y="798" on="0"/>
        <pt x="315" y="822" on="0"/>
        <pt x="332" y="822" on="1"/>
        <pt x="349" y="822" on="0"/>
        <pt x="372" y="798" on="0"/>
        <pt x="372" y="778" on="1"/>
        <pt x="372" y="757" on="0"/>
        <pt x="349" y="734" on="0"/>
        <pt x="332" y="734" on="1"/>
        <pt x="315" y="734" on="0"/>
        <pt x="292" y="757" on="0"/>
      </contour>
    </TTGlyph>
    <TTGlyph name="CreditSign.tm" xMin="49" yMin="-5" xMax="1223" yMax="495">
      <contour>
        <pt x="863" y="391" on="1"/>
        <pt x="912" y="391" on="0"/>
        <pt x="990" y="359" on="0"/>
        <pt x="1045" y="303" on="0"/>
        <pt x="1075" y="227" on="0"/>
        <pt x="1075" y="183" on="1"/>
        <pt x="1075" y="135" on="0"/>
        <pt x="1050" y="59" on="0"/>
        <pt x="1036" y="36" on="1"/>
        <pt x="1223" y="36" on="1"/>
        <pt x="1223" y="0" on="1"/>
        <pt x="999" y="0" on="1"/>
        <pt x="986" y="32" on="1"/>
        <pt x="1005" y="62" on="0"/>
        <pt x="1031" y="136" on="0"/>
        <pt x="1031" y="182" on="1"/>
        <pt x="1031" y="220" on="0"/>
        <pt x="1008" y="284" on="0"/>
        <pt x="963" y="330" on="0"/>
        <pt x="899" y="355" on="0"/>
        <pt x="859" y="355" on="1"/>
        <pt x="797" y="355" on="0"/>
        <pt x="712" y="294" on="0"/>
        <pt x="698" y="244" on="1"/>
        <pt x="715" y="255" on="0"/>
        <pt x="757" y="268" on="0"/>
        <pt x="781" y="268" on="1"/>
        <pt x="809" y="268" on="0"/>
        <pt x="860" y="250" on="0"/>
        <pt x="899" y="215" on="0"/>
        <pt x="922" y="164" on="0"/>
        <pt x="922" y="131" on="1"/>
        <pt x="922" y="71" on="0"/>
        <pt x="848" y="-5" on="0"/>
        <pt x="786" y="-5" on="1"/>
        <pt x="722" y="-5" on="0"/>
        <pt x="646" y="84" on="0"/>
        <pt x="646" y="157" on="1"/>
        <pt x="646" y="173" on="1"/>
        <pt x="633" y="162" on="0"/>
        <pt x="602" y="122" on="0"/>
        <pt x="573" y="74" on="0"/>
        <pt x="548" y="23" on="0"/>
        <pt x="541" y="0" on="1"/>
        <pt x="499" y="0" on="1"/>
        <pt x="499" y="459" on="1"/>
        <pt x="362" y="459" on="1"/>
        <pt x="299" y="459" on="0"/>
        <pt x="200" y="424" on="0"/>
        <pt x="130" y="359" on="0"/>
        <pt x="91" y="266" on="0"/>
        <pt x="90" y="208" on="1"/>
        <pt x="90" y="197" on="1"/>
        <pt x="107" y="238" on="0"/>
        <pt x="175" y="285" on="0"/>
        <pt x="219" y="285" on="1"/>
        <pt x="249" y="285" on="0"/>
        <pt x="302" y="263" on="0"/>
        <pt x="340" y="225" on="0"/>
        <pt x="362" y="173" on="0"/>
        <pt x="362" y="143" on="1"/>
        <pt x="362" y="111" on="0"/>
        <pt x="340" y="56" on="0"/>
        <pt x="300" y="17" on="0"/>
        <pt x="246" y="-5" on="0"/>
        <pt x="213" y="-5" on="1"/>
        <pt x="177" y="-5" on="0"/>
        <pt x="117" y="24" on="0"/>
        <pt x="73" y="78" on="0"/>
        <pt x="49" y="156" on="0"/>
        <pt x="49" y="205" on="1"/>
        <pt x="49" y="274" on="0"/>
        <pt x="96" y="382" on="0"/>
        <pt x="180" y="456" on="0"/>
        <pt x="296" y="495" on="0"/>
        <pt x="364" y="495" on="1"/>
        <pt x="660" y="495" on="1"/>
        <pt x="660" y="459" on="1"/>
        <pt x="543" y="459" on="1"/>
        <pt x="543" y="79" on="1"/>
        <pt x="552" y="99" on="0"/>
        <pt x="577" y="140" on="0"/>
        <pt x="606" y="177" on="0"/>
        <pt x="637" y="207" on="0"/>
        <pt x="652" y="218" on="1"/>
        <pt x="659" y="259" on="0"/>
        <pt x="696" y="323" on="0"/>
        <pt x="752" y="368" on="0"/>
        <pt x="822" y="391" on="0"/>
      </contour>
      <contour>
        <pt x="211" y="249" on="1"/>
        <pt x="189" y="249" on="0"/>
        <pt x="151" y="231" on="0"/>
        <pt x="121" y="201" on="0"/>
        <pt x="101" y="160" on="0"/>
        <pt x="98" y="138" on="1"/>
        <pt x="110" y="82" on="0"/>
        <pt x="175" y="31" on="0"/>
        <pt x="213" y="31" on="1"/>
        <pt x="260" y="31" on="0"/>
        <pt x="318" y="90" on="0"/>
        <pt x="318" y="141" on="1"/>
        <pt x="318" y="190" on="0"/>
        <pt x="260" y="249" on="0"/>
      </contour>
      <contour>
        <pt x="776" y="232" on="1"/>
        <pt x="751" y="232" on="0"/>
        <pt x="707" y="216" on="0"/>
        <pt x="690" y="202" on="1"/>
        <pt x="687" y="187" on="0"/>
        <pt x="687" y="162" on="1"/>
        <pt x="687" y="102" on="0"/>
        <pt x="741" y="32" on="0"/>
        <pt x="789" y="32" on="1"/>
        <pt x="828" y="32" on="0"/>
        <pt x="879" y="85" on="0"/>
        <pt x="879" y="131" on="1"/>
        <pt x="879" y="179" on="0"/>
        <pt x="821" y="232" on="0"/>
      </contour>
    </TTGlyph>
    <TTGlyph name="Csmall" xMin="38" yMin="-8" xMax="392" yMax="476">
      <contour>
        <pt x="274" y="28" on="1"/>
        <pt x="306" y="28" on="0"/>
        <pt x="358" y="42" on="0"/>
        <pt x="381" y="53" on="1"/>
        <pt x="392" y="19" on="1"/>
        <pt x="365" y="5" on="0"/>
        <pt x="306" y="-8" on="0"/>
        <pt x="268" y="-8" on="1"/>
        <pt x="221" y="-8" on="0"/>
        <pt x="138" y="22" on="0"/>
        <pt x="75" y="82" on="0"/>
        <pt x="38" y="173" on="0"/>
        <pt x="38" y="234" on="1"/>
        <pt x="38" y="290" on="0"/>
        <pt x="72" y="380" on="0"/>
        <pt x="134" y="443" on="0"/>
        <pt x="217" y="476" on="0"/>
        <pt x="267" y="476" on="1"/>
        <pt x="300" y="476" on="0"/>
        <pt x="362" y="464" on="0"/>
        <pt x="390" y="451" on="1"/>
        <pt x="378" y="414" on="1"/>
        <pt x="354" y="426" on="0"/>
        <pt x="299" y="436" on="0"/>
        <pt x="273" y="436" on="1"/>
        <pt x="232" y="436" on="0"/>
        <pt x="164" y="408" on="0"/>
        <pt x="115" y="356" on="0"/>
        <pt x="88" y="282" on="0"/>
        <pt x="88" y="237" on="1"/>
        <pt x="88" y="177" on="0"/>
        <pt x="121" y="97" on="0"/>
        <pt x="174" y="49" on="0"/>
        <pt x="240" y="28" on="0"/>
      </contour>
    </TTGlyph>
    <TTGlyph name="D" xMin="80" yMin="0" xMax="556" yMax="630">
      <contour>
        <pt x="265" y="630" on="1"/>
        <pt x="327" y="630" on="0"/>
        <pt x="434" y="592" on="0"/>
        <pt x="512" y="517" on="0"/>
        <pt x="556" y="404" on="0"/>
        <pt x="556" y="329" on="1"/>
        <pt x="556" y="238" on="0"/>
        <pt x="504" y="112" on="0"/>
        <pt x="414" y="34" on="0"/>
        <pt x="296" y="0" on="0"/>
        <pt x="230" y="0" on="1"/>
        <pt x="80" y="0" on="1"/>
        <pt x="80" y="630" on="1"/>
      </contour>
      <contour>
        <pt x="132" y="42" on="1"/>
        <pt x="221" y="42" on="1"/>
        <pt x="273" y="42" on="0"/>
        <pt x="373" y="67" on="0"/>
        <pt x="453" y="132" on="0"/>
        <pt x="502" y="243" on="0"/>
        <pt x="502" y="329" on="1"/>
        <pt x="502" y="390" on="0"/>
        <pt x="465" y="486" on="0"/>
        <pt x="397" y="553" on="0"/>
        <pt x="304" y="588" on="0"/>
        <pt x="247" y="588" on="1"/>
        <pt x="132" y="588" on="1"/>
      </contour>
    </TTGlyph>
    <TTGlyph name="DaySign.tm" xMin="54" yMin="-5" xMax="752" yMax="499">
      <contour>
        <pt x="320" y="499" on="1"/>
        <pt x="375" y="499" on="0"/>
        <pt x="467" y="460" on="0"/>
        <pt x="534" y="390" on="0"/>
        <pt x="572" y="294" on="0"/>
        <pt x="572" y="237" on="1"/>
        <pt x="572" y="164" on="0"/>
        <pt x="535" y="62" on="0"/>
        <pt x="517" y="36" on="1"/>
        <pt x="752" y="36" on="1"/>
        <pt x="752" y="0" on="1"/>
        <pt x="477" y="0" on="1"/>
        <pt x="460" y="33" on="1"/>
        <pt x="492" y="72" on="0"/>
        <pt x="526" y="174" on="0"/>
        <pt x="526" y="234" on="1"/>
        <pt x="526" y="286" on="0"/>
        <pt x="496" y="371" on="0"/>
        <pt x="441" y="429" on="0"/>
        <pt x="363" y="461" on="0"/>
        <pt x="315" y="461" on="1"/>
        <pt x="266" y="461" on="0"/>
        <pt x="185" y="425" on="0"/>
        <pt x="127" y="361" on="0"/>
        <pt x="95" y="271" on="0"/>
        <pt x="95" y="217" on="1"/>
        <pt x="95" y="198" on="1"/>
        <pt x="113" y="238" on="0"/>
        <pt x="181" y="285" on="0"/>
        <pt x="224" y="285" on="1"/>
        <pt x="254" y="285" on="0"/>
        <pt x="307" y="263" on="0"/>
        <pt x="345" y="225" on="0"/>
        <pt x="367" y="173" on="0"/>
        <pt x="367" y="143" on="1"/>
        <pt x="367" y="111" on="0"/>
        <pt x="345" y="56" on="0"/>
        <pt x="305" y="17" on="0"/>
        <pt x="251" y="-5" on="0"/>
        <pt x="218" y="-5" on="1"/>
        <pt x="182" y="-5" on="0"/>
        <pt x="122" y="24" on="0"/>
        <pt x="78" y="80" on="0"/>
        <pt x="54" y="162" on="0"/>
        <pt x="54" y="214" on="1"/>
        <pt x="54" y="278" on="0"/>
        <pt x="93" y="383" on="0"/>
        <pt x="163" y="458" on="0"/>
        <pt x="261" y="499" on="0"/>
      </contour>
      <contour>
        <pt x="216" y="249" on="1"/>
        <pt x="194" y="249" on="0"/>
        <pt x="156" y="231" on="0"/>
        <pt x="126" y="201" on="0"/>
        <pt x="106" y="160" on="0"/>
        <pt x="103" y="138" on="1"/>
        <pt x="115" y="82" on="0"/>
        <pt x="180" y="31" on="0"/>
        <pt x="218" y="31" on="1"/>
        <pt x="265" y="31" on="0"/>
        <pt x="323" y="90" on="0"/>
        <pt x="323" y="141" on="1"/>
        <pt x="323" y="190" on="0"/>
        <pt x="265" y="249" on="0"/>
      </contour>
    </TTGlyph>
    <TTGlyph name="Dcaron" xMin="80" yMin="0" xMax="556" yMax="844">
      <contour>
        <pt x="265" y="630" on="1"/>
        <pt x="327" y="630" on="0"/>
        <pt x="434" y="592" on="0"/>
        <pt x="512" y="517" on="0"/>
        <pt x="556" y="404" on="0"/>
        <pt x="556" y="329" on="1"/>
        <pt x="556" y="238" on="0"/>
        <pt x="504" y="112" on="0"/>
        <pt x="414" y="34" on="0"/>
        <pt x="296" y="0" on="0"/>
        <pt x="230" y="0" on="1"/>
        <pt x="80" y="0" on="1"/>
        <pt x="80" y="630" on="1"/>
      </contour>
      <contour>
        <pt x="132" y="42" on="1"/>
        <pt x="221" y="42" on="1"/>
        <pt x="273" y="42" on="0"/>
        <pt x="373" y="67" on="0"/>
        <pt x="453" y="132" on="0"/>
        <pt x="502" y="243" on="0"/>
        <pt x="502" y="329" on="1"/>
        <pt x="502" y="390" on="0"/>
        <pt x="465" y="486" on="0"/>
        <pt x="397" y="553" on="0"/>
        <pt x="304" y="588" on="0"/>
        <pt x="247" y="588" on="1"/>
        <pt x="132" y="588" on="1"/>
      </contour>
      <contour>
        <pt x="111" y="844" on="1"/>
        <pt x="167" y="844" on="1"/>
        <pt x="257" y="745" on="1"/>
        <pt x="347" y="844" on="1"/>
        <pt x="407" y="844" on="1"/>
        <pt x="282" y="710" on="1"/>
        <pt x="233" y="710" on="1"/>
      </contour>
    </TTGlyph>
    <TTGlyph name="Dcroat" xMin="30" yMin="0" xMax="586" yMax="630">
      <contour>
        <pt x="295" y="630" on="1"/>
        <pt x="357" y="630" on="0"/>
        <pt x="464" y="592" on="0"/>
        <pt x="542" y="517" on="0"/>
        <pt x="586" y="404" on="0"/>
        <pt x="586" y="329" on="1"/>
        <pt x="586" y="238" on="0"/>
        <pt x="534" y="112" on="0"/>
        <pt x="444" y="34" on="0"/>
        <pt x="326" y="0" on="0"/>
        <pt x="260" y="0" on="1"/>
        <pt x="110" y="0" on="1"/>
        <pt x="110" y="308" on="1"/>
        <pt x="30" y="308" on="1"/>
        <pt x="30" y="350" on="1"/>
        <pt x="110" y="350" on="1"/>
        <pt x="110" y="630" on="1"/>
      </contour>
      <contour>
        <pt x="330" y="350" on="1"/>
        <pt x="330" y="308" on="1"/>
        <pt x="162" y="308" on="1"/>
        <pt x="162" y="42" on="1"/>
        <pt x="251" y="42" on="1"/>
        <pt x="303" y="42" on="0"/>
        <pt x="403" y="67" on="0"/>
        <pt x="483" y="132" on="0"/>
        <pt x="532" y="243" on="0"/>
        <pt x="532" y="329" on="1"/>
        <pt x="532" y="390" on="0"/>
        <pt x="495" y="486" on="0"/>
        <pt x="427" y="553" on="0"/>
        <pt x="334" y="588" on="0"/>
        <pt x="277" y="588" on="1"/>
        <pt x="162" y="588" on="1"/>
        <pt x="162" y="350" on="1"/>
      </contour>
    </TTGlyph>
    <TTGlyph name="DebitSign.tm" xMin="56" yMin="-278" xMax="767" yMax="495">
      <contour>
        <pt x="767" y="495" on="1"/>
        <pt x="767" y="-109" on="1"/>
        <pt x="556" y="-109" on="1"/>
        <pt x="546" y="-185" on="0"/>
        <pt x="411" y="-278" on="0"/>
        <pt x="287" y="-278" on="1"/>
        <pt x="235" y="-278" on="0"/>
        <pt x="150" y="-260" on="0"/>
        <pt x="89" y="-226" on="0"/>
        <pt x="56" y="-179" on="0"/>
        <pt x="56" y="-150" on="1"/>
        <pt x="56" y="-115" on="0"/>
        <pt x="102" y="-74" on="0"/>
        <pt x="141" y="-74" on="1"/>
        <pt x="516" y="-74" on="1"/>
        <pt x="516" y="0" on="1"/>
        <pt x="75" y="0" on="1"/>
        <pt x="75" y="495" on="1"/>
        <pt x="120" y="495" on="1"/>
        <pt x="120" y="37" on="1"/>
        <pt x="514" y="37" on="1"/>
        <pt x="514" y="495" on="1"/>
        <pt x="559" y="495" on="1"/>
        <pt x="559" y="-74" on="1"/>
        <pt x="723" y="-74" on="1"/>
        <pt x="723" y="495" on="1"/>
      </contour>
      <contour>
        <pt x="290" y="-241" on="1"/>
        <pt x="388" y="-241" on="0"/>
        <pt x="502" y="-170" on="0"/>
        <pt x="513" y="-109" on="1"/>
        <pt x="143" y="-109" on="1"/>
        <pt x="122" y="-109" on="0"/>
        <pt x="98" y="-131" on="0"/>
        <pt x="98" y="-150" on="1"/>
        <pt x="98" y="-170" on="0"/>
        <pt x="126" y="-203" on="0"/>
        <pt x="176" y="-227" on="0"/>
        <pt x="247" y="-241" on="0"/>
      </contour>
    </TTGlyph>
    <TTGlyph name="DottedCircle" xMin="12" yMin="-8" xMax="508" yMax="503">
      <contour>
        <pt x="232" y="19" on="1"/>
        <pt x="232" y="31" on="0"/>
        <pt x="248" y="47" on="0"/>
        <pt x="259" y="47" on="1"/>
        <pt x="271" y="47" on="0"/>
        <pt x="288" y="31" on="0"/>
        <pt x="288" y="19" on="1"/>
        <pt x="288" y="8" on="0"/>
        <pt x="271" y="-8" on="0"/>
        <pt x="259" y="-8" on="1"/>
        <pt x="248" y="-8" on="0"/>
        <pt x="232" y="8" on="0"/>
      </contour>
      <contour>
        <pt x="232" y="475" on="1"/>
        <pt x="232" y="487" on="0"/>
        <pt x="248" y="503" on="0"/>
        <pt x="259" y="503" on="1"/>
        <pt x="271" y="503" on="0"/>
        <pt x="288" y="487" on="0"/>
        <pt x="288" y="475" on="1"/>
        <pt x="288" y="464" on="0"/>
        <pt x="271" y="447" on="0"/>
        <pt x="259" y="447" on="1"/>
        <pt x="247" y="447" on="0"/>
        <pt x="232" y="463" on="0"/>
      </contour>
      <contour>
        <pt x="12" y="247" on="1"/>
        <pt x="12" y="259" on="0"/>
        <pt x="27" y="274" on="0"/>
        <pt x="39" y="274" on="1"/>
        <pt x="51" y="274" on="0"/>
        <pt x="67" y="259" on="0"/>
        <pt x="67" y="247" on="1"/>
        <pt x="67" y="235" on="0"/>
        <pt x="51" y="220" on="0"/>
        <pt x="39" y="220" on="1"/>
        <pt x="27" y="220" on="0"/>
        <pt x="12" y="235" on="0"/>
      </contour>
      <contour>
        <pt x="452" y="247" on="1"/>
        <pt x="452" y="259" on="0"/>
        <pt x="467" y="274" on="0"/>
        <pt x="479" y="274" on="1"/>
        <pt x="492" y="274" on="0"/>
        <pt x="508" y="259" on="0"/>
        <pt x="508" y="247" on="1"/>
        <pt x="508" y="235" on="0"/>
        <pt x="492" y="220" on="0"/>
        <pt x="479" y="220" on="1"/>
        <pt x="467" y="220" on="0"/>
        <pt x="452" y="235" on="0"/>
      </contour>
      <contour>
        <pt x="73" y="406" on="1"/>
        <pt x="73" y="418" on="0"/>
        <pt x="89" y="435" on="0"/>
        <pt x="100" y="435" on="1"/>
        <pt x="112" y="435" on="0"/>
        <pt x="128" y="418" on="0"/>
        <pt x="128" y="406" on="1"/>
        <pt x="128" y="395" on="0"/>
        <pt x="111" y="379" on="0"/>
        <pt x="100" y="379" on="1"/>
        <pt x="88" y="379" on="0"/>
        <pt x="73" y="394" on="0"/>
      </contour>
      <contour>
        <pt x="73" y="88" on="1"/>
        <pt x="73" y="100" on="0"/>
        <pt x="88" y="115" on="0"/>
        <pt x="100" y="115" on="1"/>
        <pt x="112" y="115" on="0"/>
        <pt x="128" y="99" on="0"/>
        <pt x="128" y="88" on="1"/>
        <pt x="128" y="76" on="0"/>
        <pt x="112" y="60" on="0"/>
        <pt x="100" y="60" on="1"/>
        <pt x="88" y="60" on="0"/>
        <pt x="73" y="75" on="0"/>
      </contour>
      <contour>
        <pt x="392" y="88" on="1"/>
        <pt x="392" y="100" on="0"/>
        <pt x="407" y="115" on="0"/>
        <pt x="418" y="115" on="1"/>
        <pt x="430" y="115" on="0"/>
        <pt x="446" y="100" on="0"/>
        <pt x="446" y="88" on="1"/>
        <pt x="446" y="76" on="0"/>
        <pt x="430" y="60" on="0"/>
        <pt x="418" y="60" on="1"/>
        <pt x="407" y="60" on="0"/>
        <pt x="392" y="76" on="0"/>
      </contour>
      <contour>
        <pt x="392" y="406" on="1"/>
        <pt x="392" y="419" on="0"/>
        <pt x="407" y="435" on="0"/>
        <pt x="418" y="435" on="1"/>
        <pt x="430" y="435" on="0"/>
        <pt x="446" y="419" on="0"/>
        <pt x="446" y="406" on="1"/>
        <pt x="446" y="394" on="0"/>
        <pt x="431" y="379" on="0"/>
        <pt x="418" y="379" on="1"/>
        <pt x="406" y="379" on="0"/>
        <pt x="392" y="394" on="0"/>
      </contour>
    </TTGlyph>
    <TTGlyph name="Dsmall" xMin="68" yMin="0" xMax="438" yMax="470">
      <contour>
        <pt x="191" y="470" on="1"/>
        <pt x="239" y="470" on="0"/>
        <pt x="328" y="446" on="0"/>
        <pt x="397" y="392" on="0"/>
        <pt x="438" y="307" on="0"/>
        <pt x="438" y="246" on="1"/>
        <pt x="438" y="182" on="0"/>
        <pt x="399" y="89" on="0"/>
        <pt x="331" y="29" on="0"/>
        <pt x="238" y="0" on="0"/>
        <pt x="185" y="0" on="1"/>
        <pt x="68" y="0" on="1"/>
        <pt x="68" y="470" on="1"/>
      </contour>
      <contour>
        <pt x="116" y="38" on="1"/>
        <pt x="165" y="38" on="1"/>
        <pt x="199" y="38" on="0"/>
        <pt x="278" y="52" on="0"/>
        <pt x="344" y="95" on="0"/>
        <pt x="388" y="176" on="0"/>
        <pt x="388" y="243" on="1"/>
        <pt x="388" y="432" on="0"/>
        <pt x="165" y="432" on="1"/>
        <pt x="116" y="432" on="1"/>
      </contour>
    </TTGlyph>
    <TTGlyph name="E" xMin="80" yMin="0" xMax="443" yMax="630">
      <contour>
        <pt x="80" y="630" on="1"/>
        <pt x="440" y="630" on="1"/>
        <pt x="440" y="588" on="1"/>
        <pt x="132" y="588" on="1"/>
        <pt x="132" y="345" on="1"/>
        <pt x="414" y="345" on="1"/>
        <pt x="414" y="303" on="1"/>
        <pt x="132" y="303" on="1"/>
        <pt x="132" y="42" on="1"/>
        <pt x="443" y="42" on="1"/>
        <pt x="443" y="0" on="1"/>
        <pt x="80" y="0" on="1"/>
      </contour>
    </TTGlyph>
    <TTGlyph name="Eacute" xMin="80" yMin="0" xMax="443" yMax="834">
      <contour>
        <pt x="80" y="630" on="1"/>
        <pt x="440" y="630" on="1"/>
        <pt x="440" y="588" on="1"/>
        <pt x="132" y="588" on="1"/>
        <pt x="132" y="345" on="1"/>
        <pt x="414" y="345" on="1"/>
        <pt x="414" y="303" on="1"/>
        <pt x="132" y="303" on="1"/>
        <pt x="132" y="42" on="1"/>
        <pt x="443" y="42" on="1"/>
        <pt x="443" y="0" on="1"/>
        <pt x="80" y="0" on="1"/>
      </contour>
      <contour>
        <pt x="241" y="710" on="1"/>
        <pt x="199" y="710" on="1"/>
        <pt x="289" y="834" on="1"/>
        <pt x="352" y="834" on="1"/>
      </contour>
    </TTGlyph>
    <TTGlyph name="Ebreve" xMin="80" yMin="0" xMax="443" yMax="834">
      <contour>
        <pt x="80" y="630" on="1"/>
        <pt x="440" y="630" on="1"/>
        <pt x="440" y="588" on="1"/>
        <pt x="132" y="588" on="1"/>
        <pt x="132" y="345" on="1"/>
        <pt x="414" y="345" on="1"/>
        <pt x="414" y="303" on="1"/>
        <pt x="132" y="303" on="1"/>
        <pt x="132" y="42" on="1"/>
        <pt x="443" y="42" on="1"/>
        <pt x="443" y="0" on="1"/>
        <pt x="80" y="0" on="1"/>
      </contour>
      <contour>
        <pt x="176" y="834" on="1"/>
        <pt x="177" y="796" on="0"/>
        <pt x="217" y="750" on="0"/>
        <pt x="264" y="750" on="1"/>
        <pt x="303" y="750" on="0"/>
        <pt x="348" y="794" on="0"/>
        <pt x="349" y="834" on="1"/>
        <pt x="397" y="834" on="1"/>
        <pt x="397" y="780" on="0"/>
        <pt x="329" y="710" on="0"/>
        <pt x="264" y="710" on="1"/>
        <pt x="228" y="710" on="0"/>
        <pt x="177" y="730" on="0"/>
        <pt x="144" y="765" on="0"/>
        <pt x="128" y="810" on="0"/>
        <pt x="128" y="834" on="1"/>
      </contour>
    </TTGlyph>
    <TTGlyph name="Ecaron" xMin="80" yMin="0" xMax="443" yMax="845">
      <contour>
        <pt x="80" y="630" on="1"/>
        <pt x="440" y="630" on="1"/>
        <pt x="440" y="588" on="1"/>
        <pt x="132" y="588" on="1"/>
        <pt x="132" y="345" on="1"/>
        <pt x="414" y="345" on="1"/>
        <pt x="414" y="303" on="1"/>
        <pt x="132" y="303" on="1"/>
        <pt x="132" y="42" on="1"/>
        <pt x="443" y="42" on="1"/>
        <pt x="443" y="0" on="1"/>
        <pt x="80" y="0" on="1"/>
      </contour>
      <contour>
        <pt x="118" y="845" on="1"/>
        <pt x="174" y="845" on="1"/>
        <pt x="264" y="746" on="1"/>
        <pt x="354" y="845" on="1"/>
        <pt x="414" y="845" on="1"/>
        <pt x="289" y="711" on="1"/>
        <pt x="240" y="711" on="1"/>
      </contour>
    </TTGlyph>
    <TTGlyph name="Ecircumflex" xMin="80" yMin="0" xMax="443" yMax="844">
      <contour>
        <pt x="80" y="630" on="1"/>
        <pt x="440" y="630" on="1"/>
        <pt x="440" y="588" on="1"/>
        <pt x="132" y="588" on="1"/>
        <pt x="132" y="345" on="1"/>
        <pt x="414" y="345" on="1"/>
        <pt x="414" y="303" on="1"/>
        <pt x="132" y="303" on="1"/>
        <pt x="132" y="42" on="1"/>
        <pt x="443" y="42" on="1"/>
        <pt x="443" y="0" on="1"/>
        <pt x="80" y="0" on="1"/>
      </contour>
      <contour>
        <pt x="240" y="844" on="1"/>
        <pt x="289" y="844" on="1"/>
        <pt x="414" y="710" on="1"/>
        <pt x="354" y="710" on="1"/>
        <pt x="264" y="809" on="1"/>
        <pt x="174" y="710" on="1"/>
        <pt x="118" y="710" on="1"/>
      </contour>
    </TTGlyph>
    <TTGlyph name="Edieresis" xMin="80" yMin="0" xMax="443" yMax="810">
      <contour>
        <pt x="80" y="630" on="1"/>
        <pt x="440" y="630" on="1"/>
        <pt x="440" y="588" on="1"/>
        <pt x="132" y="588" on="1"/>
        <pt x="132" y="345" on="1"/>
        <pt x="414" y="345" on="1"/>
        <pt x="414" y="303" on="1"/>
        <pt x="132" y="303" on="1"/>
        <pt x="132" y="42" on="1"/>
        <pt x="443" y="42" on="1"/>
        <pt x="443" y="0" on="1"/>
        <pt x="80" y="0" on="1"/>
      </contour>
      <contour>
        <pt x="139" y="766" on="1"/>
        <pt x="139" y="786" on="0"/>
        <pt x="162" y="810" on="0"/>
        <pt x="179" y="810" on="1"/>
        <pt x="196" y="810" on="0"/>
        <pt x="219" y="786" on="0"/>
        <pt x="219" y="766" on="1"/>
        <pt x="219" y="745" on="0"/>
        <pt x="196" y="722" on="0"/>
        <pt x="179" y="722" on="1"/>
        <pt x="162" y="722" on="0"/>
        <pt x="139" y="745" on="0"/>
      </contour>
      <contour>
        <pt x="309" y="766" on="1"/>
        <pt x="309" y="786" on="0"/>
        <pt x="332" y="810" on="0"/>
        <pt x="349" y="810" on="1"/>
        <pt x="366" y="810" on="0"/>
        <pt x="389" y="786" on="0"/>
        <pt x="389" y="766" on="1"/>
        <pt x="389" y="745" on="0"/>
        <pt x="366" y="722" on="0"/>
        <pt x="349" y="722" on="1"/>
        <pt x="332" y="722" on="0"/>
        <pt x="309" y="745" on="0"/>
      </contour>
    </TTGlyph>
    <TTGlyph name="Edotaccent" xMin="80" yMin="0" xMax="443" yMax="822">
      <contour>
        <pt x="80" y="630" on="1"/>
        <pt x="440" y="630" on="1"/>
        <pt x="440" y="588" on="1"/>
        <pt x="132" y="588" on="1"/>
        <pt x="132" y="345" on="1"/>
        <pt x="414" y="345" on="1"/>
        <pt x="414" y="303" on="1"/>
        <pt x="132" y="303" on="1"/>
        <pt x="132" y="42" on="1"/>
        <pt x="443" y="42" on="1"/>
        <pt x="443" y="0" on="1"/>
        <pt x="80" y="0" on="1"/>
      </contour>
      <contour>
        <pt x="224" y="778" on="1"/>
        <pt x="224" y="798" on="0"/>
        <pt x="247" y="822" on="0"/>
        <pt x="264" y="822" on="1"/>
        <pt x="281" y="822" on="0"/>
        <pt x="304" y="798" on="0"/>
        <pt x="304" y="778" on="1"/>
        <pt x="304" y="757" on="0"/>
        <pt x="281" y="734" on="0"/>
        <pt x="264" y="734" on="1"/>
        <pt x="247" y="734" on="0"/>
        <pt x="224" y="757" on="0"/>
      </contour>
    </TTGlyph>
    <TTGlyph name="Egrave" xMin="80" yMin="0" xMax="443" yMax="834">
      <contour>
        <pt x="80" y="630" on="1"/>
        <pt x="440" y="630" on="1"/>
        <pt x="440" y="588" on="1"/>
        <pt x="132" y="588" on="1"/>
        <pt x="132" y="345" on="1"/>
        <pt x="414" y="345" on="1"/>
        <pt x="414" y="303" on="1"/>
        <pt x="132" y="303" on="1"/>
        <pt x="132" y="42" on="1"/>
        <pt x="443" y="42" on="1"/>
        <pt x="443" y="0" on="1"/>
        <pt x="80" y="0" on="1"/>
      </contour>
      <contour>
        <pt x="191" y="834" on="1"/>
        <pt x="254" y="834" on="1"/>
        <pt x="344" y="710" on="1"/>
        <pt x="302" y="710" on="1"/>
      </contour>
    </TTGlyph>
    <TTGlyph name="Eight.tm" xMin="19" yMin="-83" xMax="882" yMax="499">
      <contour>
        <pt x="654" y="186" on="1"/>
        <pt x="656" y="195" on="0"/>
        <pt x="659" y="227" on="0"/>
        <pt x="659" y="245" on="1"/>
        <pt x="659" y="295" on="0"/>
        <pt x="629" y="375" on="0"/>
        <pt x="577" y="431" on="0"/>
        <pt x="505" y="461" on="0"/>
        <pt x="463" y="461" on="1"/>
        <pt x="401" y="461" on="0"/>
        <pt x="339" y="403" on="0"/>
        <pt x="339" y="360" on="1"/>
        <pt x="339" y="340" on="0"/>
        <pt x="352" y="309" on="0"/>
        <pt x="372" y="287" on="0"/>
        <pt x="396" y="273" on="0"/>
        <pt x="407" y="269" on="1"/>
        <pt x="398" y="234" on="1"/>
        <pt x="380" y="238" on="0"/>
        <pt x="343" y="257" on="0"/>
        <pt x="314" y="289" on="0"/>
        <pt x="295" y="333" on="0"/>
        <pt x="295" y="361" on="1"/>
        <pt x="295" y="389" on="0"/>
        <pt x="318" y="439" on="0"/>
        <pt x="361" y="477" on="0"/>
        <pt x="424" y="499" on="0"/>
        <pt x="465" y="499" on="1"/>
        <pt x="516" y="499" on="0"/>
        <pt x="603" y="462" on="0"/>
        <pt x="668" y="394" on="0"/>
        <pt x="704" y="301" on="0"/>
        <pt x="704" y="245" on="1"/>
        <pt x="704" y="228" on="0"/>
        <pt x="702" y="195" on="0"/>
        <pt x="700" y="186" on="1"/>
        <pt x="838" y="186" on="1"/>
        <pt x="838" y="495" on="1"/>
        <pt x="882" y="495" on="1"/>
        <pt x="882" y="-83" on="1"/>
        <pt x="838" y="-83" on="1"/>
        <pt x="838" y="150" on="1"/>
        <pt x="694" y="150" on="1"/>
        <pt x="679" y="97" on="0"/>
        <pt x="612" y="20" on="0"/>
        <pt x="517" y="-31" on="0"/>
        <pt x="398" y="-55" on="0"/>
        <pt x="331" y="-55" on="1"/>
        <pt x="263" y="-55" on="0"/>
        <pt x="149" y="-33" on="0"/>
        <pt x="66" y="8" on="0"/>
        <pt x="19" y="67" on="0"/>
        <pt x="19" y="104" on="1"/>
        <pt x="19" y="142" on="0"/>
        <pt x="72" y="186" on="0"/>
        <pt x="127" y="186" on="1"/>
      </contour>
      <contour>
        <pt x="334" y="-17" on="1"/>
        <pt x="392" y="-17" on="0"/>
        <pt x="493" y="2" on="0"/>
        <pt x="574" y="42" on="0"/>
        <pt x="633" y="106" on="0"/>
        <pt x="648" y="150" on="1"/>
        <pt x="123" y="150" on="1"/>
        <pt x="91" y="150" on="0"/>
        <pt x="63" y="125" on="0"/>
        <pt x="63" y="102" on="1"/>
        <pt x="63" y="76" on="0"/>
        <pt x="101" y="33" on="0"/>
        <pt x="172" y="1" on="0"/>
        <pt x="272" y="-17" on="0"/>
      </contour>
    </TTGlyph>
    <TTGlyph name="Ek_Type" xMin="100" yMin="-312" xMax="1089" yMax="636">
      <contour>
        <pt x="800" y="531" on="1"/>
        <pt x="800" y="403" on="1"/>
        <pt x="814" y="421" on="0"/>
        <pt x="867" y="447" on="0"/>
        <pt x="902" y="447" on="1"/>
        <pt x="977" y="447" on="0"/>
        <pt x="1062" y="351" on="0"/>
        <pt x="1062" y="266" on="1"/>
        <pt x="1062" y="224" on="0"/>
        <pt x="1037" y="156" on="0"/>
        <pt x="991" y="107" on="0"/>
        <pt x="925" y="81" on="0"/>
        <pt x="885" y="81" on="1"/>
        <pt x="876" y="81" on="0"/>
        <pt x="852" y="84" on="0"/>
        <pt x="841" y="87" on="1"/>
        <pt x="854" y="184" on="1"/>
        <pt x="869" y="184" on="1"/>
        <pt x="927" y="184" on="0"/>
        <pt x="927" y="266" on="1"/>
        <pt x="927" y="301" on="0"/>
        <pt x="894" y="340" on="0"/>
        <pt x="865" y="340" on="1"/>
        <pt x="836" y="340" on="0"/>
        <pt x="807" y="299" on="0"/>
        <pt x="803" y="276" on="1"/>
        <pt x="803" y="0" on="1"/>
        <pt x="672" y="0" on="1"/>
        <pt x="672" y="113" on="1"/>
        <pt x="657" y="95" on="0"/>
        <pt x="603" y="74" on="0"/>
        <pt x="579" y="74" on="1"/>
        <pt x="549" y="74" on="0"/>
        <pt x="489" y="94" on="0"/>
        <pt x="441" y="139" on="0"/>
        <pt x="411" y="211" on="0"/>
        <pt x="411" y="263" on="1"/>
        <pt x="411" y="352" on="0"/>
        <pt x="493" y="447" on="0"/>
        <pt x="568" y="447" on="1"/>
        <pt x="600" y="447" on="0"/>
        <pt x="654" y="428" on="0"/>
        <pt x="672" y="411" on="1"/>
        <pt x="672" y="531" on="1"/>
        <pt x="330" y="531" on="1"/>
        <pt x="330" y="50" on="1"/>
        <pt x="549" y="-40" on="0"/>
        <pt x="818" y="-164" on="0"/>
        <pt x="883" y="-197" on="1"/>
        <pt x="822" y="-312" on="1"/>
        <pt x="778" y="-291" on="0"/>
        <pt x="661" y="-235" on="0"/>
        <pt x="507" y="-163" on="0"/>
        <pt x="314" y="-73" on="0"/>
        <pt x="195" y="-18" on="1"/>
        <pt x="195" y="531" on="1"/>
        <pt x="100" y="531" on="1"/>
        <pt x="100" y="636" on="1"/>
        <pt x="1089" y="636" on="1"/>
        <pt x="1089" y="531" on="1"/>
      </contour>
      <contour>
        <pt x="675" y="309" on="1"/>
        <pt x="665" y="320" on="0"/>
        <pt x="633" y="338" on="0"/>
        <pt x="613" y="338" on="1"/>
        <pt x="584" y="338" on="0"/>
        <pt x="548" y="297" on="0"/>
        <pt x="548" y="262" on="1"/>
        <pt x="548" y="225" on="0"/>
        <pt x="582" y="182" on="0"/>
        <pt x="611" y="182" on="1"/>
        <pt x="667" y="182" on="0"/>
        <pt x="675" y="236" on="1"/>
      </contour>
    </TTGlyph>
    <TTGlyph name="Emacron" xMin="80" yMin="0" xMax="443" yMax="772">
      <contour>
        <pt x="80" y="630" on="1"/>
        <pt x="440" y="630" on="1"/>
        <pt x="440" y="588" on="1"/>
        <pt x="132" y="588" on="1"/>
        <pt x="132" y="345" on="1"/>
        <pt x="414" y="345" on="1"/>
        <pt x="414" y="303" on="1"/>
        <pt x="132" y="303" on="1"/>
        <pt x="132" y="42" on="1"/>
        <pt x="443" y="42" on="1"/>
        <pt x="443" y="0" on="1"/>
        <pt x="80" y="0" on="1"/>
      </contour>
      <contour>
        <pt x="387" y="772" on="1"/>
        <pt x="387" y="730" on="1"/>
        <pt x="142" y="730" on="1"/>
        <pt x="142" y="772" on="1"/>
      </contour>
    </TTGlyph>
    <TTGlyph name="Eng" xMin="80" yMin="-215" xMax="543" yMax="630">
      <contour>
        <pt x="80" y="630" on="1"/>
        <pt x="130" y="630" on="1"/>
        <pt x="405" y="206" on="1"/>
        <pt x="428" y="172" on="0"/>
        <pt x="472" y="106" on="0"/>
        <pt x="493" y="72" on="1"/>
        <pt x="495" y="72" on="1"/>
        <pt x="493" y="110" on="0"/>
        <pt x="493" y="188" on="0"/>
        <pt x="493" y="226" on="1"/>
        <pt x="493" y="630" on="1"/>
        <pt x="543" y="630" on="1"/>
        <pt x="543" y="57" on="1"/>
        <pt x="543" y="2" on="0"/>
        <pt x="529" y="-82" on="0"/>
        <pt x="497" y="-146" on="0"/>
        <pt x="444" y="-195" on="0"/>
        <pt x="405" y="-215" on="1"/>
        <pt x="379" y="-174" on="1"/>
        <pt x="434" y="-141" on="0"/>
        <pt x="486" y="-62" on="0"/>
        <pt x="491" y="-7" on="1"/>
        <pt x="227" y="396" on="1"/>
        <pt x="201" y="437" on="0"/>
        <pt x="151" y="520" on="0"/>
        <pt x="129" y="562" on="1"/>
        <pt x="127" y="562" on="1"/>
        <pt x="130" y="469" on="0"/>
        <pt x="130" y="376" on="1"/>
        <pt x="130" y="0" on="1"/>
        <pt x="80" y="0" on="1"/>
      </contour>
    </TTGlyph>
    <TTGlyph name="Eogonek" xMin="80" yMin="-206" xMax="480" yMax="630">
      <contour>
        <pt x="443" y="0" on="1"/>
        <pt x="392" y="-17" on="0"/>
        <pt x="342" y="-74" on="0"/>
        <pt x="342" y="-106" on="1"/>
        <pt x="342" y="-135" on="0"/>
        <pt x="380" y="-166" on="0"/>
        <pt x="415" y="-166" on="1"/>
        <pt x="432" y="-166" on="0"/>
        <pt x="461" y="-159" on="0"/>
        <pt x="471" y="-154" on="1"/>
        <pt x="480" y="-185" on="1"/>
        <pt x="445" y="-206" on="0"/>
        <pt x="400" y="-206" on="1"/>
        <pt x="354" y="-206" on="0"/>
        <pt x="293" y="-156" on="0"/>
        <pt x="293" y="-109" on="1"/>
        <pt x="293" y="-71" on="0"/>
        <pt x="338" y="-15" on="0"/>
        <pt x="373" y="-2" on="1"/>
        <pt x="373" y="0" on="1"/>
        <pt x="80" y="0" on="1"/>
        <pt x="80" y="630" on="1"/>
        <pt x="440" y="630" on="1"/>
        <pt x="440" y="588" on="1"/>
        <pt x="132" y="588" on="1"/>
        <pt x="132" y="345" on="1"/>
        <pt x="414" y="345" on="1"/>
        <pt x="414" y="303" on="1"/>
        <pt x="132" y="303" on="1"/>
        <pt x="132" y="42" on="1"/>
        <pt x="443" y="42" on="1"/>
      </contour>
    </TTGlyph>
    <TTGlyph name="Esmall" xMin="68" yMin="0" xMax="357" yMax="470">
      <contour>
        <pt x="68" y="470" on="1"/>
        <pt x="355" y="470" on="1"/>
        <pt x="355" y="432" on="1"/>
        <pt x="116" y="432" on="1"/>
        <pt x="116" y="262" on="1"/>
        <pt x="338" y="262" on="1"/>
        <pt x="338" y="225" on="1"/>
        <pt x="116" y="225" on="1"/>
        <pt x="116" y="38" on="1"/>
        <pt x="357" y="38" on="1"/>
        <pt x="357" y="0" on="1"/>
        <pt x="68" y="0" on="1"/>
      </contour>
    </TTGlyph>
    <TTGlyph name="Eth" xMin="30" yMin="0" xMax="586" yMax="630">
      <contour>
        <pt x="295" y="630" on="1"/>
        <pt x="357" y="630" on="0"/>
        <pt x="464" y="592" on="0"/>
        <pt x="542" y="517" on="0"/>
        <pt x="586" y="404" on="0"/>
        <pt x="586" y="329" on="1"/>
        <pt x="586" y="238" on="0"/>
        <pt x="534" y="112" on="0"/>
        <pt x="444" y="34" on="0"/>
        <pt x="326" y="0" on="0"/>
        <pt x="260" y="0" on="1"/>
        <pt x="110" y="0" on="1"/>
        <pt x="110" y="308" on="1"/>
        <pt x="30" y="308" on="1"/>
        <pt x="30" y="350" on="1"/>
        <pt x="110" y="350" on="1"/>
        <pt x="110" y="630" on="1"/>
      </contour>
      <contour>
        <pt x="330" y="350" on="1"/>
        <pt x="330" y="308" on="1"/>
        <pt x="162" y="308" on="1"/>
        <pt x="162" y="42" on="1"/>
        <pt x="251" y="42" on="1"/>
        <pt x="303" y="42" on="0"/>
        <pt x="403" y="67" on="0"/>
        <pt x="483" y="132" on="0"/>
        <pt x="532" y="243" on="0"/>
        <pt x="532" y="329" on="1"/>
        <pt x="532" y="390" on="0"/>
        <pt x="495" y="486" on="0"/>
        <pt x="427" y="553" on="0"/>
        <pt x="334" y="588" on="0"/>
        <pt x="277" y="588" on="1"/>
        <pt x="162" y="588" on="1"/>
        <pt x="162" y="350" on="1"/>
      </contour>
    </TTGlyph>
    <TTGlyph name="Euro" xMin="30" yMin="-6" xMax="447" yMax="510">
      <contour>
        <pt x="314" y="510" on="1"/>
        <pt x="361" y="510" on="0"/>
        <pt x="421" y="494" on="0"/>
        <pt x="447" y="480" on="1"/>
        <pt x="435" y="446" on="1"/>
        <pt x="409" y="460" on="0"/>
        <pt x="356" y="473" on="0"/>
        <pt x="323" y="473" on="1"/>
        <pt x="288" y="473" on="0"/>
        <pt x="226" y="454" on="0"/>
        <pt x="175" y="414" on="0"/>
        <pt x="139" y="353" on="0"/>
        <pt x="132" y="310" on="1"/>
        <pt x="387" y="310" on="1"/>
        <pt x="387" y="276" on="1"/>
        <pt x="128" y="276" on="1"/>
        <pt x="128" y="254" on="1"/>
        <pt x="128" y="245" on="0"/>
        <pt x="129" y="226" on="0"/>
        <pt x="130" y="219" on="1"/>
        <pt x="387" y="219" on="1"/>
        <pt x="387" y="185" on="1"/>
        <pt x="134" y="185" on="1"/>
        <pt x="142" y="143" on="0"/>
        <pt x="180" y="84" on="0"/>
        <pt x="230" y="47" on="0"/>
        <pt x="290" y="31" on="0"/>
        <pt x="321" y="31" on="1"/>
        <pt x="359" y="31" on="0"/>
        <pt x="412" y="46" on="0"/>
        <pt x="433" y="57" on="1"/>
        <pt x="445" y="21" on="1"/>
        <pt x="421" y="8" on="0"/>
        <pt x="360" y="-6" on="0"/>
        <pt x="315" y="-6" on="1"/>
        <pt x="228" y="-6" on="0"/>
        <pt x="105" y="90" on="0"/>
        <pt x="88" y="185" on="1"/>
        <pt x="30" y="185" on="1"/>
        <pt x="30" y="219" on="1"/>
        <pt x="84" y="219" on="1"/>
        <pt x="83" y="225" on="0"/>
        <pt x="82" y="243" on="0"/>
        <pt x="82" y="254" on="1"/>
        <pt x="82" y="276" on="1"/>
        <pt x="30" y="276" on="1"/>
        <pt x="30" y="310" on="1"/>
        <pt x="87" y="310" on="1"/>
        <pt x="101" y="407" on="0"/>
        <pt x="223" y="510" on="0"/>
      </contour>
    </TTGlyph>
    <TTGlyph name="Euro.lat" xMin="5" yMin="-8" xMax="521" yMax="638">
      <contour>
        <pt x="366" y="34" on="1"/>
        <pt x="414" y="34" on="0"/>
        <pt x="480" y="52" on="0"/>
        <pt x="506" y="66" on="1"/>
        <pt x="518" y="24" on="1"/>
        <pt x="488" y="9" on="0"/>
        <pt x="413" y="-8" on="0"/>
        <pt x="359" y="-8" on="1"/>
        <pt x="305" y="-8" on="0"/>
        <pt x="211" y="23" on="0"/>
        <pt x="137" y="84" on="0"/>
        <pt x="86" y="174" on="0"/>
        <pt x="76" y="234" on="1"/>
        <pt x="5" y="234" on="1"/>
        <pt x="5" y="274" on="1"/>
        <pt x="72" y="274" on="1"/>
        <pt x="70" y="288" on="0"/>
        <pt x="70" y="306" on="0"/>
        <pt x="70" y="317" on="1"/>
        <pt x="70" y="345" on="1"/>
        <pt x="5" y="345" on="1"/>
        <pt x="5" y="385" on="1"/>
        <pt x="75" y="385" on="1"/>
        <pt x="84" y="446" on="0"/>
        <pt x="132" y="540" on="0"/>
        <pt x="205" y="604" on="0"/>
        <pt x="301" y="638" on="0"/>
        <pt x="357" y="638" on="1"/>
        <pt x="415" y="638" on="0"/>
        <pt x="489" y="619" on="0"/>
        <pt x="521" y="602" on="1"/>
        <pt x="509" y="563" on="1"/>
        <pt x="476" y="580" on="0"/>
        <pt x="409" y="596" on="0"/>
        <pt x="368" y="596" on="1"/>
        <pt x="325" y="596" on="0"/>
        <pt x="246" y="572" on="0"/>
        <pt x="183" y="520" on="0"/>
        <pt x="138" y="440" on="0"/>
        <pt x="129" y="385" on="1"/>
        <pt x="446" y="385" on="1"/>
        <pt x="446" y="345" on="1"/>
        <pt x="124" y="345" on="1"/>
        <pt x="124" y="318" on="1"/>
        <pt x="124" y="307" on="0"/>
        <pt x="125" y="282" on="0"/>
        <pt x="126" y="274" on="1"/>
        <pt x="446" y="274" on="1"/>
        <pt x="446" y="234" on="1"/>
        <pt x="131" y="234" on="1"/>
        <pt x="141" y="179" on="0"/>
        <pt x="188" y="103" on="0"/>
        <pt x="252" y="55" on="0"/>
        <pt x="327" y="34" on="0"/>
      </contour>
    </TTGlyph>
    <TTGlyph name="F" xMin="80" yMin="0" xMax="430" yMax="630">
      <contour>
        <pt x="430" y="630" on="1"/>
        <pt x="430" y="588" on="1"/>
        <pt x="132" y="588" on="1"/>
        <pt x="132" y="336" on="1"/>
        <pt x="408" y="336" on="1"/>
        <pt x="408" y="295" on="1"/>
        <pt x="132" y="295" on="1"/>
        <pt x="132" y="0" on="1"/>
        <pt x="80" y="0" on="1"/>
        <pt x="80" y="630" on="1"/>
      </contour>
    </TTGlyph>
    <TTGlyph name="Five.tm" xMin="54" yMin="-231" xMax="874" yMax="734">
      <contour>
        <pt x="727" y="314" on="1"/>
        <pt x="758" y="314" on="0"/>
        <pt x="811" y="288" on="0"/>
        <pt x="851" y="237" on="0"/>
        <pt x="874" y="161" on="0"/>
        <pt x="874" y="111" on="1"/>
        <pt x="874" y="37" on="0"/>
        <pt x="819" y="-88" on="0"/>
        <pt x="717" y="-180" on="0"/>
        <pt x="572" y="-231" on="0"/>
        <pt x="482" y="-231" on="1"/>
        <pt x="387" y="-231" on="0"/>
        <pt x="229" y="-167" on="0"/>
        <pt x="116" y="-47" on="0"/>
        <pt x="54" y="127" on="0"/>
        <pt x="54" y="237" on="1"/>
        <pt x="54" y="343" on="0"/>
        <pt x="116" y="524" on="0"/>
        <pt x="237" y="658" on="0"/>
        <pt x="414" y="734" on="0"/>
        <pt x="528" y="734" on="1"/>
        <pt x="637" y="734" on="0"/>
        <pt x="799" y="663" on="0"/>
        <pt x="861" y="600" on="1"/>
        <pt x="837" y="576" on="1"/>
        <pt x="775" y="635" on="0"/>
        <pt x="625" y="696" on="0"/>
        <pt x="523" y="696" on="1"/>
        <pt x="421" y="696" on="0"/>
        <pt x="263" y="627" on="0"/>
        <pt x="155" y="505" on="0"/>
        <pt x="99" y="336" on="0"/>
        <pt x="99" y="237" on="1"/>
        <pt x="99" y="138" on="0"/>
        <pt x="152" y="-21" on="0"/>
        <pt x="252" y="-133" on="0"/>
        <pt x="396" y="-193" on="0"/>
        <pt x="487" y="-193" on="1"/>
        <pt x="565" y="-193" on="0"/>
        <pt x="692" y="-147" on="0"/>
        <pt x="782" y="-67" on="0"/>
        <pt x="830" y="43" on="0"/>
        <pt x="830" y="108" on="1"/>
        <pt x="830" y="193" on="0"/>
        <pt x="768" y="277" on="0"/>
        <pt x="717" y="277" on="1"/>
        <pt x="680" y="277" on="0"/>
        <pt x="626" y="231" on="0"/>
        <pt x="617" y="193" on="1"/>
        <pt x="617" y="0" on="1"/>
        <pt x="573" y="0" on="1"/>
        <pt x="573" y="459" on="1"/>
        <pt x="383" y="459" on="1"/>
        <pt x="383" y="0" on="1"/>
        <pt x="339" y="0" on="1"/>
        <pt x="339" y="495" on="1"/>
        <pt x="794" y="495" on="1"/>
        <pt x="794" y="459" on="1"/>
        <pt x="617" y="459" on="1"/>
        <pt x="617" y="253" on="1"/>
        <pt x="631" y="278" on="0"/>
        <pt x="687" y="314" on="0"/>
      </contour>
    </TTGlyph>
    <TTGlyph name="Four.tm" xMin="40" yMin="-5" xMax="643" yMax="495">
      <contour>
        <pt x="643" y="495" on="1"/>
        <pt x="643" y="250" on="1"/>
        <pt x="393" y="250" on="1"/>
        <pt x="393" y="148" on="1"/>
        <pt x="393" y="81" on="0"/>
        <pt x="306" y="-5" on="0"/>
        <pt x="224" y="-5" on="1"/>
        <pt x="182" y="-5" on="0"/>
        <pt x="114" y="18" on="0"/>
        <pt x="66" y="60" on="0"/>
        <pt x="40" y="117" on="0"/>
        <pt x="40" y="151" on="1"/>
        <pt x="40" y="177" on="0"/>
        <pt x="57" y="221" on="0"/>
        <pt x="86" y="254" on="0"/>
        <pt x="123" y="276" on="0"/>
        <pt x="143" y="280" on="1"/>
        <pt x="143" y="495" on="1"/>
        <pt x="544" y="495" on="1"/>
        <pt x="544" y="460" on="1"/>
        <pt x="393" y="460" on="1"/>
        <pt x="393" y="285" on="1"/>
        <pt x="600" y="285" on="1"/>
        <pt x="600" y="495" on="1"/>
      </contour>
      <contour>
        <pt x="191" y="250" on="1"/>
        <pt x="141" y="250" on="0"/>
        <pt x="84" y="196" on="0"/>
        <pt x="84" y="150" on="1"/>
        <pt x="84" y="97" on="0"/>
        <pt x="163" y="32" on="0"/>
        <pt x="226" y="32" on="1"/>
        <pt x="285" y="32" on="0"/>
        <pt x="351" y="96" on="0"/>
        <pt x="351" y="152" on="1"/>
        <pt x="351" y="250" on="1"/>
      </contour>
      <contour>
        <pt x="185" y="285" on="1"/>
        <pt x="351" y="285" on="1"/>
        <pt x="351" y="460" on="1"/>
        <pt x="185" y="460" on="1"/>
      </contour>
    </TTGlyph>
    <TTGlyph name="Fsmall" xMin="68" yMin="0" xMax="336" yMax="470">
      <contour>
        <pt x="336" y="470" on="1"/>
        <pt x="336" y="432" on="1"/>
        <pt x="116" y="432" on="1"/>
        <pt x="116" y="255" on="1"/>
        <pt x="318" y="255" on="1"/>
        <pt x="318" y="217" on="1"/>
        <pt x="116" y="217" on="1"/>
        <pt x="116" y="0" on="1"/>
        <pt x="68" y="0" on="1"/>
        <pt x="68" y="470" on="1"/>
      </contour>
    </TTGlyph>
    <TTGlyph name="G" xMin="45" yMin="-8" xMax="522" yMax="638">
      <contour>
        <pt x="348" y="638" on="1"/>
        <pt x="400" y="638" on="0"/>
        <pt x="481" y="622" on="0"/>
        <pt x="517" y="602" on="1"/>
        <pt x="504" y="560" on="1"/>
        <pt x="469" y="577" on="0"/>
        <pt x="397" y="596" on="0"/>
        <pt x="359" y="596" on="1"/>
        <pt x="308" y="596" on="0"/>
        <pt x="213" y="566" on="0"/>
        <pt x="140" y="499" on="0"/>
        <pt x="97" y="392" on="0"/>
        <pt x="97" y="314" on="1"/>
        <pt x="97" y="247" on="0"/>
        <pt x="138" y="143" on="0"/>
        <pt x="208" y="71" on="0"/>
        <pt x="304" y="34" on="0"/>
        <pt x="359" y="34" on="1"/>
        <pt x="398" y="34" on="0"/>
        <pt x="457" y="45" on="0"/>
        <pt x="470" y="52" on="1"/>
        <pt x="470" y="276" on="1"/>
        <pt x="335" y="276" on="1"/>
        <pt x="335" y="317" on="1"/>
        <pt x="522" y="317" on="1"/>
        <pt x="522" y="23" on="1"/>
        <pt x="489" y="9" on="0"/>
        <pt x="411" y="-8" on="0"/>
        <pt x="354" y="-8" on="1"/>
        <pt x="291" y="-8" on="0"/>
        <pt x="179" y="34" on="0"/>
        <pt x="94" y="115" on="0"/>
        <pt x="45" y="235" on="0"/>
        <pt x="45" y="314" on="1"/>
        <pt x="45" y="393" on="0"/>
        <pt x="91" y="515" on="0"/>
        <pt x="172" y="596" on="0"/>
        <pt x="283" y="638" on="0"/>
      </contour>
    </TTGlyph>
    <TTGlyph name="Gbreve" xMin="45" yMin="-8" xMax="522" yMax="846">
      <contour>
        <pt x="348" y="638" on="1"/>
        <pt x="400" y="638" on="0"/>
        <pt x="481" y="622" on="0"/>
        <pt x="517" y="602" on="1"/>
        <pt x="504" y="560" on="1"/>
        <pt x="469" y="577" on="0"/>
        <pt x="397" y="596" on="0"/>
        <pt x="359" y="596" on="1"/>
        <pt x="308" y="596" on="0"/>
        <pt x="213" y="566" on="0"/>
        <pt x="140" y="499" on="0"/>
        <pt x="97" y="392" on="0"/>
        <pt x="97" y="314" on="1"/>
        <pt x="97" y="247" on="0"/>
        <pt x="138" y="143" on="0"/>
        <pt x="208" y="71" on="0"/>
        <pt x="304" y="34" on="0"/>
        <pt x="359" y="34" on="1"/>
        <pt x="398" y="34" on="0"/>
        <pt x="457" y="45" on="0"/>
        <pt x="470" y="52" on="1"/>
        <pt x="470" y="276" on="1"/>
        <pt x="335" y="276" on="1"/>
        <pt x="335" y="317" on="1"/>
        <pt x="522" y="317" on="1"/>
        <pt x="522" y="23" on="1"/>
        <pt x="489" y="9" on="0"/>
        <pt x="411" y="-8" on="0"/>
        <pt x="354" y="-8" on="1"/>
        <pt x="291" y="-8" on="0"/>
        <pt x="179" y="34" on="0"/>
        <pt x="94" y="115" on="0"/>
        <pt x="45" y="235" on="0"/>
        <pt x="45" y="314" on="1"/>
        <pt x="45" y="393" on="0"/>
        <pt x="91" y="515" on="0"/>
        <pt x="172" y="596" on="0"/>
        <pt x="283" y="638" on="0"/>
      </contour>
      <contour>
        <pt x="261" y="846" on="1"/>
        <pt x="262" y="808" on="0"/>
        <pt x="302" y="762" on="0"/>
        <pt x="349" y="762" on="1"/>
        <pt x="388" y="762" on="0"/>
        <pt x="433" y="806" on="0"/>
        <pt x="434" y="846" on="1"/>
        <pt x="482" y="846" on="1"/>
        <pt x="482" y="792" on="0"/>
        <pt x="414" y="722" on="0"/>
        <pt x="349" y="722" on="1"/>
        <pt x="313" y="722" on="0"/>
        <pt x="262" y="742" on="0"/>
        <pt x="229" y="777" on="0"/>
        <pt x="213" y="822" on="0"/>
        <pt x="213" y="846" on="1"/>
      </contour>
    </TTGlyph>
    <TTGlyph name="Gcircumflex" xMin="45" yMin="-8" xMax="522" yMax="844">
      <contour>
        <pt x="348" y="638" on="1"/>
        <pt x="400" y="638" on="0"/>
        <pt x="481" y="622" on="0"/>
        <pt x="517" y="602" on="1"/>
        <pt x="504" y="560" on="1"/>
        <pt x="469" y="577" on="0"/>
        <pt x="397" y="596" on="0"/>
        <pt x="359" y="596" on="1"/>
        <pt x="308" y="596" on="0"/>
        <pt x="213" y="566" on="0"/>
        <pt x="140" y="499" on="0"/>
        <pt x="97" y="392" on="0"/>
        <pt x="97" y="314" on="1"/>
        <pt x="97" y="247" on="0"/>
        <pt x="138" y="143" on="0"/>
        <pt x="208" y="71" on="0"/>
        <pt x="304" y="34" on="0"/>
        <pt x="359" y="34" on="1"/>
        <pt x="398" y="34" on="0"/>
        <pt x="457" y="45" on="0"/>
        <pt x="470" y="52" on="1"/>
        <pt x="470" y="276" on="1"/>
        <pt x="335" y="276" on="1"/>
        <pt x="335" y="317" on="1"/>
        <pt x="522" y="317" on="1"/>
        <pt x="522" y="23" on="1"/>
        <pt x="489" y="9" on="0"/>
        <pt x="411" y="-8" on="0"/>
        <pt x="354" y="-8" on="1"/>
        <pt x="291" y="-8" on="0"/>
        <pt x="179" y="34" on="0"/>
        <pt x="94" y="115" on="0"/>
        <pt x="45" y="235" on="0"/>
        <pt x="45" y="314" on="1"/>
        <pt x="45" y="393" on="0"/>
        <pt x="91" y="515" on="0"/>
        <pt x="172" y="596" on="0"/>
        <pt x="283" y="638" on="0"/>
      </contour>
      <contour>
        <pt x="324" y="844" on="1"/>
        <pt x="373" y="844" on="1"/>
        <pt x="498" y="710" on="1"/>
        <pt x="438" y="710" on="1"/>
        <pt x="348" y="809" on="1"/>
        <pt x="258" y="710" on="1"/>
        <pt x="202" y="710" on="1"/>
      </contour>
    </TTGlyph>
    <TTGlyph name="Gcommaaccent" xMin="45" yMin="-303" xMax="522" yMax="638">
      <contour>
        <pt x="348" y="638" on="1"/>
        <pt x="400" y="638" on="0"/>
        <pt x="481" y="622" on="0"/>
        <pt x="517" y="602" on="1"/>
        <pt x="504" y="560" on="1"/>
        <pt x="469" y="577" on="0"/>
        <pt x="397" y="596" on="0"/>
        <pt x="359" y="596" on="1"/>
        <pt x="308" y="596" on="0"/>
        <pt x="213" y="566" on="0"/>
        <pt x="140" y="499" on="0"/>
        <pt x="97" y="392" on="0"/>
        <pt x="97" y="314" on="1"/>
        <pt x="97" y="247" on="0"/>
        <pt x="138" y="143" on="0"/>
        <pt x="208" y="71" on="0"/>
        <pt x="304" y="34" on="0"/>
        <pt x="359" y="34" on="1"/>
        <pt x="398" y="34" on="0"/>
        <pt x="457" y="45" on="0"/>
        <pt x="470" y="52" on="1"/>
        <pt x="470" y="276" on="1"/>
        <pt x="335" y="276" on="1"/>
        <pt x="335" y="317" on="1"/>
        <pt x="522" y="317" on="1"/>
        <pt x="522" y="23" on="1"/>
        <pt x="489" y="9" on="0"/>
        <pt x="411" y="-8" on="0"/>
        <pt x="354" y="-8" on="1"/>
        <pt x="291" y="-8" on="0"/>
        <pt x="179" y="34" on="0"/>
        <pt x="94" y="115" on="0"/>
        <pt x="45" y="235" on="0"/>
        <pt x="45" y="314" on="1"/>
        <pt x="45" y="393" on="0"/>
        <pt x="91" y="515" on="0"/>
        <pt x="172" y="596" on="0"/>
        <pt x="283" y="638" on="0"/>
      </contour>
      <contour>
        <pt x="348" y="-186" on="1"/>
        <pt x="331" y="-183" on="0"/>
        <pt x="308" y="-159" on="0"/>
        <pt x="308" y="-138" on="1"/>
        <pt x="308" y="-120" on="0"/>
        <pt x="331" y="-96" on="0"/>
        <pt x="349" y="-96" on="1"/>
        <pt x="365" y="-96" on="0"/>
        <pt x="397" y="-123" on="0"/>
        <pt x="397" y="-162" on="1"/>
        <pt x="397" y="-185" on="0"/>
        <pt x="381" y="-227" on="0"/>
        <pt x="354" y="-264" on="0"/>
        <pt x="319" y="-293" on="0"/>
        <pt x="300" y="-303" on="1"/>
        <pt x="280" y="-275" on="1"/>
        <pt x="310" y="-260" on="0"/>
        <pt x="348" y="-212" on="0"/>
        <pt x="353" y="-187" on="1"/>
      </contour>
    </TTGlyph>
    <TTGlyph name="Gdotaccent" xMin="45" yMin="-8" xMax="522" yMax="822">
      <contour>
        <pt x="348" y="638" on="1"/>
        <pt x="400" y="638" on="0"/>
        <pt x="481" y="622" on="0"/>
        <pt x="517" y="602" on="1"/>
        <pt x="504" y="560" on="1"/>
        <pt x="469" y="577" on="0"/>
        <pt x="397" y="596" on="0"/>
        <pt x="359" y="596" on="1"/>
        <pt x="308" y="596" on="0"/>
        <pt x="213" y="566" on="0"/>
        <pt x="140" y="499" on="0"/>
        <pt x="97" y="392" on="0"/>
        <pt x="97" y="314" on="1"/>
        <pt x="97" y="247" on="0"/>
        <pt x="138" y="143" on="0"/>
        <pt x="208" y="71" on="0"/>
        <pt x="304" y="34" on="0"/>
        <pt x="359" y="34" on="1"/>
        <pt x="398" y="34" on="0"/>
        <pt x="457" y="45" on="0"/>
        <pt x="470" y="52" on="1"/>
        <pt x="470" y="276" on="1"/>
        <pt x="335" y="276" on="1"/>
        <pt x="335" y="317" on="1"/>
        <pt x="522" y="317" on="1"/>
        <pt x="522" y="23" on="1"/>
        <pt x="489" y="9" on="0"/>
        <pt x="411" y="-8" on="0"/>
        <pt x="354" y="-8" on="1"/>
        <pt x="291" y="-8" on="0"/>
        <pt x="179" y="34" on="0"/>
        <pt x="94" y="115" on="0"/>
        <pt x="45" y="235" on="0"/>
        <pt x="45" y="314" on="1"/>
        <pt x="45" y="393" on="0"/>
        <pt x="91" y="515" on="0"/>
        <pt x="172" y="596" on="0"/>
        <pt x="283" y="638" on="0"/>
      </contour>
      <contour>
        <pt x="310" y="778" on="1"/>
        <pt x="310" y="798" on="0"/>
        <pt x="333" y="822" on="0"/>
        <pt x="350" y="822" on="1"/>
        <pt x="367" y="822" on="0"/>
        <pt x="390" y="798" on="0"/>
        <pt x="390" y="778" on="1"/>
        <pt x="390" y="757" on="0"/>
        <pt x="367" y="734" on="0"/>
        <pt x="350" y="734" on="1"/>
        <pt x="333" y="734" on="0"/>
        <pt x="310" y="757" on="0"/>
      </contour>
    </TTGlyph>
    <TTGlyph name="Gsmall" xMin="39" yMin="-8" xMax="424" yMax="476">
      <contour>
        <pt x="287" y="30" on="1"/>
        <pt x="311" y="30" on="0"/>
        <pt x="364" y="38" on="0"/>
        <pt x="381" y="46" on="1"/>
        <pt x="381" y="205" on="1"/>
        <pt x="265" y="205" on="1"/>
        <pt x="265" y="240" on="1"/>
        <pt x="424" y="240" on="1"/>
        <pt x="424" y="20" on="1"/>
        <pt x="395" y="6" on="0"/>
        <pt x="323" y="-8" on="0"/>
        <pt x="284" y="-8" on="1"/>
        <pt x="233" y="-8" on="0"/>
        <pt x="144" y="22" on="0"/>
        <pt x="78" y="82" on="0"/>
        <pt x="39" y="173" on="0"/>
        <pt x="39" y="234" on="1"/>
        <pt x="39" y="290" on="0"/>
        <pt x="75" y="380" on="0"/>
        <pt x="139" y="443" on="0"/>
        <pt x="228" y="476" on="0"/>
        <pt x="282" y="476" on="1"/>
        <pt x="313" y="476" on="0"/>
        <pt x="378" y="468" on="0"/>
        <pt x="407" y="455" on="1"/>
        <pt x="396" y="418" on="1"/>
        <pt x="370" y="428" on="0"/>
        <pt x="320" y="437" on="0"/>
        <pt x="287" y="437" on="1"/>
        <pt x="196" y="437" on="0"/>
        <pt x="89" y="333" on="0"/>
        <pt x="89" y="237" on="1"/>
        <pt x="89" y="177" on="0"/>
        <pt x="123" y="98" on="0"/>
        <pt x="178" y="50" on="0"/>
        <pt x="249" y="30" on="0"/>
      </contour>
    </TTGlyph>
    <TTGlyph name="H" xMin="80" yMin="0" xMax="523" yMax="630">
      <contour>
        <pt x="80" y="0" on="1"/>
        <pt x="80" y="630" on="1"/>
        <pt x="132" y="630" on="1"/>
        <pt x="132" y="347" on="1"/>
        <pt x="471" y="347" on="1"/>
        <pt x="471" y="630" on="1"/>
        <pt x="523" y="630" on="1"/>
        <pt x="523" y="0" on="1"/>
        <pt x="471" y="0" on="1"/>
        <pt x="471" y="305" on="1"/>
        <pt x="132" y="305" on="1"/>
        <pt x="132" y="0" on="1"/>
      </contour>
    </TTGlyph>
    <TTGlyph name="Ha.tm" xMin="36" yMin="-273" xMax="1261" yMax="499">
      <contour>
        <pt x="845" y="499" on="1"/>
        <pt x="869" y="499" on="0"/>
        <pt x="909" y="482" on="0"/>
        <pt x="939" y="457" on="0"/>
        <pt x="959" y="425" on="0"/>
        <pt x="962" y="410" on="1"/>
        <pt x="965" y="425" on="0"/>
        <pt x="983" y="457" on="0"/>
        <pt x="1012" y="482" on="0"/>
        <pt x="1054" y="499" on="0"/>
        <pt x="1081" y="499" on="1"/>
        <pt x="1115" y="499" on="0"/>
        <pt x="1179" y="467" on="0"/>
        <pt x="1230" y="395" on="0"/>
        <pt x="1261" y="282" on="0"/>
        <pt x="1261" y="201" on="1"/>
        <pt x="1261" y="43" on="0"/>
        <pt x="1114" y="-127" on="0"/>
        <pt x="967" y="-127" on="1"/>
        <pt x="145" y="-127" on="1"/>
        <pt x="114" y="-127" on="0"/>
        <pt x="80" y="-158" on="0"/>
        <pt x="80" y="-187" on="1"/>
        <pt x="80" y="-206" on="0"/>
        <pt x="95" y="-239" on="0"/>
        <pt x="103" y="-251" on="1"/>
        <pt x="70" y="-273" on="1"/>
        <pt x="56" y="-257" on="0"/>
        <pt x="36" y="-210" on="0"/>
        <pt x="36" y="-183" on="1"/>
        <pt x="36" y="-135" on="0"/>
        <pt x="92" y="-91" on="0"/>
        <pt x="142" y="-91" on="1"/>
        <pt x="963" y="-91" on="1"/>
        <pt x="1093" y="-91" on="0"/>
        <pt x="1214" y="61" on="0"/>
        <pt x="1214" y="204" on="1"/>
        <pt x="1214" y="274" on="0"/>
        <pt x="1191" y="372" on="0"/>
        <pt x="1152" y="434" on="0"/>
        <pt x="1103" y="462" on="0"/>
        <pt x="1076" y="462" on="1"/>
        <pt x="1034" y="462" on="0"/>
        <pt x="984" y="404" on="0"/>
        <pt x="984" y="347" on="1"/>
        <pt x="984" y="0" on="1"/>
        <pt x="940" y="0" on="1"/>
        <pt x="940" y="343" on="1"/>
        <pt x="940" y="397" on="0"/>
        <pt x="888" y="462" on="0"/>
        <pt x="845" y="462" on="1"/>
        <pt x="800" y="462" on="0"/>
        <pt x="751" y="403" on="0"/>
        <pt x="751" y="348" on="1"/>
        <pt x="751" y="0" on="1"/>
        <pt x="477" y="0" on="1"/>
        <pt x="460" y="33" on="1"/>
        <pt x="492" y="72" on="0"/>
        <pt x="526" y="174" on="0"/>
        <pt x="526" y="234" on="1"/>
        <pt x="526" y="286" on="0"/>
        <pt x="496" y="371" on="0"/>
        <pt x="441" y="429" on="0"/>
        <pt x="363" y="461" on="0"/>
        <pt x="315" y="461" on="1"/>
        <pt x="266" y="461" on="0"/>
        <pt x="185" y="425" on="0"/>
        <pt x="127" y="361" on="0"/>
        <pt x="95" y="271" on="0"/>
        <pt x="95" y="217" on="1"/>
        <pt x="95" y="198" on="1"/>
        <pt x="113" y="238" on="0"/>
        <pt x="181" y="285" on="0"/>
        <pt x="224" y="285" on="1"/>
        <pt x="254" y="285" on="0"/>
        <pt x="307" y="263" on="0"/>
        <pt x="345" y="225" on="0"/>
        <pt x="367" y="173" on="0"/>
        <pt x="367" y="143" on="1"/>
        <pt x="367" y="111" on="0"/>
        <pt x="345" y="56" on="0"/>
        <pt x="305" y="17" on="0"/>
        <pt x="251" y="-5" on="0"/>
        <pt x="218" y="-5" on="1"/>
        <pt x="182" y="-5" on="0"/>
        <pt x="122" y="24" on="0"/>
        <pt x="78" y="80" on="0"/>
        <pt x="54" y="162" on="0"/>
        <pt x="54" y="214" on="1"/>
        <pt x="54" y="278" on="0"/>
        <pt x="93" y="383" on="0"/>
        <pt x="163" y="458" on="0"/>
        <pt x="261" y="499" on="0"/>
        <pt x="320" y="499" on="1"/>
        <pt x="375" y="499" on="0"/>
        <pt x="467" y="460" on="0"/>
        <pt x="534" y="390" on="0"/>
        <pt x="572" y="294" on="0"/>
        <pt x="572" y="237" on="1"/>
        <pt x="572" y="164" on="0"/>
        <pt x="535" y="62" on="0"/>
        <pt x="517" y="36" on="1"/>
        <pt x="707" y="36" on="1"/>
        <pt x="707" y="343" on="1"/>
        <pt x="707" y="421" on="0"/>
        <pt x="781" y="499" on="0"/>
      </contour>
      <contour>
        <pt x="216" y="249" on="1"/>
        <pt x="194" y="249" on="0"/>
        <pt x="156" y="231" on="0"/>
        <pt x="126" y="201" on="0"/>
        <pt x="106" y="160" on="0"/>
        <pt x="103" y="138" on="1"/>
        <pt x="115" y="82" on="0"/>
        <pt x="180" y="31" on="0"/>
        <pt x="218" y="31" on="1"/>
        <pt x="265" y="31" on="0"/>
        <pt x="323" y="90" on="0"/>
        <pt x="323" y="141" on="1"/>
        <pt x="323" y="190" on="0"/>
        <pt x="265" y="249" on="0"/>
      </contour>
    </TTGlyph>
    <TTGlyph name="HaMatraI.tm" xMin="36" yMin="-273" xMax="1439" yMax="736">
      <contour>
        <pt x="216" y="249" on="1"/>
        <pt x="194" y="249" on="0"/>
        <pt x="156" y="231" on="0"/>
        <pt x="126" y="201" on="0"/>
        <pt x="106" y="160" on="0"/>
        <pt x="103" y="138" on="1"/>
        <pt x="115" y="82" on="0"/>
        <pt x="180" y="31" on="0"/>
        <pt x="218" y="31" on="1"/>
        <pt x="265" y="31" on="0"/>
        <pt x="323" y="90" on="0"/>
        <pt x="323" y="141" on="1"/>
        <pt x="323" y="190" on="0"/>
        <pt x="265" y="249" on="0"/>
      </contour>
      <contour>
        <pt x="1261" y="201" on="1"/>
        <pt x="1261" y="43" on="0"/>
        <pt x="1114" y="-127" on="0"/>
        <pt x="967" y="-127" on="1"/>
        <pt x="145" y="-127" on="1"/>
        <pt x="114" y="-127" on="0"/>
        <pt x="80" y="-158" on="0"/>
        <pt x="80" y="-187" on="1"/>
        <pt x="80" y="-206" on="0"/>
        <pt x="95" y="-239" on="0"/>
        <pt x="103" y="-251" on="1"/>
        <pt x="70" y="-273" on="1"/>
        <pt x="56" y="-257" on="0"/>
        <pt x="36" y="-210" on="0"/>
        <pt x="36" y="-183" on="1"/>
        <pt x="36" y="-135" on="0"/>
        <pt x="92" y="-91" on="0"/>
        <pt x="142" y="-91" on="1"/>
        <pt x="963" y="-91" on="1"/>
        <pt x="1093" y="-91" on="0"/>
        <pt x="1214" y="61" on="0"/>
        <pt x="1214" y="204" on="1"/>
        <pt x="1214" y="274" on="0"/>
        <pt x="1191" y="372" on="0"/>
        <pt x="1152" y="434" on="0"/>
        <pt x="1103" y="462" on="0"/>
        <pt x="1076" y="462" on="1"/>
        <pt x="1034" y="462" on="0"/>
        <pt x="984" y="404" on="0"/>
        <pt x="984" y="347" on="1"/>
        <pt x="984" y="0" on="1"/>
        <pt x="940" y="0" on="1"/>
        <pt x="940" y="343" on="1"/>
        <pt x="940" y="397" on="0"/>
        <pt x="888" y="462" on="0"/>
        <pt x="845" y="462" on="1"/>
        <pt x="800" y="462" on="0"/>
        <pt x="751" y="403" on="0"/>
        <pt x="751" y="348" on="1"/>
        <pt x="751" y="0" on="1"/>
        <pt x="477" y="0" on="1"/>
        <pt x="460" y="33" on="1"/>
        <pt x="492" y="72" on="0"/>
        <pt x="526" y="174" on="0"/>
        <pt x="526" y="234" on="1"/>
        <pt x="526" y="286" on="0"/>
        <pt x="496" y="371" on="0"/>
        <pt x="441" y="429" on="0"/>
        <pt x="363" y="461" on="0"/>
        <pt x="315" y="461" on="1"/>
        <pt x="266" y="461" on="0"/>
        <pt x="185" y="425" on="0"/>
        <pt x="127" y="361" on="0"/>
        <pt x="95" y="271" on="0"/>
        <pt x="95" y="217" on="1"/>
        <pt x="95" y="198" on="1"/>
        <pt x="113" y="238" on="0"/>
        <pt x="181" y="285" on="0"/>
        <pt x="224" y="285" on="1"/>
        <pt x="254" y="285" on="0"/>
        <pt x="307" y="263" on="0"/>
        <pt x="345" y="225" on="0"/>
        <pt x="367" y="173" on="0"/>
        <pt x="367" y="143" on="1"/>
        <pt x="367" y="111" on="0"/>
        <pt x="345" y="56" on="0"/>
        <pt x="305" y="17" on="0"/>
        <pt x="251" y="-5" on="0"/>
        <pt x="218" y="-5" on="1"/>
        <pt x="182" y="-5" on="0"/>
        <pt x="122" y="24" on="0"/>
        <pt x="78" y="80" on="0"/>
        <pt x="54" y="162" on="0"/>
        <pt x="54" y="214" on="1"/>
        <pt x="54" y="278" on="0"/>
        <pt x="93" y="383" on="0"/>
        <pt x="163" y="458" on="0"/>
        <pt x="261" y="499" on="0"/>
        <pt x="320" y="499" on="1"/>
        <pt x="375" y="499" on="0"/>
        <pt x="467" y="460" on="0"/>
        <pt x="534" y="390" on="0"/>
        <pt x="572" y="294" on="0"/>
        <pt x="572" y="237" on="1"/>
        <pt x="572" y="164" on="0"/>
        <pt x="535" y="62" on="0"/>
        <pt x="517" y="36" on="1"/>
        <pt x="707" y="36" on="1"/>
        <pt x="707" y="343" on="1"/>
        <pt x="707" y="421" on="0"/>
        <pt x="781" y="499" on="0"/>
        <pt x="845" y="499" on="1"/>
        <pt x="869" y="499" on="0"/>
        <pt x="909" y="482" on="0"/>
        <pt x="939" y="457" on="0"/>
        <pt x="959" y="425" on="0"/>
        <pt x="962" y="410" on="1"/>
        <pt x="965" y="425" on="0"/>
        <pt x="983" y="455" on="0"/>
        <pt x="1012" y="481" on="0"/>
        <pt x="1054" y="497" on="0"/>
        <pt x="1081" y="497" on="1"/>
        <pt x="1102" y="497" on="0"/>
        <pt x="1128" y="489" on="1"/>
        <pt x="1114" y="509" on="0"/>
        <pt x="1099" y="559" on="0"/>
        <pt x="1099" y="588" on="1"/>
        <pt x="1099" y="621" on="0"/>
        <pt x="1123" y="676" on="0"/>
        <pt x="1166" y="715" on="0"/>
        <pt x="1227" y="736" on="0"/>
        <pt x="1264" y="736" on="1"/>
        <pt x="1344" y="736" on="0"/>
        <pt x="1439" y="635" on="0"/>
        <pt x="1439" y="543" on="1"/>
        <pt x="1439" y="0" on="1"/>
        <pt x="1396" y="0" on="1"/>
        <pt x="1396" y="537" on="1"/>
        <pt x="1396" y="616" on="0"/>
        <pt x="1326" y="699" on="0"/>
        <pt x="1260" y="699" on="1"/>
        <pt x="1206" y="699" on="0"/>
        <pt x="1142" y="638" on="0"/>
        <pt x="1142" y="584" on="1"/>
        <pt x="1142" y="545" on="0"/>
        <pt x="1173" y="476" on="0"/>
        <pt x="1199" y="435" on="1"/>
        <pt x="1223" y="398" on="0"/>
        <pt x="1261" y="286" on="0"/>
      </contour>
    </TTGlyph>
    <TTGlyph name="HaMatraIi.tm" xMin="36" yMin="-273" xMax="1386" yMax="776">
      <contour>
        <pt x="1237" y="776" on="1"/>
        <pt x="1306" y="776" on="0"/>
        <pt x="1386" y="713" on="0"/>
        <pt x="1386" y="662" on="1"/>
        <pt x="1386" y="617" on="0"/>
        <pt x="1328" y="561" on="0"/>
        <pt x="1280" y="561" on="1"/>
        <pt x="1235" y="561" on="0"/>
        <pt x="1179" y="615" on="0"/>
        <pt x="1179" y="657" on="1"/>
        <pt x="1179" y="687" on="0"/>
        <pt x="1207" y="732" on="0"/>
        <pt x="1229" y="745" on="1"/>
        <pt x="1203" y="745" on="0"/>
        <pt x="1156" y="725" on="0"/>
        <pt x="1120" y="691" on="0"/>
        <pt x="1099" y="641" on="0"/>
        <pt x="1099" y="611" on="1"/>
        <pt x="1099" y="564" on="0"/>
        <pt x="1145" y="494" on="0"/>
        <pt x="1173" y="464" on="1"/>
        <pt x="1173" y="462" on="0"/>
        <pt x="1175" y="462" on="1"/>
        <pt x="1192" y="444" on="0"/>
        <pt x="1223" y="398" on="0"/>
        <pt x="1247" y="336" on="0"/>
        <pt x="1261" y="254" on="0"/>
        <pt x="1261" y="201" on="1"/>
        <pt x="1261" y="43" on="0"/>
        <pt x="1114" y="-127" on="0"/>
        <pt x="967" y="-127" on="1"/>
        <pt x="145" y="-127" on="1"/>
        <pt x="114" y="-127" on="0"/>
        <pt x="80" y="-158" on="0"/>
        <pt x="80" y="-187" on="1"/>
        <pt x="80" y="-206" on="0"/>
        <pt x="95" y="-239" on="0"/>
        <pt x="103" y="-251" on="1"/>
        <pt x="70" y="-273" on="1"/>
        <pt x="56" y="-257" on="0"/>
        <pt x="36" y="-210" on="0"/>
        <pt x="36" y="-183" on="1"/>
        <pt x="36" y="-135" on="0"/>
        <pt x="92" y="-91" on="0"/>
        <pt x="142" y="-91" on="1"/>
        <pt x="963" y="-91" on="1"/>
        <pt x="1093" y="-91" on="0"/>
        <pt x="1214" y="61" on="0"/>
        <pt x="1214" y="204" on="1"/>
        <pt x="1214" y="274" on="0"/>
        <pt x="1191" y="372" on="0"/>
        <pt x="1152" y="434" on="0"/>
        <pt x="1102" y="462" on="0"/>
        <pt x="1076" y="462" on="1"/>
        <pt x="1034" y="462" on="0"/>
        <pt x="984" y="404" on="0"/>
        <pt x="984" y="347" on="1"/>
        <pt x="984" y="0" on="1"/>
        <pt x="940" y="0" on="1"/>
        <pt x="940" y="343" on="1"/>
        <pt x="940" y="397" on="0"/>
        <pt x="888" y="462" on="0"/>
        <pt x="845" y="462" on="1"/>
        <pt x="800" y="462" on="0"/>
        <pt x="751" y="403" on="0"/>
        <pt x="751" y="348" on="1"/>
        <pt x="751" y="0" on="1"/>
        <pt x="477" y="0" on="1"/>
        <pt x="460" y="33" on="1"/>
        <pt x="492" y="72" on="0"/>
        <pt x="526" y="174" on="0"/>
        <pt x="526" y="234" on="1"/>
        <pt x="526" y="286" on="0"/>
        <pt x="496" y="371" on="0"/>
        <pt x="441" y="429" on="0"/>
        <pt x="363" y="461" on="0"/>
        <pt x="315" y="461" on="1"/>
        <pt x="266" y="461" on="0"/>
        <pt x="185" y="425" on="0"/>
        <pt x="127" y="361" on="0"/>
        <pt x="95" y="271" on="0"/>
        <pt x="95" y="217" on="1"/>
        <pt x="95" y="198" on="1"/>
        <pt x="113" y="238" on="0"/>
        <pt x="181" y="285" on="0"/>
        <pt x="224" y="285" on="1"/>
        <pt x="254" y="285" on="0"/>
        <pt x="307" y="263" on="0"/>
        <pt x="345" y="225" on="0"/>
        <pt x="367" y="173" on="0"/>
        <pt x="367" y="143" on="1"/>
        <pt x="367" y="111" on="0"/>
        <pt x="345" y="56" on="0"/>
        <pt x="305" y="17" on="0"/>
        <pt x="251" y="-5" on="0"/>
        <pt x="218" y="-5" on="1"/>
        <pt x="182" y="-5" on="0"/>
        <pt x="122" y="24" on="0"/>
        <pt x="78" y="80" on="0"/>
        <pt x="54" y="162" on="0"/>
        <pt x="54" y="214" on="1"/>
        <pt x="54" y="278" on="0"/>
        <pt x="93" y="383" on="0"/>
        <pt x="163" y="458" on="0"/>
        <pt x="261" y="499" on="0"/>
        <pt x="320" y="499" on="1"/>
        <pt x="375" y="499" on="0"/>
        <pt x="467" y="460" on="0"/>
        <pt x="534" y="390" on="0"/>
        <pt x="572" y="294" on="0"/>
        <pt x="572" y="237" on="1"/>
        <pt x="572" y="164" on="0"/>
        <pt x="535" y="62" on="0"/>
        <pt x="517" y="36" on="1"/>
        <pt x="707" y="36" on="1"/>
        <pt x="707" y="343" on="1"/>
        <pt x="707" y="421" on="0"/>
        <pt x="781" y="499" on="0"/>
        <pt x="845" y="499" on="1"/>
        <pt x="869" y="499" on="0"/>
        <pt x="909" y="482" on="0"/>
        <pt x="939" y="457" on="0"/>
        <pt x="959" y="425" on="0"/>
        <pt x="962" y="410" on="1"/>
        <pt x="965" y="425" on="0"/>
        <pt x="983" y="455" on="0"/>
        <pt x="1012" y="481" on="0"/>
        <pt x="1054" y="497" on="0"/>
        <pt x="1081" y="497" on="1"/>
        <pt x="1086" y="497" on="0"/>
        <pt x="1097" y="496" on="0"/>
        <pt x="1102" y="495" on="1"/>
        <pt x="1079" y="520" on="0"/>
        <pt x="1055" y="582" on="0"/>
        <pt x="1055" y="613" on="1"/>
        <pt x="1055" y="650" on="0"/>
        <pt x="1081" y="710" on="0"/>
        <pt x="1129" y="753" on="0"/>
        <pt x="1196" y="776" on="0"/>
      </contour>
      <contour>
        <pt x="216" y="249" on="1"/>
        <pt x="194" y="249" on="0"/>
        <pt x="156" y="231" on="0"/>
        <pt x="126" y="201" on="0"/>
        <pt x="106" y="160" on="0"/>
        <pt x="103" y="138" on="1"/>
        <pt x="115" y="82" on="0"/>
        <pt x="180" y="31" on="0"/>
        <pt x="218" y="31" on="1"/>
        <pt x="265" y="31" on="0"/>
        <pt x="323" y="90" on="0"/>
        <pt x="323" y="141" on="1"/>
        <pt x="323" y="190" on="0"/>
        <pt x="265" y="249" on="0"/>
      </contour>
      <contour>
        <pt x="1344" y="662" on="1"/>
        <pt x="1344" y="696" on="0"/>
        <pt x="1304" y="736" on="0"/>
        <pt x="1274" y="739" on="1"/>
        <pt x="1251" y="731" on="0"/>
        <pt x="1219" y="689" on="0"/>
        <pt x="1219" y="660" on="1"/>
        <pt x="1219" y="631" on="0"/>
        <pt x="1253" y="596" on="0"/>
        <pt x="1282" y="596" on="1"/>
        <pt x="1310" y="596" on="0"/>
        <pt x="1344" y="632" on="0"/>
      </contour>
    </TTGlyph>
    <TTGlyph name="HaMatraU.tm" xMin="36" yMin="-273" xMax="1550" yMax="499">
      <contour>
        <pt x="823" y="499" on="1"/>
        <pt x="847" y="499" on="0"/>
        <pt x="887" y="482" on="0"/>
        <pt x="917" y="457" on="0"/>
        <pt x="937" y="425" on="0"/>
        <pt x="940" y="410" on="1"/>
        <pt x="943" y="424" on="0"/>
        <pt x="961" y="454" on="0"/>
        <pt x="990" y="479" on="0"/>
        <pt x="1032" y="495" on="0"/>
        <pt x="1059" y="495" on="1"/>
        <pt x="1401" y="495" on="1"/>
        <pt x="1471" y="495" on="0"/>
        <pt x="1550" y="429" on="0"/>
        <pt x="1550" y="373" on="1"/>
        <pt x="1550" y="324" on="0"/>
        <pt x="1488" y="263" on="0"/>
        <pt x="1437" y="263" on="1"/>
        <pt x="1389" y="263" on="0"/>
        <pt x="1326" y="321" on="0"/>
        <pt x="1326" y="370" on="1"/>
        <pt x="1326" y="399" on="0"/>
        <pt x="1350" y="444" on="0"/>
        <pt x="1372" y="459" on="1"/>
        <pt x="1146" y="459" on="1"/>
        <pt x="1187" y="427" on="0"/>
        <pt x="1239" y="302" on="0"/>
        <pt x="1239" y="201" on="1"/>
        <pt x="1239" y="43" on="0"/>
        <pt x="1092" y="-127" on="0"/>
        <pt x="945" y="-127" on="1"/>
        <pt x="145" y="-127" on="1"/>
        <pt x="114" y="-127" on="0"/>
        <pt x="80" y="-158" on="0"/>
        <pt x="80" y="-187" on="1"/>
        <pt x="80" y="-206" on="0"/>
        <pt x="95" y="-239" on="0"/>
        <pt x="103" y="-251" on="1"/>
        <pt x="70" y="-273" on="1"/>
        <pt x="56" y="-257" on="0"/>
        <pt x="36" y="-210" on="0"/>
        <pt x="36" y="-183" on="1"/>
        <pt x="36" y="-135" on="0"/>
        <pt x="92" y="-91" on="0"/>
        <pt x="142" y="-91" on="1"/>
        <pt x="941" y="-91" on="1"/>
        <pt x="1071" y="-91" on="0"/>
        <pt x="1192" y="61" on="0"/>
        <pt x="1192" y="204" on="1"/>
        <pt x="1192" y="274" on="0"/>
        <pt x="1169" y="371" on="0"/>
        <pt x="1130" y="432" on="0"/>
        <pt x="1081" y="460" on="0"/>
        <pt x="1054" y="460" on="1"/>
        <pt x="1012" y="460" on="0"/>
        <pt x="962" y="402" on="0"/>
        <pt x="962" y="346" on="1"/>
        <pt x="962" y="0" on="1"/>
        <pt x="918" y="0" on="1"/>
        <pt x="918" y="343" on="1"/>
        <pt x="918" y="397" on="0"/>
        <pt x="866" y="462" on="0"/>
        <pt x="823" y="462" on="1"/>
        <pt x="778" y="462" on="0"/>
        <pt x="729" y="403" on="0"/>
        <pt x="729" y="348" on="1"/>
        <pt x="729" y="0" on="1"/>
        <pt x="477" y="0" on="1"/>
        <pt x="460" y="33" on="1"/>
        <pt x="492" y="72" on="0"/>
        <pt x="526" y="174" on="0"/>
        <pt x="526" y="234" on="1"/>
        <pt x="526" y="286" on="0"/>
        <pt x="496" y="371" on="0"/>
        <pt x="441" y="429" on="0"/>
        <pt x="363" y="461" on="0"/>
        <pt x="315" y="461" on="1"/>
        <pt x="266" y="461" on="0"/>
        <pt x="185" y="425" on="0"/>
        <pt x="127" y="361" on="0"/>
        <pt x="95" y="271" on="0"/>
        <pt x="95" y="217" on="1"/>
        <pt x="95" y="198" on="1"/>
        <pt x="113" y="238" on="0"/>
        <pt x="181" y="285" on="0"/>
        <pt x="224" y="285" on="1"/>
        <pt x="254" y="285" on="0"/>
        <pt x="307" y="263" on="0"/>
        <pt x="345" y="225" on="0"/>
        <pt x="367" y="173" on="0"/>
        <pt x="367" y="143" on="1"/>
        <pt x="367" y="111" on="0"/>
        <pt x="345" y="56" on="0"/>
        <pt x="305" y="17" on="0"/>
        <pt x="251" y="-5" on="0"/>
        <pt x="218" y="-5" on="1"/>
        <pt x="182" y="-5" on="0"/>
        <pt x="122" y="24" on="0"/>
        <pt x="78" y="80" on="0"/>
        <pt x="54" y="162" on="0"/>
        <pt x="54" y="214" on="1"/>
        <pt x="54" y="278" on="0"/>
        <pt x="93" y="383" on="0"/>
        <pt x="163" y="458" on="0"/>
        <pt x="261" y="499" on="0"/>
        <pt x="320" y="499" on="1"/>
        <pt x="375" y="499" on="0"/>
        <pt x="467" y="460" on="0"/>
        <pt x="534" y="390" on="0"/>
        <pt x="572" y="294" on="0"/>
        <pt x="572" y="237" on="1"/>
        <pt x="572" y="164" on="0"/>
        <pt x="535" y="62" on="0"/>
        <pt x="517" y="36" on="1"/>
        <pt x="685" y="36" on="1"/>
        <pt x="685" y="343" on="1"/>
        <pt x="685" y="421" on="0"/>
        <pt x="759" y="499" on="0"/>
      </contour>
      <contour>
        <pt x="216" y="249" on="1"/>
        <pt x="194" y="249" on="0"/>
        <pt x="156" y="231" on="0"/>
        <pt x="126" y="201" on="0"/>
        <pt x="106" y="160" on="0"/>
        <pt x="103" y="138" on="1"/>
        <pt x="115" y="82" on="0"/>
        <pt x="180" y="31" on="0"/>
        <pt x="218" y="31" on="1"/>
        <pt x="265" y="31" on="0"/>
        <pt x="323" y="90" on="0"/>
        <pt x="323" y="141" on="1"/>
        <pt x="323" y="190" on="0"/>
        <pt x="265" y="249" on="0"/>
      </contour>
      <contour>
        <pt x="1507" y="373" on="1"/>
        <pt x="1507" y="411" on="0"/>
        <pt x="1463" y="454" on="0"/>
        <pt x="1433" y="457" on="1"/>
        <pt x="1403" y="450" on="0"/>
        <pt x="1368" y="400" on="0"/>
        <pt x="1368" y="371" on="1"/>
        <pt x="1368" y="338" on="0"/>
        <pt x="1407" y="299" on="0"/>
        <pt x="1439" y="299" on="1"/>
        <pt x="1469" y="299" on="0"/>
        <pt x="1507" y="339" on="0"/>
      </contour>
    </TTGlyph>
    <TTGlyph name="HaMatraUu.tm" xMin="36" yMin="-273" xMax="1737" yMax="616">
      <contour>
        <pt x="1532" y="616" on="1"/>
        <pt x="1579" y="616" on="0"/>
        <pt x="1655" y="585" on="0"/>
        <pt x="1708" y="530" on="0"/>
        <pt x="1737" y="454" on="0"/>
        <pt x="1737" y="410" on="1"/>
        <pt x="1737" y="329" on="0"/>
        <pt x="1653" y="211" on="0"/>
        <pt x="1578" y="179" on="1"/>
        <pt x="1560" y="218" on="1"/>
        <pt x="1621" y="244" on="0"/>
        <pt x="1691" y="347" on="0"/>
        <pt x="1691" y="410" on="1"/>
        <pt x="1691" y="485" on="0"/>
        <pt x="1609" y="578" on="0"/>
        <pt x="1528" y="578" on="1"/>
        <pt x="1477" y="578" on="0"/>
        <pt x="1398" y="531" on="0"/>
        <pt x="1382" y="494" on="1"/>
        <pt x="1408" y="494" on="1"/>
        <pt x="1477" y="494" on="0"/>
        <pt x="1546" y="430" on="0"/>
        <pt x="1546" y="383" on="1"/>
        <pt x="1546" y="339" on="0"/>
        <pt x="1485" y="281" on="0"/>
        <pt x="1433" y="281" on="1"/>
        <pt x="1382" y="281" on="0"/>
        <pt x="1321" y="348" on="0"/>
        <pt x="1321" y="403" on="1"/>
        <pt x="1321" y="418" on="0"/>
        <pt x="1325" y="449" on="0"/>
        <pt x="1328" y="460" on="1"/>
        <pt x="1144" y="460" on="1"/>
        <pt x="1186" y="429" on="0"/>
        <pt x="1239" y="303" on="0"/>
        <pt x="1239" y="201" on="1"/>
        <pt x="1239" y="43" on="0"/>
        <pt x="1092" y="-127" on="0"/>
        <pt x="945" y="-127" on="1"/>
        <pt x="145" y="-127" on="1"/>
        <pt x="114" y="-127" on="0"/>
        <pt x="80" y="-158" on="0"/>
        <pt x="80" y="-187" on="1"/>
        <pt x="80" y="-206" on="0"/>
        <pt x="95" y="-239" on="0"/>
        <pt x="103" y="-251" on="1"/>
        <pt x="70" y="-273" on="1"/>
        <pt x="56" y="-257" on="0"/>
        <pt x="36" y="-210" on="0"/>
        <pt x="36" y="-183" on="1"/>
        <pt x="36" y="-135" on="0"/>
        <pt x="92" y="-91" on="0"/>
        <pt x="142" y="-91" on="1"/>
        <pt x="941" y="-91" on="1"/>
        <pt x="1071" y="-91" on="0"/>
        <pt x="1192" y="61" on="0"/>
        <pt x="1192" y="204" on="1"/>
        <pt x="1192" y="274" on="0"/>
        <pt x="1169" y="371" on="0"/>
        <pt x="1130" y="432" on="0"/>
        <pt x="1081" y="460" on="0"/>
        <pt x="1054" y="460" on="1"/>
        <pt x="1012" y="460" on="0"/>
        <pt x="962" y="402" on="0"/>
        <pt x="962" y="346" on="1"/>
        <pt x="962" y="0" on="1"/>
        <pt x="918" y="0" on="1"/>
        <pt x="918" y="343" on="1"/>
        <pt x="918" y="397" on="0"/>
        <pt x="866" y="462" on="0"/>
        <pt x="823" y="462" on="1"/>
        <pt x="778" y="462" on="0"/>
        <pt x="729" y="403" on="0"/>
        <pt x="729" y="348" on="1"/>
        <pt x="729" y="0" on="1"/>
        <pt x="477" y="0" on="1"/>
        <pt x="460" y="33" on="1"/>
        <pt x="492" y="72" on="0"/>
        <pt x="526" y="174" on="0"/>
        <pt x="526" y="234" on="1"/>
        <pt x="526" y="286" on="0"/>
        <pt x="496" y="371" on="0"/>
        <pt x="441" y="429" on="0"/>
        <pt x="363" y="461" on="0"/>
        <pt x="315" y="461" on="1"/>
        <pt x="266" y="461" on="0"/>
        <pt x="185" y="425" on="0"/>
        <pt x="127" y="361" on="0"/>
        <pt x="95" y="271" on="0"/>
        <pt x="95" y="217" on="1"/>
        <pt x="95" y="198" on="1"/>
        <pt x="113" y="238" on="0"/>
        <pt x="181" y="285" on="0"/>
        <pt x="224" y="285" on="1"/>
        <pt x="254" y="285" on="0"/>
        <pt x="307" y="263" on="0"/>
        <pt x="345" y="225" on="0"/>
        <pt x="367" y="173" on="0"/>
        <pt x="367" y="143" on="1"/>
        <pt x="367" y="111" on="0"/>
        <pt x="345" y="56" on="0"/>
        <pt x="305" y="17" on="0"/>
        <pt x="251" y="-5" on="0"/>
        <pt x="218" y="-5" on="1"/>
        <pt x="182" y="-5" on="0"/>
        <pt x="122" y="24" on="0"/>
        <pt x="78" y="80" on="0"/>
        <pt x="54" y="162" on="0"/>
        <pt x="54" y="214" on="1"/>
        <pt x="54" y="278" on="0"/>
        <pt x="93" y="383" on="0"/>
        <pt x="163" y="458" on="0"/>
        <pt x="261" y="499" on="0"/>
        <pt x="320" y="499" on="1"/>
        <pt x="375" y="499" on="0"/>
        <pt x="467" y="460" on="0"/>
        <pt x="534" y="390" on="0"/>
        <pt x="572" y="294" on="0"/>
        <pt x="572" y="237" on="1"/>
        <pt x="572" y="164" on="0"/>
        <pt x="535" y="62" on="0"/>
        <pt x="517" y="36" on="1"/>
        <pt x="685" y="36" on="1"/>
        <pt x="685" y="343" on="1"/>
        <pt x="685" y="421" on="0"/>
        <pt x="759" y="499" on="0"/>
        <pt x="823" y="499" on="1"/>
        <pt x="847" y="499" on="0"/>
        <pt x="887" y="482" on="0"/>
        <pt x="917" y="457" on="0"/>
        <pt x="937" y="425" on="0"/>
        <pt x="940" y="410" on="1"/>
        <pt x="943" y="424" on="0"/>
        <pt x="961" y="454" on="0"/>
        <pt x="990" y="479" on="0"/>
        <pt x="1032" y="495" on="0"/>
        <pt x="1059" y="495" on="1"/>
        <pt x="1340" y="495" on="1"/>
        <pt x="1349" y="516" on="0"/>
        <pt x="1381" y="559" on="0"/>
        <pt x="1429" y="594" on="0"/>
        <pt x="1492" y="616" on="0"/>
      </contour>
      <contour>
        <pt x="216" y="249" on="1"/>
        <pt x="194" y="249" on="0"/>
        <pt x="156" y="231" on="0"/>
        <pt x="126" y="201" on="0"/>
        <pt x="106" y="160" on="0"/>
        <pt x="103" y="138" on="1"/>
        <pt x="115" y="82" on="0"/>
        <pt x="180" y="31" on="0"/>
        <pt x="218" y="31" on="1"/>
        <pt x="265" y="31" on="0"/>
        <pt x="323" y="90" on="0"/>
        <pt x="323" y="141" on="1"/>
        <pt x="323" y="190" on="0"/>
        <pt x="265" y="249" on="0"/>
      </contour>
      <contour>
        <pt x="1371" y="459" on="1"/>
        <pt x="1368" y="448" on="0"/>
        <pt x="1364" y="422" on="0"/>
        <pt x="1364" y="406" on="1"/>
        <pt x="1364" y="364" on="0"/>
        <pt x="1402" y="317" on="0"/>
        <pt x="1437" y="317" on="1"/>
        <pt x="1467" y="317" on="0"/>
        <pt x="1503" y="354" on="0"/>
        <pt x="1503" y="383" on="1"/>
        <pt x="1503" y="421" on="0"/>
        <pt x="1450" y="459" on="0"/>
        <pt x="1403" y="459" on="1"/>
      </contour>
    </TTGlyph>
    <TTGlyph name="HaPulli.tm" xMin="36" yMin="-273" xMax="1261" yMax="691">
      <contour>
        <pt x="845" y="499" on="1"/>
        <pt x="869" y="499" on="0"/>
        <pt x="909" y="482" on="0"/>
        <pt x="939" y="457" on="0"/>
        <pt x="959" y="425" on="0"/>
        <pt x="962" y="410" on="1"/>
        <pt x="965" y="425" on="0"/>
        <pt x="983" y="457" on="0"/>
        <pt x="1012" y="482" on="0"/>
        <pt x="1054" y="499" on="0"/>
        <pt x="1081" y="499" on="1"/>
        <pt x="1115" y="499" on="0"/>
        <pt x="1179" y="467" on="0"/>
        <pt x="1230" y="395" on="0"/>
        <pt x="1261" y="282" on="0"/>
        <pt x="1261" y="201" on="1"/>
        <pt x="1261" y="43" on="0"/>
        <pt x="1114" y="-127" on="0"/>
        <pt x="967" y="-127" on="1"/>
        <pt x="145" y="-127" on="1"/>
        <pt x="114" y="-127" on="0"/>
        <pt x="80" y="-158" on="0"/>
        <pt x="80" y="-187" on="1"/>
        <pt x="80" y="-206" on="0"/>
        <pt x="95" y="-239" on="0"/>
        <pt x="103" y="-251" on="1"/>
        <pt x="70" y="-273" on="1"/>
        <pt x="56" y="-257" on="0"/>
        <pt x="36" y="-210" on="0"/>
        <pt x="36" y="-183" on="1"/>
        <pt x="36" y="-135" on="0"/>
        <pt x="92" y="-91" on="0"/>
        <pt x="142" y="-91" on="1"/>
        <pt x="963" y="-91" on="1"/>
        <pt x="1093" y="-91" on="0"/>
        <pt x="1214" y="61" on="0"/>
        <pt x="1214" y="204" on="1"/>
        <pt x="1214" y="274" on="0"/>
        <pt x="1191" y="372" on="0"/>
        <pt x="1152" y="434" on="0"/>
        <pt x="1103" y="462" on="0"/>
        <pt x="1076" y="462" on="1"/>
        <pt x="1034" y="462" on="0"/>
        <pt x="984" y="404" on="0"/>
        <pt x="984" y="347" on="1"/>
        <pt x="984" y="0" on="1"/>
        <pt x="940" y="0" on="1"/>
        <pt x="940" y="343" on="1"/>
        <pt x="940" y="397" on="0"/>
        <pt x="888" y="462" on="0"/>
        <pt x="845" y="462" on="1"/>
        <pt x="800" y="462" on="0"/>
        <pt x="751" y="403" on="0"/>
        <pt x="751" y="348" on="1"/>
        <pt x="751" y="0" on="1"/>
        <pt x="477" y="0" on="1"/>
        <pt x="460" y="33" on="1"/>
        <pt x="492" y="72" on="0"/>
        <pt x="526" y="174" on="0"/>
        <pt x="526" y="234" on="1"/>
        <pt x="526" y="286" on="0"/>
        <pt x="496" y="371" on="0"/>
        <pt x="441" y="429" on="0"/>
        <pt x="363" y="461" on="0"/>
        <pt x="315" y="461" on="1"/>
        <pt x="266" y="461" on="0"/>
        <pt x="185" y="425" on="0"/>
        <pt x="127" y="361" on="0"/>
        <pt x="95" y="271" on="0"/>
        <pt x="95" y="217" on="1"/>
        <pt x="95" y="198" on="1"/>
        <pt x="113" y="238" on="0"/>
        <pt x="181" y="285" on="0"/>
        <pt x="224" y="285" on="1"/>
        <pt x="254" y="285" on="0"/>
        <pt x="307" y="263" on="0"/>
        <pt x="345" y="225" on="0"/>
        <pt x="367" y="173" on="0"/>
        <pt x="367" y="143" on="1"/>
        <pt x="367" y="111" on="0"/>
        <pt x="345" y="56" on="0"/>
        <pt x="305" y="17" on="0"/>
        <pt x="251" y="-5" on="0"/>
        <pt x="218" y="-5" on="1"/>
        <pt x="182" y="-5" on="0"/>
        <pt x="122" y="24" on="0"/>
        <pt x="78" y="80" on="0"/>
        <pt x="54" y="162" on="0"/>
        <pt x="54" y="214" on="1"/>
        <pt x="54" y="278" on="0"/>
        <pt x="93" y="383" on="0"/>
        <pt x="163" y="458" on="0"/>
        <pt x="261" y="499" on="0"/>
        <pt x="320" y="499" on="1"/>
        <pt x="375" y="499" on="0"/>
        <pt x="467" y="460" on="0"/>
        <pt x="534" y="390" on="0"/>
        <pt x="572" y="294" on="0"/>
        <pt x="572" y="237" on="1"/>
        <pt x="572" y="164" on="0"/>
        <pt x="535" y="62" on="0"/>
        <pt x="517" y="36" on="1"/>
        <pt x="707" y="36" on="1"/>
        <pt x="707" y="343" on="1"/>
        <pt x="707" y="421" on="0"/>
        <pt x="781" y="499" on="0"/>
      </contour>
      <contour>
        <pt x="216" y="249" on="1"/>
        <pt x="194" y="249" on="0"/>
        <pt x="156" y="231" on="0"/>
        <pt x="126" y="201" on="0"/>
        <pt x="106" y="160" on="0"/>
        <pt x="103" y="138" on="1"/>
        <pt x="115" y="82" on="0"/>
        <pt x="180" y="31" on="0"/>
        <pt x="218" y="31" on="1"/>
        <pt x="265" y="31" on="0"/>
        <pt x="323" y="90" on="0"/>
        <pt x="323" y="141" on="1"/>
        <pt x="323" y="190" on="0"/>
        <pt x="265" y="249" on="0"/>
      </contour>
      <contour>
        <pt x="637" y="691" on="1"/>
        <pt x="657" y="691" on="0"/>
        <pt x="682" y="666" on="0"/>
        <pt x="682" y="647" on="1"/>
        <pt x="682" y="628" on="0"/>
        <pt x="658" y="603" on="0"/>
        <pt x="639" y="603" on="1"/>
        <pt x="619" y="603" on="0"/>
        <pt x="594" y="628" on="0"/>
        <pt x="594" y="647" on="1"/>
        <pt x="594" y="666" on="0"/>
        <pt x="618" y="691" on="0"/>
      </contour>
    </TTGlyph>
    <TTGlyph name="Hbar" xMin="20" yMin="0" xMax="623" yMax="630">
      <contour>
        <pt x="623" y="530" on="1"/>
        <pt x="623" y="488" on="1"/>
        <pt x="543" y="488" on="1"/>
        <pt x="543" y="0" on="1"/>
        <pt x="491" y="0" on="1"/>
        <pt x="491" y="305" on="1"/>
        <pt x="152" y="305" on="1"/>
        <pt x="152" y="0" on="1"/>
        <pt x="100" y="0" on="1"/>
        <pt x="100" y="488" on="1"/>
        <pt x="20" y="488" on="1"/>
        <pt x="20" y="530" on="1"/>
        <pt x="100" y="530" on="1"/>
        <pt x="100" y="630" on="1"/>
        <pt x="152" y="630" on="1"/>
        <pt x="152" y="530" on="1"/>
        <pt x="491" y="530" on="1"/>
        <pt x="491" y="630" on="1"/>
        <pt x="543" y="630" on="1"/>
        <pt x="543" y="530" on="1"/>
      </contour>
      <contour>
        <pt x="491" y="347" on="1"/>
        <pt x="491" y="488" on="1"/>
        <pt x="152" y="488" on="1"/>
        <pt x="152" y="347" on="1"/>
      </contour>
    </TTGlyph>
    <TTGlyph name="Hcircumflex" xMin="80" yMin="0" xMax="523" yMax="844">
      <contour>
        <pt x="80" y="0" on="1"/>
        <pt x="80" y="630" on="1"/>
        <pt x="132" y="630" on="1"/>
        <pt x="132" y="347" on="1"/>
        <pt x="471" y="347" on="1"/>
        <pt x="471" y="630" on="1"/>
        <pt x="523" y="630" on="1"/>
        <pt x="523" y="0" on="1"/>
        <pt x="471" y="0" on="1"/>
        <pt x="471" y="305" on="1"/>
        <pt x="132" y="305" on="1"/>
        <pt x="132" y="0" on="1"/>
      </contour>
      <contour>
        <pt x="277" y="844" on="1"/>
        <pt x="326" y="844" on="1"/>
        <pt x="451" y="710" on="1"/>
        <pt x="391" y="710" on="1"/>
        <pt x="301" y="809" on="1"/>
        <pt x="211" y="710" on="1"/>
        <pt x="155" y="710" on="1"/>
      </contour>
    </TTGlyph>
    <TTGlyph name="Hsmall" xMin="68" yMin="0" xMax="404" yMax="470">
      <contour>
        <pt x="68" y="0" on="1"/>
        <pt x="68" y="470" on="1"/>
        <pt x="116" y="470" on="1"/>
        <pt x="116" y="266" on="1"/>
        <pt x="356" y="266" on="1"/>
        <pt x="356" y="470" on="1"/>
        <pt x="404" y="470" on="1"/>
        <pt x="404" y="0" on="1"/>
        <pt x="356" y="0" on="1"/>
        <pt x="356" y="228" on="1"/>
        <pt x="116" y="228" on="1"/>
        <pt x="116" y="0" on="1"/>
      </contour>
    </TTGlyph>
    <TTGlyph name="Hundred.tm" xMin="77" yMin="0" xMax="744" yMax="499">
      <contour>
        <pt x="744" y="495" on="1"/>
        <pt x="744" y="459" on="1"/>
        <pt x="630" y="459" on="1"/>
        <pt x="630" y="0" on="1"/>
        <pt x="586" y="0" on="1"/>
        <pt x="586" y="459" on="1"/>
        <pt x="353" y="459" on="1"/>
        <pt x="353" y="0" on="1"/>
        <pt x="310" y="0" on="1"/>
        <pt x="310" y="344" on="1"/>
        <pt x="310" y="400" on="0"/>
        <pt x="253" y="461" on="0"/>
        <pt x="212" y="461" on="1"/>
        <pt x="171" y="461" on="0"/>
        <pt x="120" y="405" on="0"/>
        <pt x="120" y="351" on="1"/>
        <pt x="120" y="0" on="1"/>
        <pt x="77" y="0" on="1"/>
        <pt x="77" y="348" on="1"/>
        <pt x="77" y="421" on="0"/>
        <pt x="148" y="499" on="0"/>
        <pt x="211" y="499" on="1"/>
        <pt x="246" y="499" on="0"/>
        <pt x="299" y="464" on="0"/>
        <pt x="312" y="438" on="1"/>
        <pt x="312" y="495" on="1"/>
      </contour>
    </TTGlyph>
    <TTGlyph name="I" xMin="80" yMin="0" xMax="132" yMax="630">
      <contour>
        <pt x="132" y="630" on="1"/>
        <pt x="132" y="0" on="1"/>
        <pt x="80" y="0" on="1"/>
        <pt x="80" y="630" on="1"/>
      </contour>
    </TTGlyph>
    <TTGlyph name="IJ" xMin="80" yMin="-135" xMax="376" yMax="630">
      <contour>
        <pt x="132" y="630" on="1"/>
        <pt x="132" y="0" on="1"/>
        <pt x="80" y="0" on="1"/>
        <pt x="80" y="630" on="1"/>
      </contour>
      <contour>
        <pt x="376" y="630" on="1"/>
        <pt x="376" y="104" on="1"/>
        <pt x="376" y="42" on="0"/>
        <pt x="362" y="-32" on="0"/>
        <pt x="343" y="-61" on="1"/>
        <pt x="329" y="-82" on="0"/>
        <pt x="292" y="-110" on="0"/>
        <pt x="250" y="-127" on="0"/>
        <pt x="205" y="-135" on="0"/>
        <pt x="184" y="-135" on="1"/>
        <pt x="184" y="-98" on="1"/>
        <pt x="243" y="-97" on="0"/>
        <pt x="280" y="-66" on="1"/>
        <pt x="306" y="-43" on="0"/>
        <pt x="324" y="26" on="0"/>
        <pt x="324" y="69" on="1"/>
        <pt x="324" y="630" on="1"/>
      </contour>
    </TTGlyph>
    <TTGlyph name="Iacute" xMin="80" yMin="0" xMax="233" yMax="834">
      <contour>
        <pt x="132" y="630" on="1"/>
        <pt x="132" y="0" on="1"/>
        <pt x="80" y="0" on="1"/>
        <pt x="80" y="630" on="1"/>
      </contour>
      <contour>
        <pt x="122" y="710" on="1"/>
        <pt x="80" y="710" on="1"/>
        <pt x="170" y="834" on="1"/>
        <pt x="233" y="834" on="1"/>
      </contour>
    </TTGlyph>
    <TTGlyph name="Ibreve" xMin="-30" yMin="0" xMax="239" yMax="834">
      <contour>
        <pt x="132" y="630" on="1"/>
        <pt x="132" y="0" on="1"/>
        <pt x="80" y="0" on="1"/>
        <pt x="80" y="630" on="1"/>
      </contour>
      <contour>
        <pt x="18" y="834" on="1"/>
        <pt x="19" y="796" on="0"/>
        <pt x="59" y="750" on="0"/>
        <pt x="106" y="750" on="1"/>
        <pt x="145" y="750" on="0"/>
        <pt x="190" y="794" on="0"/>
        <pt x="191" y="834" on="1"/>
        <pt x="239" y="834" on="1"/>
        <pt x="239" y="780" on="0"/>
        <pt x="171" y="710" on="0"/>
        <pt x="106" y="710" on="1"/>
        <pt x="70" y="710" on="0"/>
        <pt x="19" y="730" on="0"/>
        <pt x="-14" y="765" on="0"/>
        <pt x="-30" y="810" on="0"/>
        <pt x="-30" y="834" on="1"/>
      </contour>
    </TTGlyph>
    <TTGlyph name="Icircumflex" xMin="-38" yMin="0" xMax="258" yMax="844">
      <contour>
        <pt x="132" y="630" on="1"/>
        <pt x="132" y="0" on="1"/>
        <pt x="80" y="0" on="1"/>
        <pt x="80" y="630" on="1"/>
      </contour>
      <contour>
        <pt x="84" y="844" on="1"/>
        <pt x="133" y="844" on="1"/>
        <pt x="258" y="710" on="1"/>
        <pt x="198" y="710" on="1"/>
        <pt x="108" y="809" on="1"/>
        <pt x="18" y="710" on="1"/>
        <pt x="-38" y="710" on="1"/>
      </contour>
    </TTGlyph>
    <TTGlyph name="Idieresis" xMin="-19" yMin="0" xMax="231" yMax="810">
      <contour>
        <pt x="132" y="630" on="1"/>
        <pt x="132" y="0" on="1"/>
        <pt x="80" y="0" on="1"/>
        <pt x="80" y="630" on="1"/>
      </contour>
      <contour>
        <pt x="-19" y="766" on="1"/>
        <pt x="-19" y="786" on="0"/>
        <pt x="4" y="810" on="0"/>
        <pt x="21" y="810" on="1"/>
        <pt x="38" y="810" on="0"/>
        <pt x="61" y="786" on="0"/>
        <pt x="61" y="766" on="1"/>
        <pt x="61" y="745" on="0"/>
        <pt x="38" y="722" on="0"/>
        <pt x="21" y="722" on="1"/>
        <pt x="4" y="722" on="0"/>
        <pt x="-19" y="745" on="0"/>
      </contour>
      <contour>
        <pt x="151" y="766" on="1"/>
        <pt x="151" y="786" on="0"/>
        <pt x="174" y="810" on="0"/>
        <pt x="191" y="810" on="1"/>
        <pt x="208" y="810" on="0"/>
        <pt x="231" y="786" on="0"/>
        <pt x="231" y="766" on="1"/>
        <pt x="231" y="745" on="0"/>
        <pt x="208" y="722" on="0"/>
        <pt x="191" y="722" on="1"/>
        <pt x="174" y="722" on="0"/>
        <pt x="151" y="745" on="0"/>
      </contour>
    </TTGlyph>
    <TTGlyph name="Idotaccent" xMin="66" yMin="0" xMax="146" yMax="822">
      <contour>
        <pt x="132" y="630" on="1"/>
        <pt x="132" y="0" on="1"/>
        <pt x="80" y="0" on="1"/>
        <pt x="80" y="630" on="1"/>
      </contour>
      <contour>
        <pt x="66" y="778" on="1"/>
        <pt x="66" y="798" on="0"/>
        <pt x="89" y="822" on="0"/>
        <pt x="106" y="822" on="1"/>
        <pt x="123" y="822" on="0"/>
        <pt x="146" y="798" on="0"/>
        <pt x="146" y="778" on="1"/>
        <pt x="146" y="757" on="0"/>
        <pt x="123" y="734" on="0"/>
        <pt x="106" y="734" on="1"/>
        <pt x="89" y="734" on="0"/>
        <pt x="66" y="757" on="0"/>
      </contour>
    </TTGlyph>
    <TTGlyph name="Igrave" xMin="-20" yMin="0" xMax="133" yMax="834">
      <contour>
        <pt x="132" y="630" on="1"/>
        <pt x="132" y="0" on="1"/>
        <pt x="80" y="0" on="1"/>
        <pt x="80" y="630" on="1"/>
      </contour>
      <contour>
        <pt x="-20" y="834" on="1"/>
        <pt x="43" y="834" on="1"/>
        <pt x="133" y="710" on="1"/>
        <pt x="91" y="710" on="1"/>
      </contour>
    </TTGlyph>
    <TTGlyph name="Imacron" xMin="-16" yMin="0" xMax="229" yMax="772">
      <contour>
        <pt x="132" y="630" on="1"/>
        <pt x="132" y="0" on="1"/>
        <pt x="80" y="0" on="1"/>
        <pt x="80" y="630" on="1"/>
      </contour>
      <contour>
        <pt x="229" y="772" on="1"/>
        <pt x="229" y="730" on="1"/>
        <pt x="-16" y="730" on="1"/>
        <pt x="-16" y="772" on="1"/>
      </contour>
    </TTGlyph>
    <TTGlyph name="Iogonek" xMin="2" yMin="-205" xMax="189" yMax="630">
      <contour>
        <pt x="132" y="0" on="1"/>
        <pt x="91" y="-24" on="0"/>
        <pt x="51" y="-71" on="0"/>
        <pt x="51" y="-105" on="1"/>
        <pt x="51" y="-134" on="0"/>
        <pt x="93" y="-166" on="0"/>
        <pt x="126" y="-166" on="1"/>
        <pt x="144" y="-166" on="0"/>
        <pt x="171" y="-160" on="0"/>
        <pt x="181" y="-155" on="1"/>
        <pt x="189" y="-185" on="1"/>
        <pt x="175" y="-194" on="0"/>
        <pt x="136" y="-205" on="0"/>
        <pt x="113" y="-205" on="1"/>
        <pt x="67" y="-205" on="0"/>
        <pt x="2" y="-156" on="0"/>
        <pt x="2" y="-109" on="1"/>
        <pt x="2" y="-71" on="0"/>
        <pt x="48" y="-16" on="0"/>
        <pt x="80" y="0" on="1"/>
        <pt x="80" y="630" on="1"/>
        <pt x="132" y="630" on="1"/>
      </contour>
    </TTGlyph>
    <TTGlyph name="Ismall" xMin="68" yMin="0" xMax="116" yMax="470">
      <contour>
        <pt x="116" y="470" on="1"/>
        <pt x="116" y="0" on="1"/>
        <pt x="68" y="0" on="1"/>
        <pt x="68" y="470" on="1"/>
      </contour>
    </TTGlyph>
    <TTGlyph name="Itilde" xMin="-46" yMin="0" xMax="257" yMax="818">
      <contour>
        <pt x="132" y="630" on="1"/>
        <pt x="132" y="0" on="1"/>
        <pt x="80" y="0" on="1"/>
        <pt x="80" y="630" on="1"/>
      </contour>
      <contour>
        <pt x="-46" y="715" on="1"/>
        <pt x="-46" y="757" on="0"/>
        <pt x="-5" y="815" on="0"/>
        <pt x="41" y="815" on="1"/>
        <pt x="63" y="815" on="0"/>
        <pt x="95" y="798" on="0"/>
        <pt x="123" y="778" on="0"/>
        <pt x="151" y="761" on="0"/>
        <pt x="168" y="761" on="1"/>
        <pt x="194" y="761" on="0"/>
        <pt x="215" y="793" on="0"/>
        <pt x="217" y="818" on="1"/>
        <pt x="257" y="818" on="1"/>
        <pt x="257" y="799" on="0"/>
        <pt x="246" y="764" on="0"/>
        <pt x="225" y="737" on="0"/>
        <pt x="194" y="721" on="0"/>
        <pt x="173" y="721" on="1"/>
        <pt x="150" y="721" on="0"/>
        <pt x="114" y="738" on="0"/>
        <pt x="84" y="758" on="0"/>
        <pt x="57" y="775" on="0"/>
        <pt x="44" y="775" on="1"/>
        <pt x="18" y="775" on="0"/>
        <pt x="-4" y="739" on="0"/>
        <pt x="-6" y="715" on="1"/>
      </contour>
    </TTGlyph>
    <TTGlyph name="J" xMin="-15" yMin="-135" xMax="177" yMax="630">
      <contour>
        <pt x="177" y="630" on="1"/>
        <pt x="177" y="104" on="1"/>
        <pt x="177" y="42" on="0"/>
        <pt x="163" y="-32" on="0"/>
        <pt x="144" y="-61" on="1"/>
        <pt x="130" y="-82" on="0"/>
        <pt x="93" y="-110" on="0"/>
        <pt x="51" y="-127" on="0"/>
        <pt x="6" y="-135" on="0"/>
        <pt x="-15" y="-135" on="1"/>
        <pt x="-15" y="-98" on="1"/>
        <pt x="44" y="-97" on="0"/>
        <pt x="81" y="-66" on="1"/>
        <pt x="107" y="-43" on="0"/>
        <pt x="125" y="26" on="0"/>
        <pt x="125" y="69" on="1"/>
        <pt x="125" y="630" on="1"/>
      </contour>
    </TTGlyph>
    <TTGlyph name="Ja.tm" xMin="48" yMin="-264" xMax="734" yMax="499">
      <contour>
        <pt x="237" y="499" on="1"/>
        <pt x="270" y="499" on="0"/>
        <pt x="327" y="477" on="0"/>
        <pt x="371" y="441" on="0"/>
        <pt x="401" y="394" on="0"/>
        <pt x="408" y="368" on="1"/>
        <pt x="411" y="395" on="0"/>
        <pt x="436" y="443" on="0"/>
        <pt x="475" y="478" on="0"/>
        <pt x="528" y="499" on="0"/>
        <pt x="560" y="499" on="1"/>
        <pt x="596" y="499" on="0"/>
        <pt x="656" y="475" on="0"/>
        <pt x="699" y="431" on="0"/>
        <pt x="724" y="369" on="0"/>
        <pt x="724" y="332" on="1"/>
        <pt x="724" y="244" on="0"/>
        <pt x="604" y="138" on="0"/>
        <pt x="491" y="109" on="1"/>
        <pt x="271" y="53" on="1"/>
        <pt x="236" y="44" on="0"/>
        <pt x="177" y="16" on="0"/>
        <pt x="135" y="-23" on="0"/>
        <pt x="112" y="-75" on="0"/>
        <pt x="112" y="-108" on="1"/>
        <pt x="112" y="-163" on="0"/>
        <pt x="176" y="-226" on="0"/>
        <pt x="224" y="-226" on="1"/>
        <pt x="249" y="-226" on="0"/>
        <pt x="290" y="-210" on="0"/>
        <pt x="323" y="-184" on="0"/>
        <pt x="351" y="-153" on="0"/>
        <pt x="363" y="-138" on="1"/>
        <pt x="418" y="-69" on="1"/>
        <pt x="459" y="-18" on="0"/>
        <pt x="539" y="39" on="0"/>
        <pt x="591" y="39" on="1"/>
        <pt x="622" y="39" on="0"/>
        <pt x="674" y="17" on="0"/>
        <pt x="712" y="-22" on="0"/>
        <pt x="734" y="-77" on="0"/>
        <pt x="734" y="-111" on="1"/>
        <pt x="734" y="-181" on="0"/>
        <pt x="653" y="-264" on="0"/>
        <pt x="589" y="-264" on="1"/>
        <pt x="542" y="-264" on="0"/>
        <pt x="481" y="-220" on="0"/>
        <pt x="466" y="-194" on="1"/>
        <pt x="496" y="-171" on="1"/>
        <pt x="510" y="-192" on="0"/>
        <pt x="554" y="-227" on="0"/>
        <pt x="590" y="-227" on="1"/>
        <pt x="634" y="-227" on="0"/>
        <pt x="690" y="-167" on="0"/>
        <pt x="690" y="-111" on="1"/>
        <pt x="690" y="-57" on="0"/>
        <pt x="631" y="0" on="0"/>
        <pt x="587" y="0" on="1"/>
        <pt x="549" y="0" on="0"/>
        <pt x="484" y="-49" on="0"/>
        <pt x="453" y="-90" on="1"/>
        <pt x="396" y="-165" on="1"/>
        <pt x="383" y="-182" on="0"/>
        <pt x="350" y="-217" on="0"/>
        <pt x="308" y="-245" on="0"/>
        <pt x="255" y="-264" on="0"/>
        <pt x="223" y="-264" on="1"/>
        <pt x="153" y="-264" on="0"/>
        <pt x="67" y="-179" on="0"/>
        <pt x="67" y="-108" on="1"/>
        <pt x="67" y="-67" on="0"/>
        <pt x="95" y="-3" on="0"/>
        <pt x="146" y="45" on="0"/>
        <pt x="217" y="78" on="0"/>
        <pt x="259" y="89" on="1"/>
        <pt x="489" y="148" on="1"/>
        <pt x="532" y="159" on="0"/>
        <pt x="602" y="191" on="0"/>
        <pt x="652" y="236" on="0"/>
        <pt x="679" y="294" on="0"/>
        <pt x="679" y="330" on="1"/>
        <pt x="679" y="393" on="0"/>
        <pt x="611" y="461" on="0"/>
        <pt x="557" y="461" on="1"/>
        <pt x="501" y="461" on="0"/>
        <pt x="429" y="377" on="0"/>
        <pt x="429" y="302" on="1"/>
        <pt x="429" y="212" on="1"/>
        <pt x="387" y="212" on="1"/>
        <pt x="387" y="297" on="1"/>
        <pt x="387" y="334" on="0"/>
        <pt x="364" y="395" on="0"/>
        <pt x="323" y="438" on="0"/>
        <pt x="268" y="461" on="0"/>
        <pt x="236" y="461" on="1"/>
        <pt x="170" y="461" on="0"/>
        <pt x="91" y="381" on="0"/>
        <pt x="86" y="313" on="1"/>
        <pt x="100" y="339" on="0"/>
        <pt x="151" y="370" on="0"/>
        <pt x="184" y="370" on="1"/>
        <pt x="208" y="370" on="0"/>
        <pt x="248" y="353" on="0"/>
        <pt x="278" y="323" on="0"/>
        <pt x="295" y="281" on="0"/>
        <pt x="295" y="257" on="1"/>
        <pt x="295" y="206" on="0"/>
        <pt x="227" y="140" on="0"/>
        <pt x="173" y="140" on="1"/>
        <pt x="150" y="140" on="0"/>
        <pt x="105" y="158" on="0"/>
        <pt x="70" y="197" on="0"/>
        <pt x="48" y="258" on="0"/>
        <pt x="48" y="300" on="1"/>
        <pt x="48" y="345" on="0"/>
        <pt x="76" y="419" on="0"/>
        <pt x="126" y="471" on="0"/>
        <pt x="196" y="499" on="0"/>
      </contour>
      <contour>
        <pt x="172" y="336" on="1"/>
        <pt x="142" y="336" on="0"/>
        <pt x="93" y="289" on="0"/>
        <pt x="89" y="254" on="1"/>
        <pt x="97" y="210" on="0"/>
        <pt x="147" y="175" on="0"/>
        <pt x="174" y="175" on="1"/>
        <pt x="209" y="175" on="0"/>
        <pt x="253" y="218" on="0"/>
        <pt x="253" y="256" on="1"/>
        <pt x="253" y="294" on="0"/>
        <pt x="209" y="336" on="0"/>
      </contour>
    </TTGlyph>
    <TTGlyph name="JaAlt.tm" xMin="52" yMin="-10" xMax="603" yMax="499">
      <contour>
        <pt x="205" y="499" on="1"/>
        <pt x="235" y="499" on="0"/>
        <pt x="282" y="482" on="0"/>
        <pt x="318" y="454" on="0"/>
        <pt x="343" y="417" on="0"/>
        <pt x="349" y="397" on="1"/>
        <pt x="354" y="440" on="0"/>
        <pt x="420" y="499" on="0"/>
        <pt x="469" y="499" on="1"/>
        <pt x="528" y="499" on="0"/>
        <pt x="598" y="425" on="0"/>
        <pt x="598" y="367" on="1"/>
        <pt x="598" y="322" on="0"/>
        <pt x="555" y="249" on="0"/>
        <pt x="512" y="229" on="1"/>
        <pt x="550" y="222" on="0"/>
        <pt x="603" y="162" on="0"/>
        <pt x="603" y="115" on="1"/>
        <pt x="603" y="58" on="0"/>
        <pt x="534" y="-10" on="0"/>
        <pt x="477" y="-10" on="1"/>
        <pt x="439" y="-10" on="0"/>
        <pt x="378" y="28" on="0"/>
        <pt x="361" y="62" on="1"/>
        <pt x="391" y="82" on="1"/>
        <pt x="405" y="55" on="0"/>
        <pt x="448" y="26" on="0"/>
        <pt x="478" y="26" on="1"/>
        <pt x="515" y="26" on="0"/>
        <pt x="561" y="76" on="0"/>
        <pt x="561" y="117" on="1"/>
        <pt x="561" y="159" on="0"/>
        <pt x="514" y="205" on="0"/>
        <pt x="479" y="205" on="1"/>
        <pt x="446" y="205" on="0"/>
        <pt x="398" y="169" on="0"/>
        <pt x="372" y="140" on="1"/>
        <pt x="308" y="67" on="1"/>
        <pt x="283" y="39" on="0"/>
        <pt x="217" y="-10" on="0"/>
        <pt x="171" y="-10" on="1"/>
        <pt x="119" y="-10" on="0"/>
        <pt x="58" y="45" on="0"/>
        <pt x="58" y="93" on="1"/>
        <pt x="58" y="142" on="0"/>
        <pt x="118" y="202" on="0"/>
        <pt x="169" y="207" on="1"/>
        <pt x="390" y="226" on="1"/>
        <pt x="466" y="232" on="0"/>
        <pt x="555" y="306" on="0"/>
        <pt x="555" y="361" on="1"/>
        <pt x="555" y="409" on="0"/>
        <pt x="508" y="463" on="0"/>
        <pt x="466" y="463" on="1"/>
        <pt x="424" y="463" on="0"/>
        <pt x="371" y="402" on="0"/>
        <pt x="371" y="342" on="1"/>
        <pt x="371" y="272" on="1"/>
        <pt x="330" y="272" on="1"/>
        <pt x="330" y="336" on="1"/>
        <pt x="330" y="366" on="0"/>
        <pt x="311" y="413" on="0"/>
        <pt x="277" y="446" on="0"/>
        <pt x="231" y="463" on="0"/>
        <pt x="204" y="463" on="1"/>
        <pt x="157" y="463" on="0"/>
        <pt x="98" y="419" on="0"/>
        <pt x="90" y="380" on="1"/>
        <pt x="102" y="397" on="0"/>
        <pt x="141" y="418" on="0"/>
        <pt x="165" y="418" on="1"/>
        <pt x="204" y="418" on="0"/>
        <pt x="257" y="365" on="0"/>
        <pt x="257" y="325" on="1"/>
        <pt x="257" y="283" on="0"/>
        <pt x="199" y="228" on="0"/>
        <pt x="154" y="228" on="1"/>
        <pt x="135" y="228" on="0"/>
        <pt x="99" y="241" on="0"/>
        <pt x="70" y="270" on="0"/>
        <pt x="52" y="315" on="0"/>
        <pt x="52" y="347" on="1"/>
        <pt x="52" y="417" on="0"/>
        <pt x="137" y="499" on="0"/>
      </contour>
      <contour>
        <pt x="334" y="150" on="1"/>
        <pt x="348" y="165" on="0"/>
        <pt x="369" y="184" on="0"/>
        <pt x="380" y="194" on="1"/>
        <pt x="178" y="171" on="1"/>
        <pt x="142" y="166" on="0"/>
        <pt x="100" y="125" on="0"/>
        <pt x="100" y="93" on="1"/>
        <pt x="100" y="62" on="0"/>
        <pt x="140" y="27" on="0"/>
        <pt x="172" y="27" on="1"/>
        <pt x="201" y="27" on="0"/>
        <pt x="247" y="58" on="0"/>
        <pt x="270" y="82" on="1"/>
      </contour>
      <contour>
        <pt x="153" y="386" on="1"/>
        <pt x="129" y="386" on="0"/>
        <pt x="95" y="354" on="0"/>
        <pt x="88" y="329" on="1"/>
        <pt x="92" y="291" on="0"/>
        <pt x="132" y="260" on="0"/>
        <pt x="155" y="260" on="1"/>
        <pt x="182" y="260" on="0"/>
        <pt x="217" y="294" on="0"/>
        <pt x="217" y="324" on="1"/>
        <pt x="217" y="353" on="0"/>
        <pt x="182" y="386" on="0"/>
      </contour>
    </TTGlyph>
    <TTGlyph name="JaAltMatraI.tm" xMin="52" yMin="-10" xMax="780" yMax="749">
      <contour>
        <pt x="610" y="749" on="1"/>
        <pt x="688" y="749" on="0"/>
        <pt x="780" y="649" on="0"/>
        <pt x="780" y="557" on="1"/>
        <pt x="780" y="0" on="1"/>
        <pt x="737" y="0" on="1"/>
        <pt x="737" y="551" on="1"/>
        <pt x="737" y="630" on="0"/>
        <pt x="669" y="713" on="0"/>
        <pt x="606" y="713" on="1"/>
        <pt x="551" y="713" on="0"/>
        <pt x="489" y="651" on="0"/>
        <pt x="489" y="601" on="1"/>
        <pt x="489" y="558" on="0"/>
        <pt x="537" y="485" on="0"/>
        <pt x="564" y="454" on="1"/>
        <pt x="579" y="437" on="0"/>
        <pt x="598" y="393" on="0"/>
        <pt x="598" y="367" on="1"/>
        <pt x="598" y="322" on="0"/>
        <pt x="555" y="249" on="0"/>
        <pt x="512" y="229" on="1"/>
        <pt x="550" y="222" on="0"/>
        <pt x="603" y="162" on="0"/>
        <pt x="603" y="115" on="1"/>
        <pt x="603" y="58" on="0"/>
        <pt x="534" y="-10" on="0"/>
        <pt x="477" y="-10" on="1"/>
        <pt x="439" y="-10" on="0"/>
        <pt x="378" y="28" on="0"/>
        <pt x="361" y="62" on="1"/>
        <pt x="391" y="82" on="1"/>
        <pt x="405" y="55" on="0"/>
        <pt x="448" y="26" on="0"/>
        <pt x="478" y="26" on="1"/>
        <pt x="515" y="26" on="0"/>
        <pt x="561" y="76" on="0"/>
        <pt x="561" y="117" on="1"/>
        <pt x="561" y="159" on="0"/>
        <pt x="514" y="205" on="0"/>
        <pt x="479" y="205" on="1"/>
        <pt x="446" y="205" on="0"/>
        <pt x="399" y="169" on="0"/>
        <pt x="373" y="140" on="1"/>
        <pt x="309" y="67" on="1"/>
        <pt x="297" y="53" on="0"/>
        <pt x="268" y="26" on="0"/>
        <pt x="234" y="4" on="0"/>
        <pt x="194" y="-10" on="0"/>
        <pt x="171" y="-10" on="1"/>
        <pt x="119" y="-10" on="0"/>
        <pt x="58" y="45" on="0"/>
        <pt x="58" y="93" on="1"/>
        <pt x="58" y="141" on="0"/>
        <pt x="118" y="200" on="0"/>
        <pt x="169" y="205" on="1"/>
        <pt x="390" y="224" on="1"/>
        <pt x="466" y="230" on="0"/>
        <pt x="555" y="304" on="0"/>
        <pt x="555" y="361" on="1"/>
        <pt x="555" y="409" on="0"/>
        <pt x="508" y="463" on="0"/>
        <pt x="466" y="463" on="1"/>
        <pt x="424" y="463" on="0"/>
        <pt x="371" y="402" on="0"/>
        <pt x="371" y="342" on="1"/>
        <pt x="371" y="272" on="1"/>
        <pt x="330" y="272" on="1"/>
        <pt x="330" y="336" on="1"/>
        <pt x="330" y="366" on="0"/>
        <pt x="311" y="413" on="0"/>
        <pt x="277" y="446" on="0"/>
        <pt x="231" y="463" on="0"/>
        <pt x="204" y="463" on="1"/>
        <pt x="157" y="463" on="0"/>
        <pt x="98" y="419" on="0"/>
        <pt x="90" y="380" on="1"/>
        <pt x="102" y="397" on="0"/>
        <pt x="141" y="418" on="0"/>
        <pt x="165" y="418" on="1"/>
        <pt x="204" y="418" on="0"/>
        <pt x="257" y="365" on="0"/>
        <pt x="257" y="325" on="1"/>
        <pt x="257" y="283" on="0"/>
        <pt x="199" y="228" on="0"/>
        <pt x="154" y="228" on="1"/>
        <pt x="135" y="228" on="0"/>
        <pt x="99" y="241" on="0"/>
        <pt x="70" y="270" on="0"/>
        <pt x="52" y="315" on="0"/>
        <pt x="52" y="347" on="1"/>
        <pt x="52" y="417" on="0"/>
        <pt x="137" y="499" on="0"/>
        <pt x="205" y="499" on="1"/>
        <pt x="235" y="499" on="0"/>
        <pt x="282" y="482" on="0"/>
        <pt x="318" y="454" on="0"/>
        <pt x="343" y="417" on="0"/>
        <pt x="349" y="397" on="1"/>
        <pt x="354" y="439" on="0"/>
        <pt x="420" y="495" on="0"/>
        <pt x="469" y="495" on="1"/>
        <pt x="474" y="495" on="0"/>
        <pt x="483" y="494" on="0"/>
        <pt x="488" y="494" on="1"/>
        <pt x="469" y="515" on="0"/>
        <pt x="447" y="571" on="0"/>
        <pt x="447" y="606" on="1"/>
        <pt x="447" y="636" on="0"/>
        <pt x="469" y="688" on="0"/>
        <pt x="511" y="727" on="0"/>
        <pt x="572" y="749" on="0"/>
      </contour>
      <contour>
        <pt x="334" y="150" on="1"/>
        <pt x="348" y="165" on="0"/>
        <pt x="369" y="184" on="0"/>
        <pt x="380" y="194" on="1"/>
        <pt x="178" y="171" on="1"/>
        <pt x="142" y="166" on="0"/>
        <pt x="100" y="125" on="0"/>
        <pt x="100" y="93" on="1"/>
        <pt x="100" y="62" on="0"/>
        <pt x="140" y="27" on="0"/>
        <pt x="172" y="27" on="1"/>
        <pt x="201" y="27" on="0"/>
        <pt x="247" y="58" on="0"/>
        <pt x="270" y="82" on="1"/>
      </contour>
      <contour>
        <pt x="153" y="386" on="1"/>
        <pt x="129" y="386" on="0"/>
        <pt x="95" y="354" on="0"/>
        <pt x="88" y="329" on="1"/>
        <pt x="92" y="291" on="0"/>
        <pt x="132" y="260" on="0"/>
        <pt x="155" y="260" on="1"/>
        <pt x="182" y="260" on="0"/>
        <pt x="217" y="294" on="0"/>
        <pt x="217" y="324" on="1"/>
        <pt x="217" y="353" on="0"/>
        <pt x="182" y="386" on="0"/>
      </contour>
    </TTGlyph>
    <TTGlyph name="JaAltMatraIi.tm" xMin="52" yMin="-10" xMax="778" yMax="773">
      <contour>
        <pt x="629" y="773" on="1"/>
        <pt x="698" y="773" on="0"/>
        <pt x="778" y="710" on="0"/>
        <pt x="778" y="659" on="1"/>
        <pt x="778" y="614" on="0"/>
        <pt x="720" y="558" on="0"/>
        <pt x="672" y="558" on="1"/>
        <pt x="627" y="558" on="0"/>
        <pt x="571" y="612" on="0"/>
        <pt x="571" y="654" on="1"/>
        <pt x="571" y="684" on="0"/>
        <pt x="599" y="729" on="0"/>
        <pt x="621" y="742" on="1"/>
        <pt x="595" y="742" on="0"/>
        <pt x="548" y="722" on="0"/>
        <pt x="512" y="686" on="0"/>
        <pt x="491" y="634" on="0"/>
        <pt x="491" y="603" on="1"/>
        <pt x="491" y="557" on="0"/>
        <pt x="534" y="489" on="0"/>
        <pt x="566" y="452" on="1"/>
        <pt x="580" y="435" on="0"/>
        <pt x="598" y="392" on="0"/>
        <pt x="598" y="367" on="1"/>
        <pt x="598" y="322" on="0"/>
        <pt x="555" y="249" on="0"/>
        <pt x="512" y="229" on="1"/>
        <pt x="550" y="222" on="0"/>
        <pt x="603" y="162" on="0"/>
        <pt x="603" y="115" on="1"/>
        <pt x="603" y="58" on="0"/>
        <pt x="534" y="-10" on="0"/>
        <pt x="477" y="-10" on="1"/>
        <pt x="439" y="-10" on="0"/>
        <pt x="378" y="28" on="0"/>
        <pt x="361" y="62" on="1"/>
        <pt x="391" y="82" on="1"/>
        <pt x="405" y="55" on="0"/>
        <pt x="448" y="26" on="0"/>
        <pt x="478" y="26" on="1"/>
        <pt x="515" y="26" on="0"/>
        <pt x="561" y="76" on="0"/>
        <pt x="561" y="117" on="1"/>
        <pt x="561" y="159" on="0"/>
        <pt x="514" y="205" on="0"/>
        <pt x="479" y="205" on="1"/>
        <pt x="446" y="205" on="0"/>
        <pt x="399" y="169" on="0"/>
        <pt x="373" y="140" on="1"/>
        <pt x="309" y="67" on="1"/>
        <pt x="297" y="53" on="0"/>
        <pt x="268" y="26" on="0"/>
        <pt x="234" y="4" on="0"/>
        <pt x="194" y="-10" on="0"/>
        <pt x="171" y="-10" on="1"/>
        <pt x="119" y="-10" on="0"/>
        <pt x="58" y="45" on="0"/>
        <pt x="58" y="93" on="1"/>
        <pt x="58" y="141" on="0"/>
        <pt x="118" y="200" on="0"/>
        <pt x="169" y="205" on="1"/>
        <pt x="390" y="224" on="1"/>
        <pt x="466" y="230" on="0"/>
        <pt x="555" y="304" on="0"/>
        <pt x="555" y="361" on="1"/>
        <pt x="555" y="409" on="0"/>
        <pt x="508" y="463" on="0"/>
        <pt x="466" y="463" on="1"/>
        <pt x="424" y="463" on="0"/>
        <pt x="371" y="402" on="0"/>
        <pt x="371" y="342" on="1"/>
        <pt x="371" y="272" on="1"/>
        <pt x="330" y="272" on="1"/>
        <pt x="330" y="336" on="1"/>
        <pt x="330" y="366" on="0"/>
        <pt x="311" y="413" on="0"/>
        <pt x="277" y="446" on="0"/>
        <pt x="231" y="463" on="0"/>
        <pt x="204" y="463" on="1"/>
        <pt x="157" y="463" on="0"/>
        <pt x="98" y="419" on="0"/>
        <pt x="90" y="380" on="1"/>
        <pt x="102" y="397" on="0"/>
        <pt x="141" y="418" on="0"/>
        <pt x="165" y="418" on="1"/>
        <pt x="204" y="418" on="0"/>
        <pt x="257" y="365" on="0"/>
        <pt x="257" y="325" on="1"/>
        <pt x="257" y="283" on="0"/>
        <pt x="199" y="228" on="0"/>
        <pt x="154" y="228" on="1"/>
        <pt x="135" y="228" on="0"/>
        <pt x="99" y="241" on="0"/>
        <pt x="70" y="270" on="0"/>
        <pt x="52" y="315" on="0"/>
        <pt x="52" y="347" on="1"/>
        <pt x="52" y="417" on="0"/>
        <pt x="137" y="499" on="0"/>
        <pt x="205" y="499" on="1"/>
        <pt x="235" y="499" on="0"/>
        <pt x="282" y="482" on="0"/>
        <pt x="318" y="454" on="0"/>
        <pt x="343" y="417" on="0"/>
        <pt x="349" y="397" on="1"/>
        <pt x="354" y="439" on="0"/>
        <pt x="420" y="495" on="0"/>
        <pt x="469" y="495" on="1"/>
        <pt x="474" y="495" on="0"/>
        <pt x="482" y="494" on="0"/>
        <pt x="486" y="494" on="1"/>
        <pt x="447" y="544" on="0"/>
        <pt x="447" y="605" on="1"/>
        <pt x="447" y="643" on="0"/>
        <pt x="473" y="705" on="0"/>
        <pt x="521" y="749" on="0"/>
        <pt x="588" y="773" on="0"/>
      </contour>
      <contour>
        <pt x="334" y="150" on="1"/>
        <pt x="348" y="165" on="0"/>
        <pt x="369" y="184" on="0"/>
        <pt x="380" y="194" on="1"/>
        <pt x="178" y="171" on="1"/>
        <pt x="142" y="166" on="0"/>
        <pt x="100" y="125" on="0"/>
        <pt x="100" y="93" on="1"/>
        <pt x="100" y="62" on="0"/>
        <pt x="140" y="27" on="0"/>
        <pt x="172" y="27" on="1"/>
        <pt x="201" y="27" on="0"/>
        <pt x="247" y="58" on="0"/>
        <pt x="270" y="82" on="1"/>
      </contour>
      <contour>
        <pt x="736" y="659" on="1"/>
        <pt x="736" y="693" on="0"/>
        <pt x="696" y="733" on="0"/>
        <pt x="666" y="736" on="1"/>
        <pt x="643" y="728" on="0"/>
        <pt x="611" y="686" on="0"/>
        <pt x="611" y="657" on="1"/>
        <pt x="611" y="628" on="0"/>
        <pt x="645" y="593" on="0"/>
        <pt x="674" y="593" on="1"/>
        <pt x="702" y="593" on="0"/>
        <pt x="736" y="629" on="0"/>
      </contour>
      <contour>
        <pt x="153" y="386" on="1"/>
        <pt x="129" y="386" on="0"/>
        <pt x="95" y="354" on="0"/>
        <pt x="88" y="329" on="1"/>
        <pt x="92" y="291" on="0"/>
        <pt x="132" y="260" on="0"/>
        <pt x="155" y="260" on="1"/>
        <pt x="182" y="260" on="0"/>
        <pt x="217" y="294" on="0"/>
        <pt x="217" y="324" on="1"/>
        <pt x="217" y="353" on="0"/>
        <pt x="182" y="386" on="0"/>
      </contour>
    </TTGlyph>
    <TTGlyph name="JaAltMatraU.tm" xMin="52" yMin="-10" xMax="925" yMax="499">
      <contour>
        <pt x="205" y="499" on="1"/>
        <pt x="235" y="499" on="0"/>
        <pt x="282" y="482" on="0"/>
        <pt x="318" y="454" on="0"/>
        <pt x="343" y="417" on="0"/>
        <pt x="349" y="397" on="1"/>
        <pt x="354" y="439" on="0"/>
        <pt x="420" y="495" on="0"/>
        <pt x="469" y="495" on="1"/>
        <pt x="776" y="495" on="1"/>
        <pt x="846" y="495" on="0"/>
        <pt x="925" y="429" on="0"/>
        <pt x="925" y="373" on="1"/>
        <pt x="925" y="324" on="0"/>
        <pt x="863" y="263" on="0"/>
        <pt x="812" y="263" on="1"/>
        <pt x="764" y="263" on="0"/>
        <pt x="701" y="321" on="0"/>
        <pt x="701" y="370" on="1"/>
        <pt x="701" y="399" on="0"/>
        <pt x="725" y="444" on="0"/>
        <pt x="747" y="459" on="1"/>
        <pt x="558" y="459" on="1"/>
        <pt x="579" y="442" on="0"/>
        <pt x="598" y="394" on="0"/>
        <pt x="598" y="365" on="1"/>
        <pt x="598" y="320" on="0"/>
        <pt x="555" y="249" on="0"/>
        <pt x="512" y="229" on="1"/>
        <pt x="550" y="222" on="0"/>
        <pt x="603" y="162" on="0"/>
        <pt x="603" y="115" on="1"/>
        <pt x="603" y="58" on="0"/>
        <pt x="534" y="-10" on="0"/>
        <pt x="477" y="-10" on="1"/>
        <pt x="439" y="-10" on="0"/>
        <pt x="378" y="28" on="0"/>
        <pt x="361" y="62" on="1"/>
        <pt x="391" y="82" on="1"/>
        <pt x="405" y="55" on="0"/>
        <pt x="448" y="26" on="0"/>
        <pt x="478" y="26" on="1"/>
        <pt x="515" y="26" on="0"/>
        <pt x="561" y="76" on="0"/>
        <pt x="561" y="117" on="1"/>
        <pt x="561" y="159" on="0"/>
        <pt x="514" y="205" on="0"/>
        <pt x="479" y="205" on="1"/>
        <pt x="446" y="205" on="0"/>
        <pt x="399" y="169" on="0"/>
        <pt x="373" y="140" on="1"/>
        <pt x="309" y="67" on="1"/>
        <pt x="297" y="53" on="0"/>
        <pt x="268" y="26" on="0"/>
        <pt x="234" y="4" on="0"/>
        <pt x="194" y="-10" on="0"/>
        <pt x="171" y="-10" on="1"/>
        <pt x="119" y="-10" on="0"/>
        <pt x="58" y="45" on="0"/>
        <pt x="58" y="93" on="1"/>
        <pt x="58" y="141" on="0"/>
        <pt x="118" y="200" on="0"/>
        <pt x="169" y="205" on="1"/>
        <pt x="390" y="224" on="1"/>
        <pt x="467" y="230" on="0"/>
        <pt x="556" y="304" on="0"/>
        <pt x="556" y="361" on="1"/>
        <pt x="556" y="407" on="0"/>
        <pt x="508" y="460" on="0"/>
        <pt x="466" y="460" on="1"/>
        <pt x="424" y="460" on="0"/>
        <pt x="371" y="400" on="0"/>
        <pt x="371" y="342" on="1"/>
        <pt x="371" y="272" on="1"/>
        <pt x="330" y="272" on="1"/>
        <pt x="330" y="336" on="1"/>
        <pt x="330" y="366" on="0"/>
        <pt x="311" y="413" on="0"/>
        <pt x="277" y="446" on="0"/>
        <pt x="231" y="463" on="0"/>
        <pt x="204" y="463" on="1"/>
        <pt x="157" y="463" on="0"/>
        <pt x="98" y="419" on="0"/>
        <pt x="90" y="380" on="1"/>
        <pt x="102" y="397" on="0"/>
        <pt x="141" y="418" on="0"/>
        <pt x="165" y="418" on="1"/>
        <pt x="204" y="418" on="0"/>
        <pt x="257" y="365" on="0"/>
        <pt x="257" y="325" on="1"/>
        <pt x="257" y="283" on="0"/>
        <pt x="199" y="228" on="0"/>
        <pt x="154" y="228" on="1"/>
        <pt x="135" y="228" on="0"/>
        <pt x="99" y="241" on="0"/>
        <pt x="70" y="270" on="0"/>
        <pt x="52" y="315" on="0"/>
        <pt x="52" y="347" on="1"/>
        <pt x="52" y="417" on="0"/>
        <pt x="137" y="499" on="0"/>
      </contour>
      <contour>
        <pt x="335" y="150" on="1"/>
        <pt x="349" y="165" on="0"/>
        <pt x="370" y="184" on="0"/>
        <pt x="381" y="194" on="1"/>
        <pt x="179" y="171" on="1"/>
        <pt x="143" y="166" on="0"/>
        <pt x="101" y="125" on="0"/>
        <pt x="101" y="93" on="1"/>
        <pt x="101" y="62" on="0"/>
        <pt x="141" y="27" on="0"/>
        <pt x="173" y="27" on="1"/>
        <pt x="202" y="27" on="0"/>
        <pt x="248" y="58" on="0"/>
        <pt x="271" y="82" on="1"/>
      </contour>
      <contour>
        <pt x="882" y="373" on="1"/>
        <pt x="882" y="411" on="0"/>
        <pt x="838" y="454" on="0"/>
        <pt x="808" y="457" on="1"/>
        <pt x="778" y="450" on="0"/>
        <pt x="743" y="400" on="0"/>
        <pt x="743" y="371" on="1"/>
        <pt x="743" y="338" on="0"/>
        <pt x="782" y="299" on="0"/>
        <pt x="814" y="299" on="1"/>
        <pt x="844" y="299" on="0"/>
        <pt x="882" y="339" on="0"/>
      </contour>
      <contour>
        <pt x="153" y="386" on="1"/>
        <pt x="129" y="386" on="0"/>
        <pt x="95" y="354" on="0"/>
        <pt x="88" y="329" on="1"/>
        <pt x="92" y="291" on="0"/>
        <pt x="132" y="260" on="0"/>
        <pt x="155" y="260" on="1"/>
        <pt x="182" y="260" on="0"/>
        <pt x="217" y="294" on="0"/>
        <pt x="217" y="324" on="1"/>
        <pt x="217" y="353" on="0"/>
        <pt x="182" y="386" on="0"/>
      </contour>
    </TTGlyph>
    <TTGlyph name="JaAltMatraUu.tm" xMin="52" yMin="-10" xMax="1111" yMax="616">
      <contour>
        <pt x="906" y="616" on="1"/>
        <pt x="953" y="616" on="0"/>
        <pt x="1029" y="585" on="0"/>
        <pt x="1082" y="530" on="0"/>
        <pt x="1111" y="454" on="0"/>
        <pt x="1111" y="410" on="1"/>
        <pt x="1111" y="329" on="0"/>
        <pt x="1027" y="211" on="0"/>
        <pt x="952" y="179" on="1"/>
        <pt x="934" y="218" on="1"/>
        <pt x="995" y="244" on="0"/>
        <pt x="1065" y="347" on="0"/>
        <pt x="1065" y="410" on="1"/>
        <pt x="1065" y="485" on="0"/>
        <pt x="983" y="578" on="0"/>
        <pt x="902" y="578" on="1"/>
        <pt x="851" y="578" on="0"/>
        <pt x="772" y="531" on="0"/>
        <pt x="756" y="494" on="1"/>
        <pt x="782" y="494" on="1"/>
        <pt x="851" y="494" on="0"/>
        <pt x="920" y="430" on="0"/>
        <pt x="920" y="383" on="1"/>
        <pt x="920" y="339" on="0"/>
        <pt x="859" y="281" on="0"/>
        <pt x="807" y="281" on="1"/>
        <pt x="756" y="281" on="0"/>
        <pt x="695" y="348" on="0"/>
        <pt x="695" y="403" on="1"/>
        <pt x="695" y="418" on="0"/>
        <pt x="699" y="449" on="0"/>
        <pt x="702" y="460" on="1"/>
        <pt x="557" y="460" on="1"/>
        <pt x="598" y="426" on="0"/>
        <pt x="598" y="365" on="1"/>
        <pt x="598" y="320" on="0"/>
        <pt x="555" y="249" on="0"/>
        <pt x="512" y="229" on="1"/>
        <pt x="550" y="222" on="0"/>
        <pt x="603" y="162" on="0"/>
        <pt x="603" y="115" on="1"/>
        <pt x="603" y="58" on="0"/>
        <pt x="534" y="-10" on="0"/>
        <pt x="477" y="-10" on="1"/>
        <pt x="439" y="-10" on="0"/>
        <pt x="378" y="28" on="0"/>
        <pt x="361" y="62" on="1"/>
        <pt x="391" y="82" on="1"/>
        <pt x="405" y="55" on="0"/>
        <pt x="448" y="26" on="0"/>
        <pt x="478" y="26" on="1"/>
        <pt x="515" y="26" on="0"/>
        <pt x="561" y="76" on="0"/>
        <pt x="561" y="117" on="1"/>
        <pt x="561" y="159" on="0"/>
        <pt x="514" y="205" on="0"/>
        <pt x="479" y="205" on="1"/>
        <pt x="446" y="205" on="0"/>
        <pt x="399" y="169" on="0"/>
        <pt x="373" y="140" on="1"/>
        <pt x="309" y="67" on="1"/>
        <pt x="297" y="53" on="0"/>
        <pt x="268" y="26" on="0"/>
        <pt x="234" y="4" on="0"/>
        <pt x="194" y="-10" on="0"/>
        <pt x="171" y="-10" on="1"/>
        <pt x="119" y="-10" on="0"/>
        <pt x="58" y="45" on="0"/>
        <pt x="58" y="93" on="1"/>
        <pt x="58" y="141" on="0"/>
        <pt x="118" y="200" on="0"/>
        <pt x="169" y="205" on="1"/>
        <pt x="390" y="224" on="1"/>
        <pt x="467" y="230" on="0"/>
        <pt x="556" y="304" on="0"/>
        <pt x="556" y="361" on="1"/>
        <pt x="556" y="407" on="0"/>
        <pt x="508" y="460" on="0"/>
        <pt x="466" y="460" on="1"/>
        <pt x="424" y="460" on="0"/>
        <pt x="371" y="400" on="0"/>
        <pt x="371" y="342" on="1"/>
        <pt x="371" y="272" on="1"/>
        <pt x="330" y="272" on="1"/>
        <pt x="330" y="336" on="1"/>
        <pt x="330" y="366" on="0"/>
        <pt x="311" y="413" on="0"/>
        <pt x="277" y="446" on="0"/>
        <pt x="231" y="463" on="0"/>
        <pt x="204" y="463" on="1"/>
        <pt x="157" y="463" on="0"/>
        <pt x="98" y="419" on="0"/>
        <pt x="90" y="380" on="1"/>
        <pt x="102" y="397" on="0"/>
        <pt x="141" y="418" on="0"/>
        <pt x="165" y="418" on="1"/>
        <pt x="204" y="418" on="0"/>
        <pt x="257" y="365" on="0"/>
        <pt x="257" y="325" on="1"/>
        <pt x="257" y="283" on="0"/>
        <pt x="199" y="228" on="0"/>
        <pt x="154" y="228" on="1"/>
        <pt x="135" y="228" on="0"/>
        <pt x="99" y="241" on="0"/>
        <pt x="70" y="270" on="0"/>
        <pt x="52" y="315" on="0"/>
        <pt x="52" y="347" on="1"/>
        <pt x="52" y="417" on="0"/>
        <pt x="137" y="499" on="0"/>
        <pt x="205" y="499" on="1"/>
        <pt x="235" y="499" on="0"/>
        <pt x="282" y="482" on="0"/>
        <pt x="318" y="454" on="0"/>
        <pt x="343" y="417" on="0"/>
        <pt x="349" y="397" on="1"/>
        <pt x="354" y="439" on="0"/>
        <pt x="420" y="495" on="0"/>
        <pt x="469" y="495" on="1"/>
        <pt x="714" y="495" on="1"/>
        <pt x="723" y="516" on="0"/>
        <pt x="755" y="559" on="0"/>
        <pt x="803" y="594" on="0"/>
        <pt x="866" y="616" on="0"/>
      </contour>
      <contour>
        <pt x="335" y="150" on="1"/>
        <pt x="349" y="165" on="0"/>
        <pt x="370" y="184" on="0"/>
        <pt x="381" y="194" on="1"/>
        <pt x="179" y="171" on="1"/>
        <pt x="143" y="166" on="0"/>
        <pt x="101" y="125" on="0"/>
        <pt x="101" y="93" on="1"/>
        <pt x="101" y="62" on="0"/>
        <pt x="141" y="27" on="0"/>
        <pt x="173" y="27" on="1"/>
        <pt x="202" y="27" on="0"/>
        <pt x="248" y="58" on="0"/>
        <pt x="271" y="82" on="1"/>
      </contour>
      <contour>
        <pt x="745" y="459" on="1"/>
        <pt x="742" y="448" on="0"/>
        <pt x="738" y="422" on="0"/>
        <pt x="738" y="406" on="1"/>
        <pt x="738" y="364" on="0"/>
        <pt x="776" y="317" on="0"/>
        <pt x="811" y="317" on="1"/>
        <pt x="841" y="317" on="0"/>
        <pt x="877" y="354" on="0"/>
        <pt x="877" y="383" on="1"/>
        <pt x="877" y="421" on="0"/>
        <pt x="824" y="459" on="0"/>
        <pt x="777" y="459" on="1"/>
      </contour>
      <contour>
        <pt x="153" y="386" on="1"/>
        <pt x="129" y="386" on="0"/>
        <pt x="95" y="354" on="0"/>
        <pt x="88" y="329" on="1"/>
        <pt x="92" y="291" on="0"/>
        <pt x="132" y="260" on="0"/>
        <pt x="155" y="260" on="1"/>
        <pt x="182" y="260" on="0"/>
        <pt x="217" y="294" on="0"/>
        <pt x="217" y="324" on="1"/>
        <pt x="217" y="353" on="0"/>
        <pt x="182" y="386" on="0"/>
      </contour>
    </TTGlyph>
    <TTGlyph name="JaAltPulli.tm" xMin="52" yMin="-10" xMax="603" yMax="691">
      <contour>
        <pt x="205" y="499" on="1"/>
        <pt x="235" y="499" on="0"/>
        <pt x="282" y="482" on="0"/>
        <pt x="318" y="454" on="0"/>
        <pt x="343" y="417" on="0"/>
        <pt x="349" y="397" on="1"/>
        <pt x="354" y="440" on="0"/>
        <pt x="420" y="499" on="0"/>
        <pt x="469" y="499" on="1"/>
        <pt x="528" y="499" on="0"/>
        <pt x="598" y="425" on="0"/>
        <pt x="598" y="367" on="1"/>
        <pt x="598" y="322" on="0"/>
        <pt x="555" y="249" on="0"/>
        <pt x="512" y="229" on="1"/>
        <pt x="550" y="222" on="0"/>
        <pt x="603" y="162" on="0"/>
        <pt x="603" y="115" on="1"/>
        <pt x="603" y="58" on="0"/>
        <pt x="534" y="-10" on="0"/>
        <pt x="477" y="-10" on="1"/>
        <pt x="439" y="-10" on="0"/>
        <pt x="378" y="28" on="0"/>
        <pt x="361" y="62" on="1"/>
        <pt x="391" y="82" on="1"/>
        <pt x="405" y="55" on="0"/>
        <pt x="448" y="26" on="0"/>
        <pt x="478" y="26" on="1"/>
        <pt x="515" y="26" on="0"/>
        <pt x="561" y="76" on="0"/>
        <pt x="561" y="117" on="1"/>
        <pt x="561" y="159" on="0"/>
        <pt x="514" y="205" on="0"/>
        <pt x="479" y="205" on="1"/>
        <pt x="446" y="205" on="0"/>
        <pt x="398" y="169" on="0"/>
        <pt x="372" y="140" on="1"/>
        <pt x="308" y="67" on="1"/>
        <pt x="283" y="39" on="0"/>
        <pt x="217" y="-10" on="0"/>
        <pt x="171" y="-10" on="1"/>
        <pt x="119" y="-10" on="0"/>
        <pt x="58" y="45" on="0"/>
        <pt x="58" y="93" on="1"/>
        <pt x="58" y="142" on="0"/>
        <pt x="118" y="202" on="0"/>
        <pt x="169" y="207" on="1"/>
        <pt x="390" y="226" on="1"/>
        <pt x="466" y="232" on="0"/>
        <pt x="555" y="306" on="0"/>
        <pt x="555" y="361" on="1"/>
        <pt x="555" y="409" on="0"/>
        <pt x="508" y="463" on="0"/>
        <pt x="466" y="463" on="1"/>
        <pt x="424" y="463" on="0"/>
        <pt x="371" y="402" on="0"/>
        <pt x="371" y="342" on="1"/>
        <pt x="371" y="272" on="1"/>
        <pt x="330" y="272" on="1"/>
        <pt x="330" y="336" on="1"/>
        <pt x="330" y="366" on="0"/>
        <pt x="311" y="413" on="0"/>
        <pt x="277" y="446" on="0"/>
        <pt x="231" y="463" on="0"/>
        <pt x="204" y="463" on="1"/>
        <pt x="157" y="463" on="0"/>
        <pt x="98" y="419" on="0"/>
        <pt x="90" y="380" on="1"/>
        <pt x="102" y="397" on="0"/>
        <pt x="141" y="418" on="0"/>
        <pt x="165" y="418" on="1"/>
        <pt x="204" y="418" on="0"/>
        <pt x="257" y="365" on="0"/>
        <pt x="257" y="325" on="1"/>
        <pt x="257" y="283" on="0"/>
        <pt x="199" y="228" on="0"/>
        <pt x="154" y="228" on="1"/>
        <pt x="135" y="228" on="0"/>
        <pt x="99" y="241" on="0"/>
        <pt x="70" y="270" on="0"/>
        <pt x="52" y="315" on="0"/>
        <pt x="52" y="347" on="1"/>
        <pt x="52" y="417" on="0"/>
        <pt x="137" y="499" on="0"/>
      </contour>
      <contour>
        <pt x="334" y="150" on="1"/>
        <pt x="348" y="165" on="0"/>
        <pt x="369" y="184" on="0"/>
        <pt x="380" y="194" on="1"/>
        <pt x="178" y="171" on="1"/>
        <pt x="142" y="166" on="0"/>
        <pt x="100" y="125" on="0"/>
        <pt x="100" y="93" on="1"/>
        <pt x="100" y="62" on="0"/>
        <pt x="140" y="27" on="0"/>
        <pt x="172" y="27" on="1"/>
        <pt x="201" y="27" on="0"/>
        <pt x="247" y="58" on="0"/>
        <pt x="270" y="82" on="1"/>
      </contour>
      <contour>
        <pt x="153" y="386" on="1"/>
        <pt x="129" y="386" on="0"/>
        <pt x="95" y="354" on="0"/>
        <pt x="88" y="329" on="1"/>
        <pt x="92" y="291" on="0"/>
        <pt x="132" y="260" on="0"/>
        <pt x="155" y="260" on="1"/>
        <pt x="182" y="260" on="0"/>
        <pt x="217" y="294" on="0"/>
        <pt x="217" y="324" on="1"/>
        <pt x="217" y="353" on="0"/>
        <pt x="182" y="386" on="0"/>
      </contour>
      <contour>
        <pt x="326" y="691" on="1"/>
        <pt x="346" y="691" on="0"/>
        <pt x="371" y="666" on="0"/>
        <pt x="371" y="647" on="1"/>
        <pt x="371" y="628" on="0"/>
        <pt x="347" y="603" on="0"/>
        <pt x="328" y="603" on="1"/>
        <pt x="308" y="603" on="0"/>
        <pt x="283" y="628" on="0"/>
        <pt x="283" y="647" on="1"/>
        <pt x="283" y="666" on="0"/>
        <pt x="307" y="691" on="0"/>
      </contour>
    </TTGlyph>
</ttFont>
